<svg id="Layer_1" data-name="Layer 1" xmlns="http://www.w3.org/2000/svg" viewBox="0 0 587.63 588"><defs><style>.cls-1{fill:#2a557f;}</style></defs><title>naviogationStarVector</title><path class="cls-1" d="M297.18,463.89l.39-2.23L318.85,335l51,36.32,2.38,1.81-1.81-2.38-36.32-51,126.62-21.28,2.63-.4-2.63-.41L334.09,276.44l36.32-51,1.54-2.12-2.11,1.55-51,36.31L297.57,134.58l-.4-2.53-.4,2.53L275.49,261.19l-51-36.31-1.89-1.32,1.32,1.89,36.31,51L133.63,297.71l-2.33.4,2.33.41L260.24,319.8l-36.31,51-1.42,2,2-1.42,51-36.32,21.28,126.62Zm69.72-96.62L321.13,321.5h0l-1.64-1.64-19.74-19.74,33.35,19.7Zm-48-105.08,47.44-33.79-45.76,45.76h0l-19.7,19.7-1.68,1.68Zm14.59,15,122.27,20.55H298.67Zm-35.88,22.46,20.55,34.79L297.58,456.66ZM227.45,229l67.14,67.14-33.35-19.7Zm48,105.07L228,367.84l47.8-47.8,19.34-19.34Zm-14.59-15L138.61,298.53H295.66Zm35.88-22.46-20.55-34.79,20.55-122.27Zm4.68-213.94c1.25,0,2-1,2-2.55v-1c0-1.57-.78-2.55-2-2.55s-2,1-2,2.55v1C299.4,81.71,300.18,82.68,301.44,82.68Zm-1.19-3.62c0-1.34.36-1.91,1.19-1.91s1.18.57,1.18,1.91v1.12c0,1.34-.35,1.92-1.18,1.92s-1.19-.58-1.19-1.92Zm-5.56,8.45c2.16,0,3.49-1.68,3.49-4.38V81.38c0-2.7-1.33-4.38-3.49-4.38s-3.5,1.68-3.5,4.38v1.75C291.19,85.83,292.53,87.51,294.69,87.51Zm-2-6.22c0-2.3.61-3.28,2-3.28s2,1,2,3.28v1.92c0,2.31-.61,3.29-2,3.29s-2-1-2-3.29ZM121.14,300h-4.6v-4.56h-1.28V300H111v-5.75H109.7v7.45h12.72v-7.84l-1.28-.16Zm88,73.67-1,.79,4.45,4.45-3.25,3.26L206.06,379l-.9.9,3.23,3.23-3,3-4.08-4.07-.9.91,5.27,5.27,9-9Zm91.66,108.92a3.3,3.3,0,0,0-.93-2.35,8.9,8.9,0,0,0-2.13-1.48,11.93,11.93,0,0,1-2-1.23,2,2,0,0,1-.79-1.63c0-1.27.94-2,2.62-2a6.8,6.8,0,0,1,3.54,1v-1.49a7.81,7.81,0,0,0-3.59-.85c-2.59,0-4.23,1.33-4.23,3.42a3.28,3.28,0,0,0,1.26,2.61,10.78,10.78,0,0,0,2.41,1.53c1.77,1,2.24,1.52,2.24,2.57s-.79,1.82-2.27,1.82a6.29,6.29,0,0,1-3-.77v1.45a7.48,7.48,0,0,0,3,.63C299.29,485.89,300.76,484.65,300.76,482.62ZM209.14,222.51l-7-7,12.17,1.86.81-.81-9-9L205,208.66l6.69,6.7-11.6-1.79L199,214.63l9,9Zm5,160.73a3.29,3.29,0,0,0-1,2.73,10.93,10.93,0,0,0,.63,2.78c.57,1.94.51,2.66-.23,3.41s-1.84.73-2.9-.32a6.26,6.26,0,0,1-1.58-2.68l-1,1a7.56,7.56,0,0,0,1.66,2.55c1.7,1.69,3.62,1.86,5.05.42a3.24,3.24,0,0,0,1-2.31,8.68,8.68,0,0,0-.46-2.57,10.71,10.71,0,0,1-.51-2.25,1.94,1.94,0,0,1,.59-1.7c.9-.91,2.08-.75,3.26.44a6.65,6.65,0,0,1,1.77,3.23l1.06-1.05a7.84,7.84,0,0,0-1.93-3.14C217.73,382,215.62,381.75,214.14,383.24ZM377.78,201l-1.86,12.18.8.8,9-9-1.11-1.12-6.7,6.7L379.69,199,378.64,198l-9,9,1.11,1.12Zm14.14,176.45a8.87,8.87,0,0,0-2.56.45,11.25,11.25,0,0,1-2.25.52,2,2,0,0,1-1.71-.59c-.9-.9-.74-2.08.45-3.27a6.83,6.83,0,0,1,3.22-1.77L388,371.78a7.73,7.73,0,0,0-3.14,1.93c-1.83,1.83-2.05,3.94-.57,5.42a3.28,3.28,0,0,0,2.74.95,11,11,0,0,0,2.78-.63c1.93-.57,2.66-.5,3.4.24s.73,1.84-.32,2.89a6.18,6.18,0,0,1-2.67,1.59l1,1a7.34,7.34,0,0,0,2.55-1.65c1.7-1.7,1.86-3.62.42-5.05A3.22,3.22,0,0,0,391.92,377.49Zm92.72-73.21-9.94-2.62,9.94-2.89v-1.12l-9.94-3,9.94-2.57v-1.73l-12.81,3.52v1.26l9.63,2.93L471.83,301v1.32l12.81,3.56ZM223.11,208.53l-.79-1L217.87,212l-3.26-3.25,3.23-3.23-.9-.91-3.23,3.23-3-3,4.07-4.07-.9-.9-5.28,5.27,9,9ZM377.77,381.05l4.73,8.88-8.84-4.78-.94,1,6.54,11.56,1.12-1.11-5.17-8.88,9.07,5,.79-.79-4.94-9.12L389,388l1.22-1.22-11.54-6.57Zm-84-267.6,7.29,9.92h1.14V110.65H300.6v9.46l-6.94-9.46h-1.49v12.72h1.58ZM381.62,219l8.88-4.72-4.77,8.83.94.94,11.57-6.55-1.12-1.11-8.88,5.17,5-9.07-.8-.79-9.11,4.94,5.2-8.85-1.22-1.22-6.57,11.54ZM297,581.43a3.19,3.19,0,0,0-3.43,3.33c0,2,1.12,3,3.17,3a3.67,3.67,0,0,0,2.42-.79c-.07,2.58-1.69,4-4.79,4.15v1.13a7.75,7.75,0,0,0,3.75-1c1.69-1,2.5-2.61,2.5-5C300.64,583.17,299.36,581.43,297,581.43Zm0,5.37c-1.43,0-1.92-.52-1.92-2.06s.56-2.29,1.89-2.29c1.6,0,2.24,1,2.24,3.6A3.31,3.31,0,0,1,297,586.8ZM442.28,53.46l-2-1.17,4.6-8-.64-.37L441,43.47l-.45.79,2.42.5-3.95,6.84-2.44-1.41-.45.79,5.66,3.27ZM156.81,543.75l-8.94,6.14-.43.75,5.93,3.43.65-.92-5-2.87,9-5.82ZM545.18,158.5l-2.36-4.09c2.32.76,2.68.86,3.43,1.05,1.89.46,3,.38,4.16-.3,1.68-1,2.06-2.48,1-4.24a4.46,4.46,0,0,0-2.22-2l-1,.56a4.58,4.58,0,0,1,2.2,1.88,1.62,1.62,0,0,1-.72,2.5c-1.54.89-2.78.81-6.75-.45l-1.26-.4-.7.4,3.16,5.48ZM47.49,438.14a2.36,2.36,0,0,0-1.23,1.54,4.85,4.85,0,0,0,0,1.68,2.78,2.78,0,0,0-3.07-.35c-1.35.79-1.53,2.18-.51,3.94s2.47,2.38,3.85,1.59c.95-.55,1.29-1.34,1.25-2.81,1.39,1,2.32,1.17,3.39.56,1.51-.88,1.76-2.58.64-4.51S49.05,437.24,47.49,438.14Zm-1.79,7.28c-.78.46-1.5.15-2.11-.91s-.5-1.82.38-2.32a2.14,2.14,0,0,1,2.41.17C46.63,444.35,46.49,445,45.7,445.42ZM50.5,443a2.24,2.24,0,0,1-2.72-.28l-.11-.08a9.18,9.18,0,0,1-.18-1.73,1.66,1.66,0,0,1,.88-1.71c1-.55,1.84-.2,2.54,1S51.47,442.48,50.5,443ZM590.29,295h-1.11a5.62,5.62,0,0,1,.71,2.7c0,1.21-.44,1.75-1.41,1.75-1.23,0-1.63-.5-2.1-2.6l-.09-.36h-1a7.81,7.81,0,0,1,.21,1.72c0,1.14-.44,1.64-1.45,1.64a2.18,2.18,0,0,1-2.19-1.61,9.31,9.31,0,0,1-.65-3.62h-1.14a12.25,12.25,0,0,0,.53,3.51c.62,2.06,1.8,3.12,3.45,3.12a2,2,0,0,0,1.85-1,2.75,2.75,0,0,0,.34-1.21c.54,1.37,1.13,1.83,2.3,1.83,1.61,0,2.44-1.05,2.44-3A6,6,0,0,0,590.29,295Zm-582-.36c-3.17,0-4.9,1.28-4.9,3.63a3.18,3.18,0,0,0,3.32,3.42c2,0,3.06-1.12,3.06-3.17a3.65,3.65,0,0,0-.8-2.41c2.59.07,4,1.69,4.15,4.79h1.14a8,8,0,0,0-1-3.76A5.26,5.26,0,0,0,8.26,294.65Zm-1.59,5.59c-1.62,0-2.29-.56-2.29-1.89,0-1.6,1-2.23,3.59-2.23a3.28,3.28,0,0,1,.76,2.2C8.73,299.75,8.2,300.24,6.67,300.24ZM546.58,437.61l-2.49,4.32-1.92-1.11-.69,1.19,1.92,1.11-.71,1.23.84.48.71-1.23,3,1.74.56-1.27-2.87-1.66,1.74-3,4.09,7.7.65-1.12-4.21-8ZM46.89,152.74l1.52.87c2.34,1.35,4.46,1,5.54-.84s.29-3.86-2.05-5.22l-1.51-.87c-2.34-1.35-4.46-1-5.54.84S44.56,151.39,46.89,152.74ZM45.72,148c.72-1.23,1.87-1.27,3.87-.11l1.66,1c2,1.15,2.53,2.17,1.82,3.4s-1.86,1.27-3.86.12l-1.66-1C45.56,150.28,45,149.26,45.72,148Zm-4,8,6.84,4-1.41,2.43.79.46,3.27-5.66-.79-.46-1.17,2-8-4.59-.37.63-.49,3.17.79.46ZM442.16,547.62c-1.39.81-2.22.71-2.82-.32a2.1,2.1,0,0,1-.06-2.46,7.71,7.71,0,0,1,2.71-2.36l-.56-1a10.59,10.59,0,0,0-2.71,2.19,3.37,3.37,0,0,0-.58,4.3c.86,1.51,2.35,1.84,4,.89a4.2,4.2,0,0,0,1.07-.86l1.17,2.87-3.45,2,.4,1,4.38-2.53-2-4.9A7.35,7.35,0,0,1,442.16,547.62ZM154.36,43l4,6.84-2.44,1.41.45.78L162,48.78l-.45-.79-2,1.17-4.6-8-.64.37-2,2.5.45.79ZM147,47.27l4,6.84-2.44,1.41.46.79L154.61,53l-.46-.79-2,1.17-4.59-8-.64.37-2,2.5.46.79Zm137.4,466.28c-1.26,0-2,1-2,2.56v1c0,1.57.78,2.55,2,2.55s2-1,2-2.55v-1C286.42,514.53,285.64,513.55,284.38,513.55Zm1.19,3.63c0,1.34-.36,1.91-1.19,1.91s-1.18-.57-1.18-1.91v-1.12c0-1.34.35-1.92,1.18-1.92s1.19.58,1.19,1.92Zm19.27-7.32h2.35v9.19h.74l3-1.16V517l-2.34.78v-7.9h2.81V509h-6.54Zm-2,6.83c0-1.09-.51-1.79-1.81-2.49,1.58-.69,2.18-1.42,2.18-2.65,0-1.75-1.35-2.82-3.58-2.82s-3.58,1.13-3.58,2.93a2.32,2.32,0,0,0,.72,1.83,4.55,4.55,0,0,0,1.45.84c-1.28.69-1.83,1.45-1.83,2.49,0,1.56,1.12,2.42,3.15,2.42S302.87,518.28,302.87,516.69Zm-5.4-5.24c0-1.1.75-1.69,2.16-1.69s2.2.62,2.2,1.74a2.26,2.26,0,0,1-1.6,2.22l-.13.06a10.69,10.69,0,0,1-1.59-.71A1.67,1.67,0,0,1,297.47,511.45Zm.36,5.29c0-.89.35-1.41,1.34-2,1.85.78,2.32,1.21,2.32,2.12s-.62,1.38-1.85,1.38S297.83,517.74,297.83,516.74Zm-6.7-8c-2.16,0-3.49,1.68-3.49,4.38v1.75c0,2.7,1.33,4.38,3.49,4.38s3.5-1.68,3.5-4.38v-1.75C294.63,510.41,293.29,508.73,291.13,508.73Zm2,6.21c0,2.31-.61,3.29-2,3.29s-2-1-2-3.29V513c0-2.31.61-3.29,2-3.29s2,1,2,3.29ZM404,116.61c1.87,1.08,3.86.3,5.21-2l.88-1.51c1.35-2.34,1-4.46-.84-5.54s-3.87-.3-5.22,2l-.87,1.51C401.83,113.41,402.15,115.53,404,116.61Zm.38-4.73,1-1.66c1.15-2,2.17-2.54,3.4-1.83s1.27,1.86.12,3.86l-1,1.66c-1.15,2-2.17,2.54-3.4,1.83S403.25,113.87,404.4,111.88Zm-3.26-1a2,2,0,0,0,0-2.11,2.77,2.77,0,0,0-.88-.9c1.45.21,2.15-.07,2.74-1.08.8-1.39.31-2.64-1.41-3.64a6,6,0,0,0-2.79-.8l-.55,1A5.74,5.74,0,0,1,401,104c1,.61,1.29,1.26.81,2.1-.62,1.07-1.25,1.16-3.3.52l-.35-.11-.51.88a8,8,0,0,1,1.6.67c1,.57,1.19,1.2.69,2.08a2.18,2.18,0,0,1-2.49,1.09A9.31,9.31,0,0,1,394,110l-.57,1a12.63,12.63,0,0,0,3.3,1.3C398.8,112.75,400.31,112.26,401.14,110.83Zm11.13,5c1.1.63,2.26.17,3.05-1.19l.51-.88c.79-1.37.6-2.6-.49-3.23s-2.26-.18-3,1.19l-.51.88C411,113.94,411.18,115.18,412.27,115.81Zm.23-2.76.56-1c.67-1.16,1.27-1.48,2-1.07s.74,1.09.07,2.26l-.56,1c-.67,1.16-1.26,1.48-2,1.06S411.83,114.21,412.5,113.05ZM186.63,477.5c-1.87-1.08-3.86-.3-5.21,2l-.88,1.51c-1.35,2.34-1,4.46.84,5.54s3.87.3,5.22-2l.87-1.52C188.82,480.7,188.5,478.58,186.63,477.5Zm-.38,4.73-1,1.66c-1.15,2-2.17,2.54-3.4,1.83s-1.27-1.87-.12-3.86l1-1.66c1.15-2,2.17-2.54,3.4-1.83S187.4,480.24,186.25,482.23Zm10,2.1.45-.79L191,480.27l-.46.79,2,1.17-4.59,8,.64.37,3.17.48.45-.79-2.42-.49,3.95-6.85Zm1.86,1.26,4.09,2.36c-2.4.5-2.76.59-3.5.8-1.86.55-2.78,1.17-3.45,2.34-1,1.69-.54,3.18,1.22,4.2a4.49,4.49,0,0,0,2.9.59l.56-1a4.56,4.56,0,0,1-2.84-.53,1.62,1.62,0,0,1-.63-2.52c.89-1.54,2-2.09,6.07-3l1.3-.29.4-.7-5.47-3.16Zm-19.71-7.29c-1.1-.63-2.26-.18-3,1.19l-.51.88c-.78,1.37-.6,2.6.49,3.23s2.26.17,3.05-1.19l.51-.88C179.65,480.16,179.47,478.93,178.38,478.3Zm-.23,2.76-.56,1c-.67,1.16-1.26,1.48-2,1.06s-.74-1.09-.07-2.25l.56-1c.67-1.16,1.26-1.48,2-1.06S178.82,479.89,178.15,481.06ZM484,188.26l-1.51.88c-2.34,1.35-3.12,3.34-2,5.21s3.2,2.19,5.54.84l1.51-.87c2.34-1.35,3.12-3.35,2-5.22S486.35,186.91,484,188.26Zm4.67,1.35c.71,1.23.17,2.25-1.83,3.4l-1.66,1c-2,1.15-3.15,1.11-3.86-.12s-.17-2.25,1.83-3.4l1.66-1C486.81,188.34,488,188.38,488.68,189.61Zm-.67,8.18c.63,1.09,1.87,1.27,3.23.49l.88-.51c1.37-.79,1.83-2,1.2-3s-1.87-1.28-3.24-.49l-.88.51C487.84,195.53,487.38,196.7,488,197.79Zm2.54-2.84c1.17-.67,1.84-.65,2.26.07s.09,1.31-1.07,2l-1,.56c-1.16.67-1.84.65-2.25-.07s-.1-1.31,1.06-2Zm-9.68-6.54c1.71-1,2.08-2.5,1.06-4.28a3.73,3.73,0,0,0-1.9-1.69c2.27-1.23,4.29-.52,6,2.07l1-.57a7.85,7.85,0,0,0-2.75-2.74,5.25,5.25,0,0,0-5.54.31c-2.75,1.59-3.61,3.56-2.44,5.59A3.19,3.19,0,0,0,480.87,188.41Zm-1.68-5.49a3.37,3.37,0,0,1,1.76,1.53c.71,1.25.5,1.93-.83,2.7s-2.26.66-2.93-.5C476.4,185.28,477,184.2,479.19,182.92Zm-361.56,228L120,415c-2.32-.76-2.68-.86-3.43-1.06-1.89-.45-3-.37-4.16.3-1.69,1-2.06,2.49-1,4.25a4.46,4.46,0,0,0,2.22,2l1-.56a4.58,4.58,0,0,1-2.2-1.88,1.62,1.62,0,0,1,.72-2.5c1.54-.89,2.78-.81,6.74.45l1.27.4.7-.4-3.16-5.48Zm-1.76-.75-2.5-4.32,1.92-1.11-.69-1.19-1.92,1.1-.71-1.23-.83.49.71,1.23-3,1.73.83,1.12,2.87-1.66,1.74,3-8.71-.31.64,1.12,9,.36Zm-7.67-5.89,1.51-.88c2.34-1.35,3.12-3.34,2.05-5.21s-3.21-2.19-5.54-.84l-1.52.87c-2.34,1.35-3.12,3.35-2,5.22S105.86,405.64,108.2,404.29Zm-4.67-1.35c-.71-1.23-.16-2.25,1.83-3.4l1.66-1c2-1.15,3.15-1.11,3.86.12s.17,2.25-1.83,3.4l-1.66,1C105.4,404.21,104.24,404.17,103.53,402.94Zm.67-8.18c-.63-1.09-1.86-1.28-3.23-.49l-.88.51c-1.36.79-1.82,2-1.19,3s1.87,1.28,3.23.49l.88-.51C104.38,397,104.83,395.85,104.2,394.76Zm-2.54,2.84c-1.16.67-1.84.65-2.25-.07s-.1-1.31,1.06-2l1-.56c1.17-.68,1.84-.65,2.25.06s.1,1.32-1.06,2Zm416.63-97.7c0-2.16-1.68-3.5-4.38-3.5h-1.75c-2.7,0-4.38,1.34-4.38,3.5s1.68,3.5,4.38,3.5h1.75C516.61,303.4,518.29,302.06,518.29,299.9Zm-6.21,2c-2.31,0-3.29-.61-3.29-2s1-2,3.29-2H514c2.31,0,3.29.61,3.29,2s-1,2-3.29,2Zm3.08,2.68c-1.58,0-2.56.78-2.56,2s1,2,2.56,2h1c1.57,0,2.55-.78,2.55-2s-1-2-2.55-2Zm3,2c0,.83-.57,1.18-1.91,1.18h-1.12c-1.34,0-1.92-.35-1.92-1.18s.58-1.19,1.92-1.19h1.12C517.57,305.46,518.14,305.82,518.14,306.65Zm-4.76-11.81c3.17,0,4.91-1.28,4.91-3.62a3.19,3.19,0,0,0-3.33-3.43c-2,0-3.06,1.12-3.06,3.17a3.68,3.68,0,0,0,.8,2.42c-2.59-.08-4-1.7-4.15-4.79h-1.14a8,8,0,0,0,1,3.75A5.26,5.26,0,0,0,513.38,294.84Zm1.59-5.59c1.63,0,2.29.56,2.29,1.89,0,1.6-1,2.24-3.59,2.24a3.32,3.32,0,0,1-.76-2.21C512.91,289.74,513.44,289.25,515,289.25ZM76.31,297.19V304l1.12.1V298.4L87,303.28v-1.42l-9.79-4.67Zm2.87-9.82c1.58,0,2.56-.78,2.56-2s-1-2-2.56-2h-1c-1.57,0-2.55.78-2.55,2s1,2,2.55,2Zm-3-2c0-.83.57-1.19,1.91-1.19h1.12c1.35,0,1.92.36,1.92,1.19s-.57,1.18-1.92,1.18H78.11C76.77,286.51,76.2,286.16,76.2,285.33Zm9.08,25.44c-1.64-1.82-1.89-2.09-2.45-2.63-1.4-1.34-2.4-1.82-3.75-1.82-1.94,0-3,1.12-3,3.15a4.53,4.53,0,0,0,.93,2.82h1.13a4.54,4.54,0,0,1-1-2.73c0-1.21.62-1.81,1.88-1.81,1.77,0,2.81.7,5.61,3.77l.9,1h.8v-6.32l-1.06-.13Zm-9.22-18.69c0,2.16,1.67,3.49,4.37,3.49h1.75c2.7,0,4.38-1.33,4.38-3.49s-1.68-3.5-4.38-3.5H80.43C77.73,288.58,76.06,289.92,76.06,292.08Zm6.21-2c2.3,0,3.28.61,3.28,2s-1,2-3.28,2H80.35c-2.3,0-3.29-.61-3.29-2s1-2,3.29-2ZM483.6,408.69l-1.51-.87c-2.34-1.35-4.46-1-5.54.84s-.3,3.87,2,5.22l1.51.87c2.34,1.35,4.46,1,5.54-.84S485.94,410,483.6,408.69Zm1.17,4.72c-.71,1.23-1.87,1.27-3.86.11l-1.66-1c-2-1.15-2.54-2.17-1.83-3.4s1.87-1.27,3.86-.12l1.66,1C484.94,411.16,485.48,412.18,484.77,413.41Zm8.31-15.34-6.84-3.95,1.41-2.44-.79-.45-3.27,5.66.79.45,1.17-2,8,4.6.37-.64.49-3.17-.79-.45Zm-3.38,4.69a4.57,4.57,0,0,1-.53,2.85,1.62,1.62,0,0,1-2.53.62c-1.53-.88-2.08-2-3-6.06-.15-.66-.24-1.1-.29-1.3l-.7-.41-3.16,5.48.86.64,2.36-4.08c.5,2.39.59,2.75.8,3.5.55,1.86,1.17,2.77,2.34,3.45,1.69,1,3.18.54,4.2-1.22a4.52,4.52,0,0,0,.59-2.91Zm-8.24,14.18-.88-.51c-1.37-.79-2.6-.61-3.23.49s-.17,2.25,1.19,3l.88.51c1.37.79,2.6.6,3.23-.49S482.83,417.72,481.46,416.94Zm.68,2.74c-.41.72-1.08.74-2.25.07l-1-.56c-1.16-.67-1.48-1.26-1.06-2s1.09-.74,2.25-.07l1,.56C482.24,418.37,482.56,419,482.14,419.68ZM100.91,198c.61-1,1.26-1.29,2.1-.81,1.07.62,1.16,1.25.52,3.31l-.11.35.88.5a7.83,7.83,0,0,1,.67-1.59c.57-1,1.2-1.2,2.08-.7a2.19,2.19,0,0,1,1.09,2.49,9.34,9.34,0,0,1-1.25,3.47l1,.56a12.5,12.5,0,0,0,1.3-3.3c.49-2.1,0-3.61-1.43-4.43a2,2,0,0,0-2.11,0,2.71,2.71,0,0,0-.9.87c.21-1.45-.07-2.15-1.08-2.73-1.39-.81-2.64-.32-3.64,1.41a6.15,6.15,0,0,0-.8,2.78l1,.56A5.75,5.75,0,0,1,100.91,198Zm12-18.7.88.51c1.37.79,2.61.61,3.23-.49s.18-2.25-1.19-3l-.88-.51c-1.36-.79-2.6-.6-3.23.49S111.52,178.52,112.88,179.3Zm-.68-2.74c.41-.72,1.09-.74,2.25-.07l1,.56c1.16.67,1.48,1.26,1.07,2s-1.09.74-2.26.07l-1-.56C112.1,177.87,111.79,177.27,112.2,176.56Zm-1.46,11,1.52.87c2.34,1.35,4.46,1,5.54-.84s.29-3.86-2-5.22l-1.51-.87c-2.34-1.35-4.46-1-5.54.84S108.4,186.2,110.74,187.55Zm-1.17-4.72c.72-1.23,1.87-1.27,3.86-.11l1.66,1c2,1.15,2.54,2.17,1.83,3.4s-1.86,1.27-3.86.12l-1.66-1C109.41,185.08,108.86,184.07,109.57,182.83Zm-3.09,12.1,1.51.87c2.34,1.36,4.46,1,5.54-.83s.3-3.87-2-5.22l-1.51-.88c-2.34-1.35-4.46-1-5.54.84S104.14,193.58,106.48,194.93Zm-1.17-4.71c.71-1.23,1.87-1.27,3.86-.12l1.66,1c2,1.15,2.54,2.17,1.83,3.4s-1.87,1.27-3.86.12l-1.66-1C105.14,192.47,104.6,191.45,105.31,190.22ZM416.86,482.63l-3.95-6.84,2.43-1.41-.45-.79-5.66,3.27.45.79,2-1.17,4.59,8,.64-.37,2-2.5-.45-.79Zm-8.9.79c-1.39.8-2.22.71-2.81-.33a2.09,2.09,0,0,1-.06-2.46,7.71,7.71,0,0,1,2.71-2.35l-.57-1a10.81,10.81,0,0,0-2.71,2.18,3.38,3.38,0,0,0-.58,4.31c.87,1.5,2.36,1.84,4,.89a4.36,4.36,0,0,0,1.06-.86l1.18,2.86-3.46,2,.4,1,4.38-2.53-2-4.9A7.79,7.79,0,0,1,408,483.42Zm-5.5,2.16c-1.35-2.34-3.34-3.12-5.22-2s-2.18,3.2-.83,5.53l.87,1.52c1.35,2.34,3.34,3.12,5.22,2s2.19-3.2.84-5.54Zm-.47,6.18c-1.23.71-2.25.17-3.4-1.83l-1-1.66c-1.15-2-1.11-3.15.12-3.86s2.25-.17,3.4,1.83l1,1.66C403.26,489.89,403.22,491.05,402,491.76Zm-5.14.52c-.78-1.36-2-1.82-3-1.19s-1.28,1.86-.49,3.23l.51.88c.79,1.37,1.95,1.82,3,1.19s1.28-1.86.49-3.23Zm-.27,3.6c-.72.42-1.31.1-2-1.06l-.56-1c-.68-1.17-.65-1.84.06-2.25s1.32-.1,2,1.06l.56,1C397.32,494.8,397.3,495.47,396.58,495.88ZM197.49,104c.79,1.36,1.95,1.82,3,1.19s1.28-1.86.49-3.23l-.51-.88c-.79-1.37-1.95-1.82-3-1.19s-1.28,1.86-.49,3.23Zm.27-3.6c.72-.42,1.32-.1,2,1.06l.56,1c.67,1.16.65,1.84-.07,2.25s-1.31.1-2-1.06l-.56-1C197,101.44,197.05,100.77,197.76,100.36Zm-20.49,12.93c1-.61,1.73-.49,2.21.34.62,1.07.39,1.67-1.2,3.12L178,117l.5.87a8.06,8.06,0,0,1,1.39-1c1-.56,1.63-.43,2.14.44a2.18,2.18,0,0,1-.3,2.7,9.39,9.39,0,0,1-2.81,2.38l.57,1a12,12,0,0,0,2.77-2.21c1.48-1.57,1.81-3.12,1-4.55a2,2,0,0,0-1.81-1.09,2.83,2.83,0,0,0-1.22.31c.91-1.15,1-1.9.43-2.91-.8-1.39-2.13-1.59-3.85-.6a6.17,6.17,0,0,0-2.09,2l.55,1A5.76,5.76,0,0,1,177.27,113.29Zm14.61-2.63c1.35,2.34,3.35,3.12,5.22,2s2.19-3.2.84-5.54l-.88-1.51c-1.35-2.34-3.34-3.12-5.22-2s-2.18,3.2-.83,5.54Zm.47-6.18c1.23-.71,2.25-.17,3.4,1.83l1,1.66c1.15,2,1.11,3.15-.12,3.86s-2.25.17-3.4-1.83l-1-1.66C191.08,106.35,191.12,105.19,192.35,104.48Zm-7.7,4.54c1-.6,1.74-.49,2.22.35.62,1.07.39,1.66-1.2,3.12l-.27.25.51.88a8.07,8.07,0,0,1,1.38-1.05c1-.57,1.64-.43,2.14.44a2.18,2.18,0,0,1-.3,2.7,9.27,9.27,0,0,1-2.81,2.38l.57,1a12.32,12.32,0,0,0,2.78-2.21c1.47-1.57,1.8-3.13,1-4.55a2,2,0,0,0-1.81-1.09,2.69,2.69,0,0,0-1.22.31c.91-1.15,1-1.9.44-2.91-.8-1.4-2.13-1.6-3.86-.6a6.08,6.08,0,0,0-2.09,2l.56,1A5.69,5.69,0,0,1,184.65,109Zm314.58,189.1c0-111.6-90.46-202.07-202.06-202.07S95.11,186.52,95.11,298.12s90.46,202.06,202.06,202.06S499.23,409.71,499.23,298.12Zm-403.3,0a201.23,201.23,0,1,1,58.94,142.3A200.59,200.59,0,0,1,95.93,298.12Zm477.51-.31v-.42h0q0-8.67-.58-17.25h0l0-.38v0l0-.41q-.57-8.64-1.68-17.17h0l-.06-.41v0l-.05-.38h0q-1.12-8.58-2.77-17h0l-.06-.29s0-.08,0-.11l-.08-.41h0c-1.12-5.66-2.44-11.26-3.92-16.81h0l-.11-.39q-2.28-8.55-5.12-16.92h0l-.11-.33,0-.06-.13-.39h0q-2.79-8.18-6.08-16.15h0l-.15-.38h0l-.15-.37h0q-3.33-8-7.16-15.7h0l-.18-.36c-.06-.12-.11-.23-.17-.34v0q-3.85-7.73-8.18-15.2h0l-.19-.33v0l-.21-.35h0q-4.33-7.44-9.15-14.63h0l-.23-.34-.23-.34h0q-4.82-7.14-10.1-14h0l-.2-.26,0-.07-.25-.32h0q-5.26-6.8-11-13.3h0l-.27-.31a.6.6,0,0,1-.08-.08l-.2-.23h0q-5.74-6.51-11.91-12.71l-.18-.17-.06-.06c-4.16-4.15-8.45-8.14-12.82-12h0l-.31-.27-.09-.08-.22-.19h0q-6.51-5.7-13.32-10.95h0l-.33-.25-.25-.19-.07,0h0q-6.87-5.26-14-10.08h0l-.24-.16-.1-.07-.34-.23h0q-7.18-4.8-14.64-9.11h0l-.32-.18,0,0-.36-.2h0q-7.47-4.32-15.2-8.14h0l-.37-.18h0l-.37-.18h0c-5.16-2.53-10.39-4.92-15.7-7.13h0l-.3-.12-.08,0-.38-.15h0q-8-3.28-16.15-6.05h0l-.39-.13-.21-.07-.18-.06h0q-8.17-2.74-16.52-5h0l-.36-.09,0,0-.4-.1h0c-5.55-1.46-11.15-2.77-16.8-3.89h0l-.4-.07-.08,0L350.6,27h0q-8.43-1.65-17-2.76h0l-.2,0-.2,0-.41-.05h0q-8.52-1.1-17.16-1.65h0l-.37,0h0l-.41,0h0c-5.71-.36-11.45-.56-17.22-.57h-.82c-5.78,0-11.52.22-17.23.58h0l-.41,0h-.41q-8.64.57-17.16,1.65h0l-.41.05-.3,0-.1,0h0q-8.56,1.11-17,2.76h0l-.41.08-.1,0-.3.06h0q-8.47,1.68-16.8,3.9h0l-.15,0-.24.06-.4.11h0q-8.34,2.23-16.51,5h0l-.38.14-.07,0-.32.11h0q-8.18,2.77-16.15,6h0l-.38.15-.07,0-.31.13h0q-8,3.32-15.7,7.14h0l-.37.19-.11,0-.25.13h0q-7.72,3.82-15.21,8.14h0l-.32.19h0l-.35.21h0q-7.45,4.34-14.65,9.12h0l-.34.23-.05,0-.29.2h0q-7.14,4.82-14,10.08h0l-.3.23,0,0-.32.25h0Q122,84.3,115.47,90h0l-.31.27s0,0,0,0l-.26.22h0q-6.45,5.67-12.6,11.77h0l-.29.29-.16.15c-4.13,4.13-8.09,8.38-11.93,12.72h0l-.27.31-.27.31h0q-5.7,6.5-11,13.3h0l-.25.33,0,0-.22.29h0q-5.28,6.87-10.09,14h0l-.18.28,0,.06-.23.34h0q-4.82,7.18-9.14,14.63h0l-.1.18-.1.17-.21.36h0q-4.34,7.48-8.18,15.2h0l-.18.37-.19.36h0c-2.55,5.16-4.95,10.4-7.16,15.71h0L42,192a.61.61,0,0,0-.05.12l-.16.37h0q-3.29,8-6.07,16.16h0l-.14.39c0,.07,0,.14-.07.22l-.06.17h0q-2.77,8.16-5,16.52h0l-.11.39s0,0,0,.06l-.09.34h0Q28,235,26.26,243.5h0l-.08.4,0,.17,0,.23h0q-1.65,8.44-2.77,17h0l-.05.4v0l0,.37h0q-1.11,8.52-1.68,17.17h0l0,.29v.12l0,.41h0q-.55,8.58-.59,17.25h0v.49c0,.07,0,.15,0,.24,0,5.81.2,11.59.56,17.34h0l0,.41h0l0,.41h0q.55,8.64,1.63,17.18h0l0,.24a.88.88,0,0,1,0,.17l.06.4h0q1.13,8.6,2.75,17.05h0l.07.39h0l.07.4h0C27.26,357.79,28.57,363.4,30,369h0l.1.4,0,.08.09.31h0q2.24,8.37,5,16.55h0l.1.29,0,.1.13.38h0q2.78,8.19,6.05,16.18h0l.11.28a1,1,0,0,0,0,.1l.16.38h0q3.31,8,7.14,15.73h0l.17.33v0l.18.36h0q3.83,7.74,8.14,15.24h0l.13.21a.64.64,0,0,0,.08.14l.2.36h0q4.32,7.45,9.12,14.67h0l.23.34.23.34h0q4.82,7.16,10.1,14h0l.2.26,0,.07.25.32h0q5.27,6.81,11,13.34h0l.15.16.12.15.27.31h0c3.87,4.4,7.89,8.72,12.08,12.91h0l.15.16q6.21,6.19,12.73,11.93h0l.18.16.12.11.31.28h0q6.51,5.73,13.32,11h0l.32.25.18.14.15.11h0q6.87,5.28,14,10.11h0l.23.15.11.07.34.23h0q7.2,4.82,14.66,9.15h0l.35.21.08,0,.28.17h0q7.49,4.33,15.23,8.18h0l.36.18.07,0,.3.15h0q7.75,3.82,15.73,7.16h0l.29.12.09,0,.38.16h0q8,3.28,16.19,6.07h0l.22.08.16,0,.39.14h0q8.19,2.76,16.55,5h0l.4.1.12,0,.27.07h0q8.34,2.21,16.84,3.91h0l.4.08.1,0,.3.06h0q8.46,1.65,17.06,2.77h0l.24,0,.17,0,.41.06h0q8.54,1.1,17.2,1.66h0l.41,0h.41c5.72.36,11.48.56,17.27.57h.82c5.78,0,11.54-.21,17.26-.57h0l.41,0h0l.37,0h0q8.66-.57,17.2-1.66h0l.41-.05.17,0,.24,0h0q8.59-1.12,17.05-2.77h0l.41-.08.11,0,.29-.06h0q8.5-1.7,16.84-3.92h0l.4-.11.11,0,.28-.07h0q8.37-2.24,16.55-5h0l.39-.13.17-.06.22-.08h0q8.19-2.79,16.18-6.07h0l.38-.16.14-.05.24-.1h0c5.32-2.21,10.56-4.61,15.73-7.16h0l.27-.13.1,0,.37-.18h0q7.74-3.85,15.23-8.18h0l.29-.17.06,0,.36-.21h0q7.46-4.35,14.66-9.15h0l.34-.23.34-.23h0q7.15-4.82,14-10.11h0l.31-.24h0l.33-.25h0q6.81-5.26,13.33-11h0l.31-.27,0,0,.26-.23h0q6.51-5.76,12.74-11.95l.15-.16L493,493h0q6.12-6.15,11.79-12.62h0l.27-.3.11-.12.16-.19h0q5.71-6.53,11-13.35h0l.25-.33.05-.07.2-.26h0q5.26-6.87,10.09-14h0l.23-.35.23-.34h0c3.21-4.8,6.24-9.7,9.13-14.67h0l.21-.35c0-.08.08-.16.13-.24l.07-.12h0q4.32-7.5,8.15-15.24h0l.15-.3,0-.06.18-.37h0c2.54-5.18,4.93-10.42,7.13-15.74h0l.15-.37.06-.14.1-.25h0q3.28-8,6-16.18h0l.13-.39,0-.08.1-.31h0q2.75-8.18,5-16.54h0l.11-.4a1.21,1.21,0,0,1,0-.18l0-.21h0c1.46-5.56,2.77-11.17,3.88-16.83h0l0-.21c0-.06,0-.13,0-.19l.07-.4h0q1.64-8.44,2.75-17h0l.06-.41q1.11-8.73,1.68-17.59h0l0-.41h0l0-.4h0c.36-5.75.56-11.53.56-17.34C573.45,298,573.44,297.9,573.44,297.81Zm-.82-.42H558q0-4.12-.16-8.24t-.39-8l14.64-1C572.4,285.89,572.61,291.63,572.62,297.39Zm-.63-18-14.64,1q-.52-7.69-1.48-15.29c0-.29-.07-.58-.11-.87l8.23-1.08,6.32-.84Q571.41,270.76,572,279.37Zm-26.62,63.9c-.09.46-.18.91-.26,1.37-.16.87-.32,1.75-.5,2.62q-1.58,8-3.65,15.86l0,.1c-.7,2.63-1.44,5.26-2.22,7.86l-.06.18c-.37,1.25-.76,2.51-1.16,3.76-.06.19-.13.38-.19.58-.36,1.11-.72,2.23-1.1,3.34-.09.28-.2.57-.29.86-.35,1-.69,2-1,3l-.4,1.08c-.33.93-.67,1.86-1,2.78l-.46,1.2c-.34.88-.67,1.76-1,2.64-.16.42-.33.83-.49,1.24l-1,2.58-.57,1.34c-.34.82-.68,1.63-1,2.45l-.63,1.42c-.34.78-.68,1.56-1,2.34-.23.5-.47,1-.7,1.51l-1,2.21c-.26.55-.53,1.1-.79,1.64-.33.69-.66,1.38-1,2.07s-.57,1.14-.86,1.72l-1,1.95-1,1.84-1,1.8c-.35.66-.71,1.31-1.07,2l-.89,1.63c-.39.71-.8,1.42-1.2,2.13-.25.43-.49.88-.75,1.31l-.87-.5-5.17-3a244.4,244.4,0,0,0,32.49-122h6.93c0,1.29,0,2.58,0,3.87a1.48,1.48,0,0,0,0,.21c0,1,0,2-.07,2.94l0,1.24c0,.69,0,1.37-.08,2.06s0,1.4-.09,2.1c0,.43-.05.86-.07,1.28,0,1-.1,1.91-.17,2.86,0,.16,0,.32,0,.47A253,253,0,0,1,545.37,343.27Zm3,22.25c-.2.76-.41,1.52-.62,2.28l-.44,1.61-.51,1.75c-.24.8-.47,1.61-.71,2.41-.07.23-.14.47-.22.7a254.75,254.75,0,0,1-14.21,36.41c-.35.74-.71,1.48-1.07,2.22l-.16.32q-3.6,7.27-7.67,14.33l-4.89-2.82-1.1-.64.7-1.25,1.26-2.21.68-1.26c.43-.79.87-1.58,1.29-2.37l.59-1.12c.44-.84.89-1.68,1.32-2.53l.47-.94c.46-.91.93-1.82,1.38-2.74l.35-.72c.48-1,1-2,1.43-3,.06-.11.11-.23.16-.34q4.13-8.78,7.56-17.86c.08-.22.16-.43.25-.65.31-.83.61-1.67.91-2.5.17-.46.34-.91.5-1.37.27-.74.52-1.48.77-2.22.2-.56.39-1.12.58-1.68s.47-1.41.7-2.11.4-1.2.59-1.8.43-1.38.64-2.06.39-1.25.58-1.88.4-1.37.6-2.05.38-1.27.56-1.91l.57-2.06c.15-.58.32-1.16.48-1.74ZM475.66,476.31l-.27.27c-1.93,1.93-3.88,3.82-5.87,5.68l-.45.42c-1.88,1.74-3.77,3.47-5.68,5.15-.43.38-.88.74-1.31,1.11-1.65,1.43-3.3,2.85-5,4.23-.53.44-1.08.85-1.61,1.28-1.6,1.3-3.2,2.59-4.82,3.84-.61.47-1.23.91-1.84,1.37-1.57,1.19-3.14,2.37-4.74,3.52-.67.49-1.36.94-2,1.42-1.55,1.09-3.1,2.19-4.66,3.24-.79.53-1.59,1-2.38,1.54-1.48,1-2.95,1.94-4.45,2.88-1,.6-1.94,1.17-2.91,1.76-1.28.78-2.55,1.56-3.85,2.32l-1.25-2.17-2.24-3.88a246.24,246.24,0,0,0,89.25-89.39l.23.14,5.81,3.35c-.74,1.29-1.52,2.55-2.29,3.82-.6,1-1.19,2-1.8,3-.77,1.24-1.58,2.45-2.38,3.68-.69,1.06-1.36,2.14-2.06,3.19s-1.58,2.28-2.37,3.42-1.52,2.22-2.3,3.32-1.6,2.16-2.41,3.24-1.64,2.25-2.49,3.35-1.7,2.15-2.56,3.23-1.69,2.16-2.56,3.22c-1,1.24-2.07,2.45-3.11,3.67-.75.88-1.47,1.76-2.23,2.63-1.68,1.92-3.41,3.82-5.16,5.7-.14.14-.27.3-.4.44Q478.63,473.34,475.66,476.31Zm5.19,5.77q-5.87,5.84-12,11.26l-.11.09q-6.37,5.63-13.05,10.78l-.08.06-.8.61a259.11,259.11,0,0,1-26.78,18l-.33.2,0-.06-3.42-5.94h0c1.24-.72,2.46-1.48,3.69-2.23,1-.62,2.07-1.23,3.1-1.87,1.29-.81,2.57-1.66,3.85-2.5,1-.65,2-1.28,3-1.94,1.29-.87,2.56-1.77,3.84-2.66,1-.67,1.93-1.32,2.88-2,1.27-.92,2.53-1.87,3.79-2.82.93-.69,1.87-1.37,2.8-2.08,1.28-1,2.53-2,3.8-3,.88-.71,1.77-1.39,2.64-2.11,2.12-1.74,4.21-3.51,6.28-5.33.68-.6,1.35-1.23,2-1.84,1.38-1.24,2.76-2.47,4.12-3.74.7-.66,1.39-1.35,2.09-2,1.28-1.23,2.57-2.45,3.83-3.7ZM362.54,541.81a252.56,252.56,0,0,1-44.08,7.64l-.2,0-3.81.28-.31,0-3.65.22-.5,0c-1.19.06-2.39.11-3.58.15l-.57,0-3.44.09h-.73l-3.37,0h-.73v-6.92a245.87,245.87,0,0,0,63.16-8.34,243.4,243.4,0,0,0,58.87-24.36l3.49,6c-.68.4-1.37.79-2.06,1.18l-1.31.74-2.24,1.23-1.39.75-2.19,1.16-1.47.76c-.72.38-1.44.74-2.17,1.1l-1.51.76c-.72.36-1.46.71-2.19,1.06l-1.52.74-2.19,1-1.55.71-2.2,1-1.56.69-2.28,1-1.51.64c-.79.33-1.59.64-2.38,1l-1.43.58-2.54,1-1.3.5-2.71,1-1.15.42-2.94,1-.95.33-3.3,1.09-.61.2-3.59,1.12-.35.11c-1.32.4-2.64.78-4,1.16h0C365.2,541.09,363.87,541.45,362.54,541.81Zm1.6,7.59-1,.25A261,261,0,0,1,337.45,555c-2.1.32-4.2.63-6.32.9l-.22,0q-8.22,1.07-16.57,1.6h-.16q-6.3.4-12.65.52l-1.82,0-2.14,0v-6.93h1.89l2.1,0,2.1-.06,2.06,0c.72,0,1.43-.06,2.15-.09l2-.08c.74,0,1.47-.08,2.2-.12l1.95-.12,2.27-.16,1.85-.14,2.37-.21,1.75-.16,2.42-.26c.56-.06,1.13-.11,1.69-.18l4-.48,1.58-.22,2.6-.37c.65-.09,1.29-.2,1.93-.3l2.13-.33,2.12-.36,1.91-.33,2.2-.42,1.82-.34,2.29-.47,1.7-.35L353,545l1.63-.37,2.41-.58,1.55-.37,2.51-.64,1.29-.33ZM423.53,79.74c1.22.71,2.42,1.45,3.64,2.18,1.05.64,2.1,1.25,3.15,1.9,1.32.83,2.62,1.69,3.93,2.54,1,.63,1.95,1.24,2.91,1.89,1.36.91,2.7,1.86,4,2.79.89.63,1.79,1.23,2.68,1.86,1.42,1,2.82,2.09,4.22,3.14.78.59,1.58,1.15,2.36,1.75,1.54,1.19,3.06,2.41,4.58,3.64.62.49,1.24,1,1.85,1.47,1.85,1.51,3.67,3.07,5.48,4.64l.81.69q6.24,5.47,12.16,11.38l.29.28q2.88,2.89,5.66,5.85c.46.49.9,1,1.35,1.49,1.42,1.53,2.83,3.07,4.2,4.63.76.86,1.49,1.76,2.24,2.63,1,1.21,2.08,2.41,3.09,3.63.83,1,1.62,2,2.43,3s1.8,2.23,2.67,3.36,1.6,2.15,2.41,3.23,1.66,2.2,2.47,3.32,1.51,2.18,2.27,3.26,1.61,2.28,2.39,3.44,1.37,2.12,2.06,3.18,1.6,2.42,2.37,3.65c.62,1,1.22,2,1.83,3,.75,1.24,1.52,2.48,2.25,3.73l-6,3.49A246.19,246.19,0,0,0,420,85.78l2-3.51Zm-.3-1.13L421,77.33l-1.1-.62-2.43-1.33-1.2-.65-2.39-1.25-1.26-.66c-.81-.42-1.62-.82-2.43-1.22-.41-.21-.83-.43-1.25-.63l-2.51-1.22-1.19-.57-2.83-1.31-.9-.41c-1.22-.56-2.46-1.11-3.69-1.64l-.06,0q-5.69-2.46-11.49-4.64l-.08,0-3.8-1.39-.25-.08c-1.21-.43-2.42-.86-3.64-1.27l-.48-.16-3.43-1.13-.6-.18-3.35-1-.65-.19c-1.1-.33-2.2-.66-3.3-1l-.81-.22c-1-.27-1.91-.54-2.86-.79l.67-2.51L364.78,47c1.14.3,2.28.62,3.42.94l.32.08,3.49,1c.2.06.41.11.61.18,1,.3,2,.61,3,.93l1.1.34,2.35.77,1.73.57.05,0,2,.68A258.1,258.1,0,0,1,410,63.81l2,1h0l.57.28,3.21,1.62.68.36,3.08,1.61.29.16c2.28,1.23,4.55,2.49,6.79,3.78Zm53,40.71,4.89-4.9c3.92,3.92,7.68,8,11.31,12.08l0,0q5.6,6.34,10.73,13l.1.12c1.44,1.87,2.85,3.77,4.24,5.68.28.38.58.76.85,1.15s.76,1.08,1.14,1.63q6.59,9.28,12.32,19.05l.2.34-4.18,2.42L516,171c-.83-1.41-1.7-2.81-2.55-4.21-.52-.84-1-1.7-1.54-2.54-.93-1.49-1.9-2.95-2.86-4.42-.53-.81-1-1.62-1.57-2.42-1-1.5-2.06-3-3.1-4.45-.52-.75-1-1.51-1.57-2.25-1.12-1.57-2.28-3.1-3.45-4.64-.48-.64-.95-1.3-1.44-1.94-1.49-1.94-3-3.86-4.58-5.76l-.53-.66Q485,128.15,476.22,119.32Zm33.61,56.17,5.9-3.41c.48.82.95,1.65,1.42,2.48l.48.84L519,178c.19.35.39.7.58,1.06.43.8.85,1.61,1.28,2.42.21.41.43.82.64,1.24.4.76.78,1.52,1.16,2.28.24.47.48.94.71,1.41.35.7.69,1.42,1,2.13.26.52.52,1,.77,1.58l.92,2c.27.58.55,1.17.82,1.76l.81,1.83c.29.65.58,1.29.86,1.94s.47,1.09.7,1.63l.91,2.16.56,1.37c.33.81.67,1.63,1,2.45l.41,1.05,1.08,2.8.21.57q4.2,11.22,7.31,22.82v0q1.58,5.91,2.87,11.9l.24,1.13c.2,1,.4,1.9.59,2.86.12.57.22,1.13.33,1.7.14.77.3,1.54.44,2.31s.23,1.34.35,2,.24,1.34.35,2,.23,1.46.34,2.19.2,1.23.29,1.85.22,1.5.32,2.26c.08.6.17,1.2.26,1.8.1.77.19,1.53.28,2.3.07.59.15,1.19.22,1.78.09.77.17,1.53.25,2.3.06.6.13,1.2.19,1.8.08.76.14,1.53.21,2.29s.12,1.21.17,1.82c.06.76.11,1.52.17,2.28s.1,1.23.14,1.84.09,1.52.13,2.27.08,1.25.11,1.87.07,1.49.1,2.24.06,1.27.08,1.91l.06,2.2c0,.65,0,1.31.05,2s0,1.46,0,2.18,0,1.2,0,1.8h-6.93a244.47,244.47,0,0,0-32.76-121.82Zm39.49,101.32c0-.41-.08-.82-.11-1.22-.09-1-.17-1.92-.26-2.88-.05-.46-.11-.92-.15-1.38-.1-.9-.19-1.81-.29-2.71s-.22-1.72-.32-2.59-.22-1.69-.34-2.53c-.13-1-.27-2-.42-3-.06-.46-.14-.92-.21-1.38l-.42-2.67c-.09-.54-.19-1.09-.28-1.63l-.42-2.41-.33-1.74c-.15-.76-.29-1.52-.44-2.27s-.25-1.24-.38-1.85-.29-1.43-.44-2.15-.29-1.31-.44-2l-.45-2-.51-2.11c-.15-.61-.29-1.23-.44-1.84s-.39-1.5-.58-2.25l-.39-1.52L548,231l.36-.09c.18.66.34,1.33.52,2s.33,1.29.49,1.94l.15.58q2.66,10.77,4.38,21.79.52,3.31,1,6.65v0q1.08,8.31,1.64,16.73v.17c.27,4.2.46,8.41.53,12.65,0,.55,0,1.1,0,1.65l0,2.29H550.2c0-.16,0-.31,0-.47,0-1.21,0-2.42,0-3.63,0-.22,0-.45,0-.68,0-1.15,0-2.3-.1-3.45l0-.83c0-1.1-.09-2.2-.14-3.3l-.06-1c-.06-1.05-.11-2.1-.18-3.15l-.09-1.14C549.47,278.79,549.4,277.8,549.32,276.81Zm20.89-15.37-1,.13-13.57,1.78c-.1-.82-.22-1.64-.34-2.46-.65-4.55-1.39-9.08-2.27-13.57l14.39-2.86C568.54,250.07,569.45,255.74,570.21,261.44Zm-2.94-17.79-14.39,2.87q-1.61-8-3.7-15.83l14.18-3.8Q565.58,235.2,567.27,243.65Zm-4.12-17.55-4.78,1.28L549,229.9h0l0-.09c-.66-2.47-1.37-4.92-2.1-7.36l-.15-.5q-1.08-3.54-2.26-7l-.17-.56,13.9-4.72Q560.91,217.78,563.15,226.1Zm-5.25-17.24-6.07,2.06L544,213.58q-2.62-7.7-5.72-15.21l13.57-5.62Q555.13,200.7,557.9,208.86ZM551.52,192,538,197.61c-.24-.56-.5-1.11-.74-1.67q-1-2.26-2-4.52L534.17,189c-.84-1.81-1.69-3.61-2.57-5.4l-.38-.81L542,177.51l2.38-1.17Q548.2,184,551.52,192ZM544,175.6l-13.16,6.5c-.17-.34-.35-.66-.51-1-1-2-2-4-3.08-5.94-.17-.32-.36-.64-.53-1-1.11-2-2.24-4.08-3.41-6.11l-.17-.3,1.68-1,11-6.37Q540.19,167.9,544,175.6Zm-8.56-15.86-12.71,7.34q-4.1-7-8.61-13.77l3.36-2.25,8.84-5.9Q531.16,152.32,535.46,159.74Zm-9.57-15.27-4.38,2.93-7.83,5.23c-2.6-3.86-5.34-7.64-8.16-11.37l-1.34-1.8,11.64-8.93Q521.09,137.37,525.89,144.47Zm-10.57-14.59-11.64,8.93-.78-1c-3.07-3.93-6.24-7.79-9.55-11.56l4.94-4.34,6.08-5.33Q510.07,123.1,515.32,129.88ZM503.83,116l-8.3,7.29-2.73,2.38q-5.34-6-11.1-11.83l7.95-8,2.42-2.42Q498.17,109.58,503.83,116Zm-24.9-24.85q6.42,5.66,12.56,11.74l-9,9-1.34,1.34h0q-2.94-2.92-6-5.74c-1.17-1.1-2.38-2.17-3.57-3.25-.78-.69-1.54-1.4-2.31-2.09ZM465,79.69q6.78,5.24,13.27,10.92l-9.67,11c-3.33-2.91-6.75-5.71-10.21-8.44-.77-.62-1.54-1.25-2.33-1.86l3.11-4ZM450.43,69.14q7.11,4.78,14,10l-7.87,10.24-1.07,1.4q-6.45-5-13.17-9.49ZM435.16,59.6q7.41,4.31,14.59,9.08L441.6,80.89q-6.77-4.52-13.79-8.58Zm-15.87-8.53q7.69,3.81,15.15,8.12L427.1,71.9c-2.23-1.29-4.49-2.54-6.76-3.76l-.47-.26c-2.21-1.17-4.43-2.32-6.67-3.43l-.41-.21,1.38-2.8Zm-16.4-7.47q8,3.3,15.66,7.11l-6.49,13.17q-7.29-3.59-14.79-6.72ZM386,37.26q8.14,2.76,16.11,6l-5.62,13.57q-7.51-3.09-15.21-5.69l2.87-8.45Zm-17.41-4.6.17-.63q8.32,2.22,16.46,5l-2.36,6.95-2.35,7-.78-.25c-2.25-.75-4.52-1.48-6.79-2.16l-.57-.17q-3.69-1.11-7.41-2.11h0Zm-17.37-4.72q8.46,1.68,16.75,3.88L364.2,46q-7.83-2.07-15.81-3.66v-.08ZM333.48,25q8.55,1.13,17,2.75L347.8,41.06l-.22,1.12q-5.35-1-10.78-1.85c-1.74-.27-3.49-.52-5.24-.75Zm-17.92-1.75q8.61.57,17.11,1.65l-1.92,14.55q-8-1-16.15-1.57Zm-18-.62c5.75,0,11.47.21,17.17.57l-.85,13-.11,1.64q-6-.37-12.1-.48c-1.37,0-2.74,0-4.11,0Zm0,23.25,3.2,0h.64L305,46h.59l3.55.14.61,0,3.54.2.6,0c1.17.07,2.33.16,3.5.25l.63,0c1.14.09,2.29.2,3.44.31l.68.06,3.36.35.74.08,3.32.41.76.1c1.12.14,2.22.3,3.33.46l.74.1c1.1.16,2.18.33,3.27.51l.79.12,3.21.56.83.14c1.08.19,2.15.4,3.22.61l.8.15c1.18.23,2.35.48,3.52.72l.47.1q6,1.29,11.9,2.86h.07a250.15,250.15,0,0,1,30.88,10.42l.1,0,3.36,1.42c.14.07.29.12.43.18l3.13,1.39.63.28c1,.43,1.93.88,2.89,1.33l.84.39,2.64,1.27,1.08.52,2.4,1.21,1.28.64,2.17,1.14,1.49.78,2,1.06,1.68.92,1.73,1,1.69.95-3.49,6.05A244.53,244.53,0,0,0,297.57,52.83Zm-127,470.41c-1-.59-2-1.2-3-1.81-1.26-.76-2.54-1.5-3.79-2.29s-2.34-1.51-3.51-2.27-2.21-1.41-3.3-2.15c-1.28-.85-2.53-1.75-3.79-2.63-1-.67-2-1.33-2.91-2-1.37-1-2.73-2-4.08-3-.83-.62-1.66-1.21-2.48-1.84-1.51-1.17-3-2.37-4.49-3.58-.64-.51-1.29-1-1.93-1.53-1.76-1.45-3.49-2.94-5.22-4.44l-1.06-.89q-6.21-5.46-12.12-11.37l0,0-.15-.15c-2-2-3.91-4-5.81-6-.28-.3-.54-.61-.82-.91-1.6-1.73-3.19-3.46-4.74-5.23-.82-.94-1.62-1.91-2.43-2.86-1-1.15-2-2.28-2.91-3.44s-1.82-2.29-2.73-3.43-1.61-2-2.39-3c-.93-1.22-1.83-2.47-2.74-3.7-.72-1-1.45-1.92-2.15-2.89-.92-1.29-1.8-2.6-2.7-3.9-.65-.94-1.32-1.87-2-2.83-.91-1.36-1.78-2.74-2.67-4.12-.58-.91-1.18-1.81-1.75-2.73-.9-1.44-1.76-2.9-2.63-4.36-.5-.83-1-1.65-1.5-2.49l6-3.49A246.39,246.39,0,0,0,174,510.28l0,.07Zm.29,1.13.72.41c.93.53,1.86,1.06,2.8,1.58l.69.38,2.92,1.6.57.3,3.07,1.61.46.23c1.07.55,2.14,1.09,3.22,1.62l.21.11q10.44,5.15,21.32,9.29l1,.39c.7.27,1.41.52,2.11.78l1.77.65,1.74.61,2.17.75,1.5.5,2.43.8,1.3.41,2.66.82,1.11.33,2.88.84c.32.1.64.18,1,.27.91.26,1.82.52,2.73.76l-1.8,6.69-.94-.26-3.05-.84-1-.3c-1-.3-2-.59-3.05-.9l-.69-.21a256.61,256.61,0,0,1-45.53-18.91l-.43-.23c-.83-.44-1.65-.9-2.48-1.35l-1.29-.71-1.76-1c-.6-.34-1.2-.67-1.79-1l2.87-5Zm-53-40.87L114.33,480l-1.43,1.44c-1.9-1.91-3.77-3.84-5.59-5.8l0,0c-1.93-2.07-3.82-4.17-5.68-6.28l0,0q-5.62-6.4-10.78-13.11l0-.05c-.22-.27-.42-.55-.64-.83a260.14,260.14,0,0,1-18.06-27l0-.05,4.69-2.71,1.31-.76c.71,1.22,1.45,2.42,2.18,3.62s1.26,2.14,1.92,3.19c.87,1.4,1.77,2.76,2.67,4.14.59.91,1.16,1.82,1.76,2.72,1.06,1.58,2.16,3.14,3.25,4.7.48.68.93,1.36,1.41,2q4.79,6.68,10,13.07c.54.66,1.12,1.31,1.67,2,1.21,1.46,2.43,2.92,3.68,4.35.71.82,1.46,1.61,2.19,2.42,1.12,1.25,2.23,2.51,3.38,3.73.81.87,1.65,1.72,2.48,2.58C115.68,474.39,116.72,475.5,117.79,476.58ZM79.27,423.12l-1,.55-.56-1c-.47-.82-.94-1.64-1.4-2.47l-.77-1.42c-.4-.72-.79-1.45-1.18-2.17l-.91-1.73-1-1.9-1-2c-.27-.55-.56-1.1-.83-1.65-.37-.76-.73-1.52-1.1-2.29-.23-.47-.46-.94-.68-1.41-.4-.84-.79-1.7-1.18-2.55l-.54-1.17c-.41-.92-.81-1.83-1.21-2.75l-.45-1c-.42-1-.83-2-1.24-2.94l-.36-.85c-.42-1-.83-2-1.24-3.07l-.3-.74c-.41-1.05-.8-2.09-1.2-3.14l-.27-.71c-.39-1-.77-2.09-1.15-3.14l-.27-.73c-.35-1-.69-2-1-3l-.32-.92c-.29-.87-.58-1.75-.86-2.63-.14-.43-.29-.86-.43-1.3-.19-.62-.38-1.25-.58-1.87s-.43-1.39-.64-2.08c0-.12-.07-.25-.11-.37-.74-2.5-1.46-5-2.13-7.55a253.68,253.68,0,0,1-6.78-36v0c-.14-1.16-.26-2.33-.37-3.5,0-.2,0-.4-.07-.59-.09-.95-.17-1.9-.25-2.85,0-.42-.08-.84-.11-1.27-.07-.82-.13-1.64-.18-2.47,0-.55-.09-1.1-.12-1.65,0-.74-.09-1.48-.13-2.23s-.08-1.27-.11-1.9-.06-1.39-.08-2.08-.07-1.37-.09-2.06,0-1.26,0-1.89,0-1.51-.06-2.27,0-1.22,0-1.83,0-1.52,0-2.28h6.92a244.4,244.4,0,0,0,32.49,122ZM52.48,362.94,48.53,364l-2.74.74-.33-1.32a259.37,259.37,0,0,1-5.75-29.07c-.11-.84-.23-1.68-.34-2.53v0c0-.16,0-.32-.06-.48q-1-8.19-1.56-16.5c-.35-5.47-.54-11-.54-16.5v-.09h6.93q0,12,1.1,23.72c0,.34.06.68.09,1,.09.88.19,1.75.28,2.62,0,.49.1,1,.16,1.48.08.75.18,1.51.27,2.27.08.6.14,1.21.22,1.81s.19,1.34.28,2,.19,1.36.28,2.05l.3,1.9c.11.71.21,1.43.33,2.15s.21,1.22.31,1.83.25,1.47.38,2.2.23,1.21.34,1.82.27,1.46.41,2.19.26,1.23.38,1.85.29,1.43.44,2.14l.42,1.91c.15.69.3,1.37.46,2.05s.32,1.35.47,2,.31,1.29.47,1.93.36,1.44.55,2.15C52.21,361.87,52.34,362.4,52.48,362.94ZM45,297.39c0-.83,0-1.66,0-2.48,0-.48,0-1,0-1.43,0-.92,0-1.83.07-2.74,0-.48,0-.95,0-1.43,0-.89.07-1.78.11-2.67,0-.5,0-1,.07-1.49,0-.87.1-1.74.15-2.61,0-.51.05-1,.09-1.53.06-.87.13-1.73.19-2.59l.12-1.54c.07-.83.15-1.66.22-2.49l.15-1.63c.08-.8.17-1.6.26-2.4.06-.56.12-1.13.19-1.7.09-.78.19-1.55.28-2.32.08-.59.14-1.18.22-1.77s.21-1.48.32-2.23.16-1.23.26-1.84.22-1.46.34-2.19.19-1.24.29-1.86.26-1.47.39-2.21.2-1.22.31-1.82.29-1.5.43-2.24.22-1.19.34-1.78c.17-.85.35-1.7.53-2.55.1-.48.19-1,.3-1.44.28-1.29.57-2.58.86-3.87l0-.1c.61-2.64,1.27-5.28,2-7.89v0q2.13-8,4.79-15.8c0-.09.06-.18.1-.27.41-1.21.83-2.41,1.25-3.61.09-.24.19-.49.28-.74.37-1,.75-2.07,1.14-3.11l.42-1.08c.35-.91.7-1.83,1.06-2.75.17-.42.35-.84.52-1.27.34-.84.67-1.69,1-2.53.21-.49.42-1,.62-1.46.33-.77.65-1.54,1-2.31l.7-1.59c.32-.72.64-1.45,1-2.17.25-.55.51-1.09.76-1.64s.64-1.39,1-2.08.55-1.14.83-1.72.63-1.32,1-2,.59-1.19.89-1.78l1-1.89c.31-.61.64-1.22,1-1.82s.63-1.22,1-1.82.67-1.23,1-1.84.64-1.18,1-1.77.7-1.24,1.06-1.86.58-1,.88-1.55l6.05,3.49A244.39,244.39,0,0,0,51.89,297.39Zm1.2-67.27c.06-.23.13-.46.19-.69.3-1.1.6-2.19.91-3.28.15-.52.31-1,.46-1.54.24-.83.48-1.66.73-2.48.18-.6.38-1.2.56-1.8l.69-2.21c.23-.7.47-1.4.7-2.11l.63-1.89c.14-.42.29-.84.44-1.26a254.71,254.71,0,0,1,12.91-30.69q1.68-3.39,3.47-6.72l.27-.49q1.83-3.41,3.77-6.75l6,3.46c-.4.69-.79,1.38-1.18,2.07-.24.44-.5.87-.74,1.31-.41.73-.8,1.46-1.2,2.19L74,178.68l-1.11,2.11-.81,1.54-1,2c-.27.54-.55,1.08-.82,1.63l-1,2-.84,1.74c-.3.63-.59,1.27-.88,1.9s-.57,1.22-.85,1.83-.55,1.23-.83,1.85-.57,1.27-.84,1.9-.5,1.18-.75,1.77c-.52,1.22-1,2.45-1.54,3.69-.29.7-.58,1.41-.86,2.11s-.43,1.13-.65,1.69c-.28.72-.56,1.43-.83,2.15l-.62,1.68c-.27.73-.54,1.45-.8,2.18l-.59,1.68c-.26.74-.52,1.47-.77,2.21-.19.55-.37,1.1-.55,1.65l-.75,2.26-.51,1.65-.72,2.28c-.16.55-.32,1.11-.49,1.66-.22.77-.45,1.53-.67,2.3-.16.54-.3,1.08-.46,1.63-.19.71-.39,1.41-.59,2.12ZM79,171.38c.71-1.23,1.46-2.44,2.2-3.66.63-1,1.24-2.08,1.88-3.11.78-1.25,1.6-2.48,2.41-3.72.67-1,1.33-2.08,2-3.1.8-1.2,1.65-2.38,2.48-3.57.72-1,1.43-2.1,2.17-3.13s1.67-2.24,2.5-3.36,1.57-2.14,2.39-3.2,1.65-2.08,2.48-3.12,1.73-2.21,2.63-3.29,1.59-1.87,2.38-2.81c1-1.16,2-2.33,3-3.47.66-.75,1.35-1.48,2-2.22,1.17-1.3,2.34-2.62,3.54-3.9l.15-.16c1.84-2,3.7-3.88,5.61-5.78h0l.14-.15q5.92-5.91,12.16-11.37l.85-.73c1.8-1.56,3.61-3.11,5.45-4.61.51-.42,1-.82,1.55-1.24,1.62-1.31,3.24-2.61,4.89-3.88.68-.52,1.38-1,2.06-1.53,1.5-1.13,3-2.26,4.51-3.35.85-.61,1.71-1.18,2.56-1.78,1.38-1,2.75-1.93,4.15-2.87,1-.68,2-1.32,3.07-2,1.25-.82,2.5-1.65,3.76-2.44s2.39-1.43,3.58-2.15,2.14-1.31,3.22-1.94l3.49,6a246.34,246.34,0,0,0-89.22,89.08Zm34.78-57.52q5.9-5.86,12.09-11.29l0,0q6.39-5.62,13.1-10.78l0,0,.82-.62a258.33,258.33,0,0,1,26.85-18l.21-.12,2.47,4.28,1,1.71c-1.19.7-2.36,1.43-3.54,2.14s-2.19,1.29-3.26,2c-1.33.83-2.63,1.69-3.94,2.54-1,.63-1.95,1.24-2.91,1.89-1.51,1-3,2.07-4.49,3.11-.74.52-1.49,1-2.22,1.54q-6.66,4.79-13,10c-.65.53-1.28,1.09-1.93,1.63-1.46,1.22-2.92,2.44-4.36,3.7-.87.76-1.72,1.56-2.58,2.33-1.19,1.07-2.39,2.13-3.56,3.23-1,.91-1.92,1.85-2.87,2.77s-2,1.9-3,2.87Zm60.14-30.31-2.38-4.11-.06-.1,1.58-.9c.61-.35,1.22-.7,1.84-1l1.77-1,1.84-1,1.86-1c.59-.31,1.18-.63,1.77-.93l2-1,1.69-.85,2.07-1,1.62-.78,2.19-1,1.54-.71,2.35-1,1.39-.62c.85-.37,1.71-.72,2.56-1.08l1.22-.52,2.82-1.14,1-.39c1-.41,2.07-.8,3.1-1.19l.73-.28,3.53-1.3.32-.11q9.69-3.46,19.67-6.11h0q9.85-2.61,19.94-4.44l.41-.07c1.2-.22,2.4-.43,3.6-.62l1.13-.18c1-.15,1.93-.31,2.9-.45l1.64-.23,2.4-.33c.7-.1,1.4-.18,2.1-.26l2-.24c.81-.1,1.62-.18,2.43-.26l1.65-.18,2.65-.24,1.44-.13,2.78-.2,1.33-.1c1-.07,2-.12,2.94-.17l1.17-.07c1,0,2-.09,3-.12l1.15-.05,3-.08,1.19,0,2.92,0h1.12v6.92A244.68,244.68,0,0,0,175,85.38ZM295.85,45.09l-3.16,0-1.18,0c-1,0-2,0-2.95.08l-1.38.05c-.91,0-1.83.07-2.74.12l-1.62.09-2.5.14-1.91.14-2.19.17-2.26.2-1.84.16c-1,.1-2,.22-3,.33l-1,.11c-2.73.31-5.46.67-8.17,1.06l-.73.12c-1.1.16-2.21.33-3.31.51l-1.35.24-2.68.46-1.69.32-2.31.43-2,.41-2,.41-2.19.49-1.77.39-2.41.57-1.53.37-2.64.68-1.16.29-.58-2.17-1.21-4.52,1.62-.41,2.37-.61.25-.06q10.69-2.64,21.67-4.36c2.3-.36,4.61-.7,6.93-1h.09q8.39-1.08,16.88-1.63h0q8.24-.54,16.57-.56v6.92h-.9Zm.9-22.43V37.34c-1.37,0-2.73,0-4.08,0q-6.09.1-12.14.48L280,29.33l-.4-6.1C285.27,22.87,291,22.67,296.75,22.66Zm-18,.62,1,14.63q-8.13.54-16.15,1.57L261.91,27l-.26-2Q270.14,23.85,278.75,23.28ZM260.83,25l.8,6,1.12,8.54c-1.65.21-3.3.45-4.94.7q-5.56.83-11.08,1.9l-2.86-14.4C249.47,26.7,255.14,25.78,260.83,25ZM243.06,28l.21,1,2.65,13.35q-8,1.59-15.81,3.67l-3.8-14.18C231.85,30.37,237.43,29.06,243.06,28ZM225.52,32l3,11.16.81,3-.24.07c-2.31.62-4.61,1.28-6.9,2l-.93.28q-3.3,1-6.57,2.09l-.9.28-2.57-7.56L209.06,37Q217.21,34.27,225.52,32Zm-17.24,5.22,1.47,4.31,3.25,9.6c-5.12,1.74-10.2,3.63-15.2,5.69l-5.62-13.57Q200.13,40,208.28,37.26Zm-16.86,6.35L197,57.17q-7.5,3.12-14.78,6.72l-3.51-7.13-3-6C180.92,48.19,186.13,45.8,191.42,43.61ZM175,51.08l1.25,2.53,5.24,10.64-.82.43q-3.09,1.53-6.13,3.16l-.9.49q-3,1.62-6,3.31l-.48.27-2.7-4.66-4.64-8Q167.33,54.9,175,51.08Zm-15.86,8.53,7.34,12.71q-7,4.08-13.79,8.58l-1.05-1.58-7.1-10.62Q151.74,63.92,159.17,59.61Zm-15.28,9.54L152,81.36q-6.72,4.52-13.17,9.48l-.47-.61-8.46-11Q136.78,74,143.89,69.15ZM129.29,79.7l2,2.58,6.95,9.06c-.89.69-1.75,1.4-2.63,2.1-3.35,2.65-6.67,5.37-9.91,8.21l-9.67-11Q122.51,84.94,129.29,79.7Zm-13.9,11.46,9.68,11c-.67.59-1.33,1.21-2,1.81-1.3,1.18-2.62,2.34-3.9,3.55-2,1.87-4,3.78-6,5.72l-8.69-8.68-1.69-1.69Q109,96.81,115.39,91.16Zm-13.13,12.32,10.37,10.37c-1.93,1.93-3.81,3.89-5.67,5.87s-3.65,4-5.43,6L90.5,116Q96.17,109.6,102.26,103.48ZM90,116.64l4.39,3.85L101,126.3c-2.86,3.27-5.61,6.61-8.29,10-.68.85-1.37,1.68-2,2.54L79,129.89Q84.26,123.13,90,116.64Zm-11.45,13.9,11.64,8.94q-5,6.45-9.5,13.16l-7.6-5.08-4.6-3.08Q73.24,137.39,78.51,130.54ZM68,145.17l12.2,8.15q-4.53,6.77-8.6,13.77l-12.72-7.34Q63.21,152.34,68,145.17Zm-9.53,15.29,9,5.2,3.7,2.14-.32.57c-1.07,1.86-2.11,3.74-3.13,5.62-.28.5-.55,1-.82,1.51Q65.43,178.25,64,181c-.18.36-.38.72-.56,1.08l-5.62-2.77-7.55-3.72Q54.15,167.91,58.46,160.46ZM50,176.35l13.17,6.49c-2.4,4.86-4.66,9.78-6.74,14.78l-3.28-1.36L42.81,192Q46.13,184.07,50,176.35ZM42.5,192.76l7.15,3,6.41,2.66c-2.07,5-4,10.08-5.71,15.2l-13.91-4.72Q39.23,200.72,42.5,192.76Zm-6.32,16.88,1.67.57,12.23,4.15c-.07.2-.13.4-.19.6-.77,2.3-1.52,4.61-2.23,6.94-.07.24-.13.47-.21.71-.68,2.28-1.34,4.56-2,6.86l-.12.44-13-3.49-1.18-.31Q33.42,217.79,36.18,209.64ZM31,226.9l13.45,3.6.74.2q-2.1,7.83-3.7,15.82l-14.4-2.87Q28.76,235.21,31,226.9Zm-4.06,17.56,14.39,2.86q-1.56,8-2.61,16l-3.92-.52-10.64-1.4Q25.27,252.89,26.91,244.46ZM24,262.25l14.55,1.92c0,.3-.07.61-.11.91q-1,7.57-1.48,15.25l-14.63-.95Q22.93,270.76,24,262.25ZM22.3,280.2l14.64,1q-.25,4-.39,8c-.1,2.74-.15,5.5-.16,8.26H21.72C21.73,291.63,21.94,285.9,22.3,280.2Zm-.59,18H36.39c0,1.36,0,2.73,0,4.09q.11,6.09.48,12.15l-14.64.95Q21.74,306.85,21.71,298.21Zm.61,18,14.62-1q.51,7.86,1.49,15.62c0,.18,0,.37.07.56l-9.6,1.26-5,.65Q22.88,324.85,22.32,316.22Zm1.73,17.95,13.71-1.81.84-.11c.17,1.34.36,2.67.55,4q.89,6.06,2,12.05l-14.4,2.86Q25.16,342.73,24.05,334.17ZM27,352l8.63-1.72,5.77-1.15q1.57,8,3.65,15.84h0l-1,.27-13.18,3.53Q28.63,360.43,27,352ZM31,369.53l7.81-2.09,6.37-1.71q2.09,7.88,4.68,15.57l-4.56,1.55L36,386Q33.24,377.88,31,369.53Zm5.21,17.27,6.17-2.09,7.74-2.63q2.61,7.71,5.69,15.23l-3.33,1.38-10.24,4.24Q39,395,36.24,386.8Zm6.35,16.89,13.56-5.62q3.12,7.51,6.71,14.81L49.7,419.37Q45.89,411.65,42.59,403.69Zm7.47,16.42,9.66-4.77,3.51-1.72c.15.31.32.62.48.94,1,2,2,4,3.08,6,.18.35.38.7.57,1.06q1.53,2.85,3.14,5.66c.14.24.26.47.39.71l-1.47.85L58.18,435.3Q53.88,427.83,50.06,420.11ZM58.59,436l12.72-7.34q4.06,7,8.58,13.81l-5.14,3.44-7.06,4.71C64.49,445.85,61.47,441,58.59,436Zm9.55,15.3,3.12-2.08,9.09-6.07q4.53,6.73,9.5,13.2L78.2,465.29Q73,458.44,68.14,451.31ZM78.7,465.94,90.35,457c.81,1.05,1.66,2.09,2.49,3.13s1.67,2.13,2.53,3.17c.47.58,1,1.14,1.45,1.72,1.27,1.52,2.54,3,3.85,4.54l-5.39,4.73-5.64,4.94Q83.94,472.75,78.7,465.94Zm11.48,13.92,11-9.68c.8.91,1.63,1.8,2.45,2.7,1,1.06,1.89,2.12,2.87,3.17q2.84,3,5.78,6l-10.37,10.38Q95.84,486.31,90.18,479.86Zm24.9,24.94c-4.29-3.79-8.48-7.7-12.56-11.78l10.37-10.37c2,1.93,3.92,3.84,5.91,5.7s4,3.64,6,5.41ZM129,516.3q-6.79-5.25-13.29-11l9.67-11c3.21,2.82,6.49,5.52,9.81,8.16.92.73,1.82,1.47,2.74,2.19Zm14.61,10.58q-7.11-4.8-14-10.08l3.41-4.44,5.52-7.2q6.47,5,13.19,9.52l-4.32,6.47Zm15.3,9.58q-7.44-4.32-14.61-9.12l8.15-12.21q6.76,4.54,13.8,8.62l-1.6,2.76ZM174.82,545l0,.08q-7.71-3.82-15.18-8.15l7.34-12.72.34.19q3,1.74,6.08,3.39l1,.54c2,1.05,3.93,2.06,5.91,3.06l1,.52Zm16.38,7.59q-8-3.31-15.69-7.15l6.5-13.16q7.29,3.6,14.81,6.74l-2.41,5.8Zm16.89,6.36q-8.16-2.77-16.14-6l5.62-13.57q7.53,3.11,15.24,5.72Zm17.27,5.25q-8.33-2.24-16.49-5l3.08-9.1,1.63-4.8c.37.12.75.23,1.12.36,2.07.68,4.15,1.35,6.24,2l1.22.36q3.18.94,6.37,1.82l.63.17-2.61,9.76Zm17.58,4.12c-5.65-1.12-11.24-2.44-16.79-3.9l3.8-14.18c5.24,1.38,10.52,2.62,15.85,3.68Zm17.81,2.92q-8.56-1.12-17-2.76l2.87-14.4c4.66.91,9.36,1.68,14.09,2.34l2,.27Zm18.43-5.45-.47,7.21q-8.62-.57-17.15-1.66l1.92-14.55.13,0q8,1,16.06,1.56Zm17.57,7.84c-5.77,0-11.51-.22-17.22-.58l1-14.63q6,.38,12,.49c1.4,0,2.81,0,4.23,0Zm0-23.25-2.33,0H292.8l-2.32-.06-1.87,0c-.7,0-1.39-.06-2.09-.09l-2.09-.08-1.88-.11-2.27-.13-1.73-.13-2.41-.18-1.62-.14-2.5-.23-1.52-.16-2.58-.28-1.45-.18-2.64-.32-1.32-.19-2.75-.38-1.15-.18L255.7,547l-.95-.16c-1-.18-2.06-.35-3.09-.54l-.59-.11q-9.75-1.8-19.29-4.34-9.78-2.61-19.3-6l-.33-.12c-1.06-.37-2.11-.76-3.16-1.15l-.71-.27c-1-.36-1.95-.74-2.92-1.12l-.92-.36-2.76-1.11-1.06-.43L198,530.14l-1.18-.5c-.84-.36-1.67-.73-2.5-1.11l-1.26-.56c-.81-.36-1.62-.74-2.42-1.12l-1.32-.61c-.79-.37-1.58-.76-2.38-1.15l-1.32-.64-2.35-1.18L182,522.6l-2.29-1.21-1.36-.71L176,519.43l-1.33-.73c-.76-.42-1.51-.85-2.26-1.28l-1.2-.68,3.49-6.05a244.69,244.69,0,0,0,122,32.72Zm.42-21v-.41h-.42v13.65A243.65,243.65,0,0,1,175.13,510l6.62-11.47-.71-.41-6.62,11.47a245.37,245.37,0,0,1-88.93-89.09L97,413.86l-.42-.71-11.46,6.62A243.78,243.78,0,0,1,52.7,298.21H66v-.82H52.71A243.58,243.58,0,0,1,85.36,176l11.47,6.62.41-.71-11.47-6.62A245.32,245.32,0,0,1,174.7,86.51L181.32,98l.71-.41L175.4,86.09A243.78,243.78,0,0,1,296.75,53.65V66.89h.82V53.65A243.71,243.71,0,0,1,418.92,86.08L412.3,97.55l.7.41,6.63-11.47a245.45,245.45,0,0,1,88.93,88.78l-11.46,6.62.41.71L509,176a243.45,243.45,0,0,1,32.66,121.41H528v.41c0,.12,0,.22,0,.32h.4v.09h13.25a243.78,243.78,0,0,1-32.38,121.57l-11.47-6.62-.41.71,11.46,6.62a245.3,245.3,0,0,1-88.94,89.09l-6.62-11.47-.71.41L419.19,510a243.58,243.58,0,0,1-121.62,32.59V529.34Zm.4,44.23V558.9c1.42,0,2.83,0,4.25,0q6-.11,12-.49l0,.3.94,14.34C309.07,573.37,303.33,573.57,297.57,573.57Zm18-.62-1-14.63c5.39-.35,10.75-.88,16.08-1.56h.11l1.91,14.55Q324.24,572.38,315.6,573Zm18-1.76-.56-4.27-1.36-10.28c1.35-.17,2.69-.36,4-.56q6-.89,12-2.05l1.39,7,1.47,7.4Q342.13,570.08,333.56,571.19Zm17.81-2.92-2.86-14.39q8-1.59,15.85-3.69l1.37,5.14,2.43,9C362.61,565.84,357,567.15,351.37,568.27ZM369,564.16,365.15,550l.56-.15q3.32-.9,6.6-1.89l.93-.27q3.3-1,6.57-2.1l.92-.29,4.72,13.9Q377.29,561.92,369,564.16Zm17.27-5.24-2-5.87-2.73-8c5.14-1.75,10.23-3.64,15.24-5.71l5.17,12.47.45,1.09Q394.4,556.15,386.22,558.92Zm16.9-6.37-2.26-5.45L397.5,539c5-2.08,9.94-4.34,14.81-6.74l2.16,4.39,4.33,8.78Q411.07,549.22,403.12,552.55ZM419.54,545,413,531.88l.71-.37q3.18-1.59,6.33-3.27l.66-.36c2.16-1.17,4.31-2.36,6.44-3.59l.2-.11,7.34,12.71Q427.25,541.21,419.54,545Zm15.89-8.56-7.34-12.71q7-4.1,13.8-8.62l8.16,12.21Q442.88,532.16,435.43,536.48Zm15.3-9.58-7-10.42-1.19-1.79q6.72-4.53,13.19-9.52l8.94,11.65Q457.85,522.09,450.73,526.9Zm14.61-10.58-6.63-8.66-2.3-3c.49-.37,1-.77,1.44-1.15,3.77-3,7.49-6,11.11-9.19l9.67,11Q472.14,511.06,465.34,516.32Zm13.91-11.51L472.38,497l-2.81-3.2q5.51-4.87,10.77-10.08c.36-.35.73-.69,1.09-1L491.81,493Q485.69,499.15,479.25,504.81Zm13.14-12.36L482,482.08h0c2-2,3.88-4,5.77-6,1.29-1.38,2.55-2.8,3.82-4.21.5-.56,1-1.11,1.51-1.67l11,9.67Q498.49,486.32,492.39,492.45Zm12.3-13.19-11-9.68c1.5-1.7,2.95-3.44,4.39-5.18.3-.36.61-.7.9-1.06.87-1.06,1.71-2.14,2.56-3.21s1.67-2.06,2.47-3.11l3.95,3,7.7,5.91Q510.38,472.76,504.69,479.26Zm11.44-14-7-5.4-4.61-3.53c3.31-4.31,6.49-8.71,9.5-13.2l8.44,5.64,3.77,2.52C523,456.08,519.63,460.74,516.13,465.3Zm10.51-14.65-2.5-1.68-9.7-6.48q4.53-6.78,8.58-13.81L535.74,436Q531.43,443.46,526.64,450.65Zm9.51-15.34-1-.56L523.44,428h0a.93.93,0,0,1,0-.1c1.29-2.23,2.53-4.48,3.74-6.74l.21-.38c1.15-2.16,2.26-4.33,3.35-6.51l.32-.61,13.16,6.49Q540.46,427.83,536.15,435.31Zm8.48-15.93-10.17-5-3-1.48q3.59-7.31,6.71-14.81l11.41,4.72,2.16.9Q548.45,411.65,544.63,419.38Zm7.43-16.44-7.53-3.12-6-2.5c.26-.64.5-1.29.75-1.93.55-1.36,1.08-2.72,1.61-4.09.36-1,.73-1.93,1.08-2.9.66-1.8,1.31-3.6,1.93-5.41.1-.3.22-.6.32-.9l7.7,2.61,6.2,2.11Q555.33,395,552.06,402.94Zm6.3-16.91-.26-.09-13.65-4.63c.12-.36.23-.72.35-1.08.68-2.08,1.35-4.16,2-6.25.13-.42.25-.83.37-1.25.64-2.14,1.25-4.3,1.83-6.46l.15-.53,14.18,3.8Q561.09,377.88,558.36,386Zm5.16-17.29L549.34,365q2.07-7.86,3.65-15.84l8.45,1.68,5.95,1.18Q565.72,360.43,563.52,368.74Zm4-17.57-3.47-.69-10.93-2.18q1-5.06,1.75-10.16c.3-2,.59-3.92.84-5.88L567,333.74l3.28.43Q569.18,342.74,567.55,351.17Zm2.85-17.81-8.62-1.14-5.94-.78c.69-5.35,1.21-10.75,1.56-16.17l14.62,1Q571.48,324.84,570.4,333.36Zm1.68-17.95-14.63-1q.49-8.07.5-16.24h14.68Q572.62,306.85,572.08,315.41ZM304.52,13.53H299.8c1.82-1.64,2.09-1.89,2.63-2.45,1.33-1.4,1.82-2.4,1.82-3.75,0-1.95-1.12-3-3.16-3a4.51,4.51,0,0,0-2.81.94V6.36a4.59,4.59,0,0,1,2.73-1c1.21,0,1.8.62,1.8,1.87,0,1.78-.69,2.82-3.76,5.62l-1,.89v.81h6.32Zm-8.27.15H293.9V4.49h-.74l-3,1.16v.91l2.35-.78v7.9h-2.82v.91h6.54Z" transform="translate(-3.36 -4.3)"/></svg>