<?xml version="1.0" encoding="utf-8"?>

<!DOCTYPE svg PUBLIC "-//W3C//DTD SVG 1.1//EN" "http://www.w3.org/Graphics/SVG/1.1/DTD/svg11.dtd">
<svg version="1.1" id="fscjLogo" xmlns="http://www.w3.org/2000/svg" xmlns:xlink="http://www.w3.org/1999/xlink" x="0px" y="0px"
	 viewBox="0 0 541 97" style="enable-background:new 0 0 541 97;" xml:space="preserve">
<pattern  x="-41" y="459" width="69" height="69" patternUnits="userSpaceOnUse" id="Polka_Dot_Pattern" viewBox="2.1 -70.9 69 69" style="overflow:visible;">
	<g>
		<polygon style="fill:none;" points="71.1,-1.9 2.1,-1.9 2.1,-70.9 71.1,-70.9 		"/>
		<polygon style="fill:#F7BC60;" points="71.1,-1.9 2.1,-1.9 2.1,-70.9 71.1,-70.9 		"/>
		<g>
			<path style="fill:#FFFFFF;" d="M61.8-71.7c0,0.1,0,0.1,0,0.2c-0.1,0.1-0.1,0.1-0.2,0.1c-0.1,0.1-0.1,0.3-0.1,0.4
				c-0.2,0.1,0,0.2,0,0.3c0,0,0,0.1,0,0.2c0,0.1,0,0.3,0.1,0.4c0.1,0.2,0.3,0.4,0.4,0.5c0.2,0.1,0.4,0.6,0.6,0.6
				c0.2,0,0.4-0.1,0.5-0.1c0.2,0,0.4,0,0.6-0.1c0.2-0.1,0.1-0.3,0.3-0.5c0.1-0.1,0.3,0,0.4-0.1c0.2-0.1,0.3-0.3,0.4-0.5
				c0-0.1,0-0.1,0-0.2c0-0.1,0.1-0.2,0.1-0.3c0-0.1-0.1-0.1-0.1-0.2c0-0.1,0-0.2,0-0.3c0-0.2,0-0.4-0.1-0.5c-0.4-0.7-1.2-0.9-2-0.8
				c-0.2,0-0.3,0.1-0.4,0.2c-0.2,0.1-0.1,0.2-0.3,0.2c-0.1,0-0.2,0.1-0.2,0.2C61.8-71.7,61.8-71.7,61.8-71.7
				C61.8-71.6,61.8-71.6,61.8-71.7"/>
			<path style="fill:#FFFFFF;" d="M54.1-71.7c0,0.1,0,0.1,0,0.2c-0.1,0.1-0.1,0.1-0.2,0.1c-0.1,0.1-0.1,0.3-0.1,0.4
				c-0.2,0.1,0,0.2,0,0.3c0,0,0,0.1,0,0.2c0,0.1,0,0.3,0.1,0.4c0.1,0.2,0.3,0.4,0.4,0.5c0.2,0.1,0.4,0.6,0.6,0.6
				c0.2,0,0.4-0.1,0.5-0.1c0.2,0,0.4,0,0.6-0.1c0.2-0.1,0.1-0.3,0.3-0.5c0.1-0.1,0.3,0,0.4-0.1c0.2-0.1,0.3-0.3,0.4-0.5
				c0-0.1,0-0.1,0-0.2c0-0.1,0.1-0.2,0.1-0.3c0-0.1-0.1-0.1-0.1-0.2c0-0.1,0-0.2,0-0.3c0-0.2,0-0.4-0.1-0.5c-0.4-0.7-1.2-0.9-2-0.8
				c-0.2,0-0.3,0.1-0.4,0.2c-0.2,0.1-0.1,0.2-0.3,0.2c-0.1,0-0.2,0.1-0.2,0.2C54.1-71.7,54.1-71.7,54.1-71.7
				C54.1-71.6,54.1-71.6,54.1-71.7"/>
			<path style="fill:#FFFFFF;" d="M46.4-71.7c0,0.1,0,0.1,0,0.2c-0.1,0.1-0.1,0.1-0.2,0.1c-0.1,0.1-0.1,0.3-0.1,0.4
				c-0.2,0.1,0,0.2,0,0.3c0,0,0,0.1,0,0.2c0,0.1,0,0.3,0.1,0.4c0.1,0.2,0.3,0.4,0.4,0.5c0.2,0.1,0.4,0.6,0.6,0.6
				c0.2,0,0.4-0.1,0.5-0.1c0.2,0,0.4,0,0.6-0.1c0.2-0.1,0.1-0.3,0.3-0.5c0.1-0.1,0.3,0,0.4-0.1c0.2-0.1,0.3-0.3,0.4-0.5
				c0-0.1,0-0.1,0-0.2c0-0.1,0.1-0.2,0.1-0.3c0-0.1-0.1-0.1-0.1-0.2c0-0.1,0-0.2,0-0.3c0-0.2,0-0.4-0.1-0.5c-0.4-0.7-1.2-0.9-2-0.8
				c-0.2,0-0.3,0.1-0.4,0.2c-0.2,0.1-0.1,0.2-0.3,0.2c-0.1,0-0.2,0.1-0.2,0.2C46.4-71.7,46.4-71.7,46.4-71.7
				C46.4-71.6,46.4-71.6,46.4-71.7"/>
			<path style="fill:#FFFFFF;" d="M38.8-71.7c0,0.1,0,0.1,0,0.2c-0.1,0.1-0.1,0.1-0.2,0.1c-0.1,0.1-0.1,0.3-0.1,0.4
				c-0.2,0.1,0,0.2,0,0.3c0,0,0,0.1,0,0.2c0,0.1,0,0.3,0.1,0.4c0.1,0.2,0.3,0.4,0.4,0.5c0.2,0.1,0.4,0.6,0.6,0.6
				c0.2,0,0.4-0.1,0.5-0.1c0.2,0,0.4,0,0.6-0.1c0.2-0.1,0.1-0.3,0.3-0.5c0.1-0.1,0.3,0,0.4-0.1c0.2-0.1,0.3-0.3,0.4-0.5
				c0-0.1,0-0.1,0-0.2c0-0.1,0.1-0.2,0.1-0.3c0-0.1-0.1-0.1-0.1-0.2c0-0.1,0-0.2,0-0.3c0-0.2,0-0.4-0.1-0.5c-0.4-0.7-1.2-0.9-2-0.8
				c-0.2,0-0.3,0.1-0.4,0.2c-0.2,0.1-0.1,0.2-0.3,0.2c-0.1,0-0.2,0.1-0.2,0.2C38.8-71.7,38.8-71.7,38.8-71.7
				C38.8-71.6,38.8-71.6,38.8-71.7"/>
			<path style="fill:#FFFFFF;" d="M31.1-71.7c0,0.1,0,0.1,0,0.2c-0.1,0.1-0.1,0.1-0.2,0.1c-0.1,0.1-0.1,0.3-0.1,0.4
				c-0.2,0.1,0,0.2,0,0.3c0,0,0,0.1,0,0.2c0,0.1,0,0.3,0.1,0.4c0.1,0.2,0.3,0.4,0.4,0.5c0.2,0.1,0.4,0.6,0.6,0.6
				c0.2,0,0.4-0.1,0.5-0.1c0.2,0,0.4,0,0.6-0.1c0.2-0.1,0.1-0.3,0.3-0.5c0.1-0.1,0.3,0,0.4-0.1c0.2-0.1,0.3-0.3,0.4-0.5
				c0-0.1,0-0.1,0-0.2c0-0.1,0.1-0.2,0.1-0.3c0-0.1-0.1-0.1-0.1-0.2c0-0.1,0-0.2,0-0.3c0-0.2,0-0.4-0.1-0.5c-0.4-0.7-1.2-0.9-2-0.8
				c-0.2,0-0.3,0.1-0.4,0.2c-0.2,0.1-0.1,0.2-0.3,0.2c-0.1,0-0.2,0.1-0.2,0.2C31.1-71.7,31.1-71.7,31.1-71.7
				C31.1-71.6,31.1-71.6,31.1-71.7"/>
			<path style="fill:#FFFFFF;" d="M23.4-71.7c0,0.1,0,0.1,0,0.2c-0.1,0.1-0.1,0.1-0.2,0.1c-0.1,0.1-0.1,0.3-0.1,0.4
				c-0.2,0.1,0,0.2,0,0.3c0,0,0,0.1,0,0.2c0,0.1,0,0.3,0.1,0.4c0.1,0.2,0.3,0.4,0.4,0.5c0.2,0.1,0.4,0.6,0.6,0.6
				c0.2,0,0.4-0.1,0.5-0.1c0.2,0,0.4,0,0.6-0.1c0.2-0.1,0.1-0.3,0.3-0.5c0.1-0.1,0.3,0,0.4-0.1c0.2-0.1,0.3-0.3,0.4-0.5
				c0-0.1,0-0.1,0-0.2c0-0.1,0.1-0.2,0.1-0.3c0-0.1-0.1-0.1-0.1-0.2c0-0.1,0-0.2,0-0.3c0-0.2,0-0.4-0.1-0.5c-0.4-0.7-1.2-0.9-2-0.8
				c-0.2,0-0.3,0.1-0.4,0.2c-0.2,0.1-0.1,0.2-0.3,0.2c-0.1,0-0.2,0.1-0.2,0.2C23.4-71.7,23.4-71.7,23.4-71.7
				C23.4-71.6,23.4-71.6,23.4-71.7"/>
			<path style="fill:#FFFFFF;" d="M15.8-71.7c0,0.1,0,0.1,0,0.2c-0.1,0.1-0.1,0.1-0.2,0.1c-0.1,0.1-0.1,0.3-0.1,0.4
				c-0.2,0.1,0,0.2,0,0.3c0,0,0,0.1,0,0.2c0,0.1,0,0.3,0.1,0.4c0.1,0.2,0.3,0.4,0.4,0.5c0.2,0.1,0.4,0.6,0.6,0.6
				c0.2,0,0.4-0.1,0.5-0.1c0.2,0,0.4,0,0.6-0.1c0.2-0.1,0.1-0.3,0.3-0.5c0.1-0.1,0.3,0,0.4-0.1c0.2-0.1,0.3-0.3,0.4-0.5
				c0-0.1,0-0.1,0-0.2c0-0.1,0.1-0.2,0.1-0.3c0-0.1-0.1-0.1-0.1-0.2c0-0.1,0-0.2,0-0.3c0-0.2,0-0.4-0.1-0.5c-0.4-0.7-1.2-0.9-2-0.8
				c-0.2,0-0.3,0.1-0.4,0.2c-0.2,0.1-0.1,0.2-0.3,0.2c-0.1,0-0.2,0.1-0.2,0.2C15.8-71.7,15.8-71.7,15.8-71.7
				C15.8-71.6,15.8-71.6,15.8-71.7"/>
			<path style="fill:#FFFFFF;" d="M8.1-71.7c0,0.1,0,0.1,0,0.2C8-71.4,8-71.4,7.9-71.3c-0.1,0.1-0.1,0.3-0.1,0.4
				c-0.2,0.1,0,0.2,0,0.3c0,0,0,0.1,0,0.2c0,0.1,0,0.3,0.1,0.4c0.1,0.2,0.3,0.4,0.4,0.5c0.2,0.1,0.4,0.6,0.6,0.6
				c0.2,0,0.4-0.1,0.5-0.1c0.2,0,0.4,0,0.6-0.1c0.2-0.1,0.1-0.3,0.3-0.5c0.1-0.1,0.3,0,0.4-0.1c0.2-0.1,0.3-0.3,0.4-0.5
				c0-0.1,0-0.1,0-0.2c0-0.1,0.1-0.2,0.1-0.3c0-0.1-0.1-0.1-0.1-0.2c0-0.1,0-0.2,0-0.3c0-0.2,0-0.4-0.1-0.5c-0.4-0.7-1.2-0.9-2-0.8
				c-0.2,0-0.3,0.1-0.4,0.2c-0.2,0.1-0.1,0.2-0.3,0.2c-0.1,0-0.2,0.1-0.2,0.2C8.1-71.7,8.1-71.7,8.1-71.7
				C8.1-71.6,8.1-71.6,8.1-71.7"/>
			<path style="fill:#FFFFFF;" d="M0.4-71.7c0,0.1,0,0.1,0,0.2c-0.1,0.1-0.1,0.1-0.2,0.1c-0.1,0.1-0.1,0.3-0.1,0.4
				c-0.2,0.1,0,0.2,0,0.3c0,0,0,0.1,0,0.2c0,0.1,0,0.3,0.1,0.4c0.1,0.2,0.3,0.4,0.4,0.5C0.8-69.4,1-69,1.2-68.9
				c0.2,0,0.4-0.1,0.5-0.1c0.2,0,0.4,0,0.6-0.1c0.2-0.1,0.1-0.3,0.3-0.5c0.1-0.1,0.3,0,0.4-0.1c0.2-0.1,0.3-0.3,0.4-0.5
				c0-0.1,0-0.1,0-0.2c0-0.1,0.1-0.2,0.1-0.3c0-0.1-0.1-0.1-0.1-0.2c0-0.1,0-0.2,0-0.3c0-0.2,0-0.4-0.1-0.5c-0.4-0.7-1.2-0.9-2-0.8
				c-0.2,0-0.3,0.1-0.4,0.2c-0.2,0.1-0.1,0.2-0.3,0.2c-0.1,0-0.2,0.1-0.2,0.2C0.4-71.7,0.4-71.7,0.4-71.7
				C0.4-71.6,0.4-71.6,0.4-71.7"/>
		</g>
		<g>
			<path style="fill:#FFFFFF;" d="M69.4-71.7c0,0.1,0,0.1,0,0.2c-0.1,0.1-0.1,0.1-0.2,0.1c-0.1,0.1-0.1,0.3-0.1,0.4
				c-0.2,0.1,0,0.2,0,0.3c0,0,0,0.1,0,0.2c0,0.1,0,0.3,0.1,0.4c0.1,0.2,0.3,0.4,0.4,0.5c0.2,0.1,0.4,0.6,0.6,0.6
				c0.2,0,0.4-0.1,0.5-0.1c0.2,0,0.4,0,0.6-0.1c0.2-0.1,0.1-0.3,0.3-0.5c0.1-0.1,0.3,0,0.4-0.1c0.2-0.1,0.3-0.3,0.4-0.5
				c0-0.1,0-0.1,0-0.2c0-0.1,0.1-0.2,0.1-0.3c0-0.1-0.1-0.1-0.1-0.2c0-0.1,0-0.2,0-0.3c0-0.2,0-0.4-0.1-0.5c-0.4-0.7-1.2-0.9-2-0.8
				c-0.2,0-0.3,0.1-0.4,0.2c-0.2,0.1-0.1,0.2-0.3,0.2c-0.1,0-0.2,0.1-0.2,0.2C69.4-71.7,69.4-71.7,69.4-71.7
				C69.4-71.6,69.4-71.6,69.4-71.7"/>
		</g>
		<path style="fill:#FFFFFF;" d="M0.5-71.7c0,0.1,0,0.1,0,0.2c-0.1,0.1-0.1,0.1-0.2,0.1c-0.1,0.1-0.1,0.3-0.1,0.4
			c-0.2,0.1,0,0.2,0,0.3c0,0,0,0.1,0,0.2c0,0.1,0,0.3,0.1,0.4c0.1,0.2,0.3,0.4,0.4,0.5C0.9-69.4,1-69,1.3-68.9
			c0.2,0,0.4-0.1,0.5-0.1c0.2,0,0.4,0,0.6-0.1c0.2-0.1,0.1-0.3,0.3-0.5c0.1-0.1,0.3,0,0.4-0.1c0.2-0.1,0.3-0.3,0.4-0.5
			c0-0.1,0-0.1,0-0.2c0-0.1,0.1-0.2,0.1-0.3c0-0.1-0.1-0.1-0.1-0.2c0-0.1,0-0.2,0-0.3c0-0.2,0-0.4-0.1-0.5c-0.4-0.7-1.2-0.9-2-0.8
			c-0.2,0-0.3,0.1-0.4,0.2c-0.2,0.1-0.1,0.2-0.3,0.2c-0.1,0-0.2,0.1-0.2,0.2C0.5-71.7,0.5-71.7,0.5-71.7C0.5-71.6,0.5-71.6,0.5-71.7
			"/>
		<g>
			<g>
				<path style="fill:#FFFFFF;" d="M69.4-64c0,0.1,0,0.1,0,0.2c-0.1,0.1-0.1,0.1-0.2,0.1c-0.1,0.1-0.1,0.3-0.1,0.4
					c-0.2,0.1,0,0.2,0,0.3c0,0,0,0.1,0,0.2c0,0.1,0,0.3,0.1,0.4c0.1,0.2,0.3,0.4,0.4,0.5c0.2,0.1,0.4,0.6,0.6,0.6
					c0.2,0,0.4-0.1,0.5-0.1c0.2,0,0.4,0,0.6-0.1c0.2-0.1,0.1-0.3,0.3-0.5c0.1-0.1,0.3,0,0.4-0.1c0.2-0.1,0.3-0.3,0.4-0.5
					c0-0.1,0-0.1,0-0.2c0-0.1,0.1-0.2,0.1-0.3c0-0.1-0.1-0.1-0.1-0.2c0-0.1,0-0.2,0-0.3c0-0.2,0-0.4-0.1-0.5c-0.4-0.7-1.2-0.9-2-0.8
					c-0.2,0-0.3,0.1-0.4,0.2c-0.2,0.1-0.1,0.2-0.3,0.2c-0.1,0-0.2,0.1-0.2,0.2C69.4-64,69.4-64.1,69.4-64C69.4-64,69.4-64,69.4-64"
					/>
				<path style="fill:#FFFFFF;" d="M61.8-64c0,0.1,0,0.1,0,0.2c-0.1,0.1-0.1,0.1-0.2,0.1c-0.1,0.1-0.1,0.3-0.1,0.4
					c-0.2,0.1,0,0.2,0,0.3c0,0,0,0.1,0,0.2c0,0.1,0,0.3,0.1,0.4c0.1,0.2,0.3,0.4,0.4,0.5c0.2,0.1,0.4,0.6,0.6,0.6
					c0.2,0,0.4-0.1,0.5-0.1c0.2,0,0.4,0,0.6-0.1c0.2-0.1,0.1-0.3,0.3-0.5c0.1-0.1,0.3,0,0.4-0.1c0.2-0.1,0.3-0.3,0.4-0.5
					c0-0.1,0-0.1,0-0.2c0-0.1,0.1-0.2,0.1-0.3c0-0.1-0.1-0.1-0.1-0.2c0-0.1,0-0.2,0-0.3c0-0.2,0-0.4-0.1-0.5c-0.4-0.7-1.2-0.9-2-0.8
					c-0.2,0-0.3,0.1-0.4,0.2c-0.2,0.1-0.1,0.2-0.3,0.2c-0.1,0-0.2,0.1-0.2,0.2C61.8-64,61.8-64.1,61.8-64C61.8-64,61.8-64,61.8-64"
					/>
				<path style="fill:#FFFFFF;" d="M54.1-64c0,0.1,0,0.1,0,0.2c-0.1,0.1-0.1,0.1-0.2,0.1c-0.1,0.1-0.1,0.3-0.1,0.4
					c-0.2,0.1,0,0.2,0,0.3c0,0,0,0.1,0,0.2c0,0.1,0,0.3,0.1,0.4c0.1,0.2,0.3,0.4,0.4,0.5c0.2,0.1,0.4,0.6,0.6,0.6
					c0.2,0,0.4-0.1,0.5-0.1c0.2,0,0.4,0,0.6-0.1c0.2-0.1,0.1-0.3,0.3-0.5c0.1-0.1,0.3,0,0.4-0.1c0.2-0.1,0.3-0.3,0.4-0.5
					c0-0.1,0-0.1,0-0.2c0-0.1,0.1-0.2,0.1-0.3c0-0.1-0.1-0.1-0.1-0.2c0-0.1,0-0.2,0-0.3c0-0.2,0-0.4-0.1-0.5c-0.4-0.7-1.2-0.9-2-0.8
					c-0.2,0-0.3,0.1-0.4,0.2c-0.2,0.1-0.1,0.2-0.3,0.2c-0.1,0-0.2,0.1-0.2,0.2C54.1-64,54.1-64.1,54.1-64C54.1-64,54.1-64,54.1-64"
					/>
				<path style="fill:#FFFFFF;" d="M46.5-64c0,0.1,0,0.1,0,0.2c-0.1,0.1-0.1,0.1-0.2,0.1c-0.1,0.1-0.1,0.3-0.1,0.4
					c-0.2,0.1,0,0.2,0,0.3c0,0,0,0.1,0,0.2c0,0.1,0,0.3,0.1,0.4c0.1,0.2,0.3,0.4,0.4,0.5c0.2,0.1,0.4,0.6,0.6,0.6
					c0.2,0,0.4-0.1,0.5-0.1c0.2,0,0.4,0,0.6-0.1c0.2-0.1,0.1-0.3,0.3-0.5c0.1-0.1,0.3,0,0.4-0.1c0.2-0.1,0.3-0.3,0.4-0.5
					c0-0.1,0-0.1,0-0.2c0-0.1,0.1-0.2,0.1-0.3c0-0.1-0.1-0.1-0.1-0.2c0-0.1,0-0.2,0-0.3c0-0.2,0-0.4-0.1-0.5c-0.4-0.7-1.2-0.9-2-0.8
					c-0.2,0-0.3,0.1-0.4,0.2c-0.2,0.1-0.1,0.2-0.3,0.2c-0.1,0-0.2,0.1-0.2,0.2C46.5-64,46.5-64.1,46.5-64C46.5-64,46.5-64,46.5-64"
					/>
				<path style="fill:#FFFFFF;" d="M38.8-64c0,0.1,0,0.1,0,0.2c-0.1,0.1-0.1,0.1-0.2,0.1c-0.1,0.1-0.1,0.3-0.1,0.4
					c-0.2,0.1,0,0.2,0,0.3c0,0,0,0.1,0,0.2c0,0.1,0,0.3,0.1,0.4c0.1,0.2,0.3,0.4,0.4,0.5c0.2,0.1,0.4,0.6,0.6,0.6
					c0.2,0,0.4-0.1,0.5-0.1c0.2,0,0.4,0,0.6-0.1c0.2-0.1,0.1-0.3,0.3-0.5c0.1-0.1,0.3,0,0.4-0.1c0.2-0.1,0.3-0.3,0.4-0.5
					c0-0.1,0-0.1,0-0.2c0-0.1,0.1-0.2,0.1-0.3c0-0.1-0.1-0.1-0.1-0.2c0-0.1,0-0.2,0-0.3c0-0.2,0-0.4-0.1-0.5c-0.4-0.7-1.2-0.9-2-0.8
					c-0.2,0-0.3,0.1-0.4,0.2c-0.2,0.1-0.1,0.2-0.3,0.2c-0.1,0-0.2,0.1-0.2,0.2C38.8-64,38.8-64.1,38.8-64C38.8-64,38.8-64,38.8-64"
					/>
				<path style="fill:#FFFFFF;" d="M31.1-64c0,0.1,0,0.1,0,0.2c-0.1,0.1-0.1,0.1-0.2,0.1c-0.1,0.1-0.1,0.3-0.1,0.4
					c-0.2,0.1,0,0.2,0,0.3c0,0,0,0.1,0,0.2c0,0.1,0,0.3,0.1,0.4c0.1,0.2,0.3,0.4,0.4,0.5c0.2,0.1,0.4,0.6,0.6,0.6
					c0.2,0,0.4-0.1,0.5-0.1c0.2,0,0.4,0,0.6-0.1c0.2-0.1,0.1-0.3,0.3-0.5c0.1-0.1,0.3,0,0.4-0.1c0.2-0.1,0.3-0.3,0.4-0.5
					c0-0.1,0-0.1,0-0.2c0-0.1,0.1-0.2,0.1-0.3c0-0.1-0.1-0.1-0.1-0.2c0-0.1,0-0.2,0-0.3c0-0.2,0-0.4-0.1-0.5c-0.4-0.7-1.2-0.9-2-0.8
					c-0.2,0-0.3,0.1-0.4,0.2c-0.2,0.1-0.1,0.2-0.3,0.2c-0.1,0-0.2,0.1-0.2,0.2C31.1-64,31.1-64.1,31.1-64C31.1-64,31.1-64,31.1-64"
					/>
				<path style="fill:#FFFFFF;" d="M23.5-64c0,0.1,0,0.1,0,0.2c-0.1,0.1-0.1,0.1-0.2,0.1c-0.1,0.1-0.1,0.3-0.1,0.4
					c-0.2,0.1,0,0.2,0,0.3c0,0,0,0.1,0,0.2c0,0.1,0,0.3,0.1,0.4c0.1,0.2,0.3,0.4,0.4,0.5c0.2,0.1,0.4,0.6,0.6,0.6
					c0.2,0,0.4-0.1,0.5-0.1c0.2,0,0.4,0,0.6-0.1c0.2-0.1,0.1-0.3,0.3-0.5c0.1-0.1,0.3,0,0.4-0.1c0.2-0.1,0.3-0.3,0.4-0.5
					c0-0.1,0-0.1,0-0.2c0-0.1,0.1-0.2,0.1-0.3c0-0.1-0.1-0.1-0.1-0.2c0-0.1,0-0.2,0-0.3c0-0.2,0-0.4-0.1-0.5c-0.4-0.7-1.2-0.9-2-0.8
					c-0.2,0-0.3,0.1-0.4,0.2c-0.2,0.1-0.1,0.2-0.3,0.2c-0.1,0-0.2,0.1-0.2,0.2C23.5-64,23.5-64.1,23.5-64C23.5-64,23.5-64,23.5-64"
					/>
				<path style="fill:#FFFFFF;" d="M15.8-64c0,0.1,0,0.1,0,0.2c-0.1,0.1-0.1,0.1-0.2,0.1c-0.1,0.1-0.1,0.3-0.1,0.4
					c-0.2,0.1,0,0.2,0,0.3c0,0,0,0.1,0,0.2c0,0.1,0,0.3,0.1,0.4c0.1,0.2,0.3,0.4,0.4,0.5c0.2,0.1,0.4,0.6,0.6,0.6
					c0.2,0,0.4-0.1,0.5-0.1c0.2,0,0.4,0,0.6-0.1c0.2-0.1,0.1-0.3,0.3-0.5c0.1-0.1,0.3,0,0.4-0.1c0.2-0.1,0.3-0.3,0.4-0.5
					c0-0.1,0-0.1,0-0.2c0-0.1,0.1-0.2,0.1-0.3c0-0.1-0.1-0.1-0.1-0.2c0-0.1,0-0.2,0-0.3c0-0.2,0-0.4-0.1-0.5c-0.4-0.7-1.2-0.9-2-0.8
					c-0.2,0-0.3,0.1-0.4,0.2c-0.2,0.1-0.1,0.2-0.3,0.2c-0.1,0-0.2,0.1-0.2,0.2C15.8-64,15.8-64.1,15.8-64C15.8-64,15.8-64,15.8-64"
					/>
				<path style="fill:#FFFFFF;" d="M8.2-64c0,0.1,0,0.1,0,0.2C8.1-63.7,8-63.7,8-63.7c-0.1,0.1-0.1,0.3-0.1,0.4
					c-0.2,0.1,0,0.2,0,0.3c0,0,0,0.1,0,0.2c0,0.1,0,0.3,0.1,0.4C8-62.2,8.2-62,8.3-61.9c0.2,0.1,0.4,0.6,0.6,0.6
					c0.2,0,0.4-0.1,0.5-0.1c0.2,0,0.4,0,0.6-0.1c0.2-0.1,0.1-0.3,0.3-0.5c0.1-0.1,0.3,0,0.4-0.1c0.2-0.1,0.3-0.3,0.4-0.5
					c0-0.1,0-0.1,0-0.2c0-0.1,0.1-0.2,0.1-0.3c0-0.1-0.1-0.1-0.1-0.2c0-0.1,0-0.2,0-0.3c0-0.2,0-0.4-0.1-0.5c-0.4-0.7-1.2-0.9-2-0.8
					c-0.2,0-0.3,0.1-0.4,0.2c-0.2,0.1-0.1,0.2-0.3,0.2c-0.1,0-0.2,0.1-0.2,0.2C8.2-64,8.2-64.1,8.2-64C8.1-64,8.1-64,8.2-64"/>
				<path style="fill:#FFFFFF;" d="M0.5-64c0,0.1,0,0.1,0,0.2c-0.1,0.1-0.1,0.1-0.2,0.1c-0.1,0.1-0.1,0.3-0.1,0.4
					c-0.2,0.1,0,0.2,0,0.3c0,0,0,0.1,0,0.2c0,0.1,0,0.3,0.1,0.4c0.1,0.2,0.3,0.4,0.4,0.5c0.2,0.1,0.4,0.6,0.6,0.6
					c0.2,0,0.4-0.1,0.5-0.1c0.2,0,0.4,0,0.6-0.1c0.2-0.1,0.1-0.3,0.3-0.5C2.8-62,3-61.9,3.1-62c0.2-0.1,0.3-0.3,0.4-0.5
					c0-0.1,0-0.1,0-0.2c0-0.1,0.1-0.2,0.1-0.3c0-0.1-0.1-0.1-0.1-0.2c0-0.1,0-0.2,0-0.3c0-0.2,0-0.4-0.1-0.5c-0.4-0.7-1.2-0.9-2-0.8
					c-0.2,0-0.3,0.1-0.4,0.2c-0.2,0.1-0.1,0.2-0.3,0.2c-0.1,0-0.2,0.1-0.2,0.2C0.5-64,0.5-64.1,0.5-64C0.5-64,0.5-64,0.5-64"/>
			</g>
			<g>
				<path style="fill:#FFFFFF;" d="M69.4-56.3c0,0.1,0,0.1,0,0.2c-0.1,0.1-0.1,0.1-0.2,0.1c-0.1,0.1-0.1,0.3-0.1,0.4
					c-0.2,0.1,0,0.2,0,0.3c0,0,0,0.1,0,0.2c0,0.1,0,0.3,0.1,0.4c0.1,0.2,0.3,0.4,0.4,0.5c0.2,0.1,0.4,0.6,0.6,0.6
					c0.2,0,0.4-0.1,0.5-0.1c0.2,0,0.4,0,0.6-0.1c0.2-0.1,0.1-0.3,0.3-0.5c0.1-0.1,0.3,0,0.4-0.1c0.2-0.1,0.3-0.3,0.4-0.5
					c0-0.1,0-0.1,0-0.2c0-0.1,0.1-0.2,0.1-0.3c0-0.1-0.1-0.1-0.1-0.2c0-0.1,0-0.2,0-0.3c0-0.2,0-0.4-0.1-0.5c-0.4-0.7-1.2-0.9-2-0.8
					c-0.2,0-0.3,0.1-0.4,0.2c-0.2,0.1-0.1,0.2-0.3,0.2c-0.1,0-0.2,0.1-0.2,0.2C69.4-56.4,69.4-56.4,69.4-56.3
					C69.4-56.3,69.4-56.3,69.4-56.3"/>
				<path style="fill:#FFFFFF;" d="M61.8-56.3c0,0.1,0,0.1,0,0.2c-0.1,0.1-0.1,0.1-0.2,0.1c-0.1,0.1-0.1,0.3-0.1,0.4
					c-0.2,0.1,0,0.2,0,0.3c0,0,0,0.1,0,0.2c0,0.1,0,0.3,0.1,0.4c0.1,0.2,0.3,0.4,0.4,0.5c0.2,0.1,0.4,0.6,0.6,0.6
					c0.2,0,0.4-0.1,0.5-0.1c0.2,0,0.4,0,0.6-0.1c0.2-0.1,0.1-0.3,0.3-0.5c0.1-0.1,0.3,0,0.4-0.1c0.2-0.1,0.3-0.3,0.4-0.5
					c0-0.1,0-0.1,0-0.2c0-0.1,0.1-0.2,0.1-0.3c0-0.1-0.1-0.1-0.1-0.2c0-0.1,0-0.2,0-0.3c0-0.2,0-0.4-0.1-0.5c-0.4-0.7-1.2-0.9-2-0.8
					c-0.2,0-0.3,0.1-0.4,0.2c-0.2,0.1-0.1,0.2-0.3,0.2c-0.1,0-0.2,0.1-0.2,0.2C61.8-56.4,61.8-56.4,61.8-56.3
					C61.8-56.3,61.8-56.3,61.8-56.3"/>
				<path style="fill:#FFFFFF;" d="M54.1-56.3c0,0.1,0,0.1,0,0.2C54-56.1,54-56.1,53.9-56c-0.1,0.1-0.1,0.3-0.1,0.4
					c-0.2,0.1,0,0.2,0,0.3c0,0,0,0.1,0,0.2c0,0.1,0,0.3,0.1,0.4c0.1,0.2,0.3,0.4,0.4,0.5c0.2,0.1,0.4,0.6,0.6,0.6
					c0.2,0,0.4-0.1,0.5-0.1c0.2,0,0.4,0,0.6-0.1c0.2-0.1,0.1-0.3,0.3-0.5c0.1-0.1,0.3,0,0.4-0.1c0.2-0.1,0.3-0.3,0.4-0.5
					c0-0.1,0-0.1,0-0.2c0-0.1,0.1-0.2,0.1-0.3c0-0.1-0.1-0.1-0.1-0.2c0-0.1,0-0.2,0-0.3c0-0.2,0-0.4-0.1-0.5c-0.4-0.7-1.2-0.9-2-0.8
					c-0.2,0-0.3,0.1-0.4,0.2c-0.2,0.1-0.1,0.2-0.3,0.2c-0.1,0-0.2,0.1-0.2,0.2C54.1-56.4,54.1-56.4,54.1-56.3
					C54.1-56.3,54.1-56.3,54.1-56.3"/>
				<path style="fill:#FFFFFF;" d="M46.5-56.3c0,0.1,0,0.1,0,0.2c-0.1,0.1-0.1,0.1-0.2,0.1c-0.1,0.1-0.1,0.3-0.1,0.4
					c-0.2,0.1,0,0.2,0,0.3c0,0,0,0.1,0,0.2c0,0.1,0,0.3,0.1,0.4c0.1,0.2,0.3,0.4,0.4,0.5c0.2,0.1,0.4,0.6,0.6,0.6
					c0.2,0,0.4-0.1,0.5-0.1c0.2,0,0.4,0,0.6-0.1c0.2-0.1,0.1-0.3,0.3-0.5c0.1-0.1,0.3,0,0.4-0.1c0.2-0.1,0.3-0.3,0.4-0.5
					c0-0.1,0-0.1,0-0.2c0-0.1,0.1-0.2,0.1-0.3c0-0.1-0.1-0.1-0.1-0.2c0-0.1,0-0.2,0-0.3c0-0.2,0-0.4-0.1-0.5c-0.4-0.7-1.2-0.9-2-0.8
					c-0.2,0-0.3,0.1-0.4,0.2c-0.2,0.1-0.1,0.2-0.3,0.2c-0.1,0-0.2,0.1-0.2,0.2C46.5-56.4,46.5-56.4,46.5-56.3
					C46.5-56.3,46.5-56.3,46.5-56.3"/>
				<path style="fill:#FFFFFF;" d="M38.8-56.3c0,0.1,0,0.1,0,0.2c-0.1,0.1-0.1,0.1-0.2,0.1c-0.1,0.1-0.1,0.3-0.1,0.4
					c-0.2,0.1,0,0.2,0,0.3c0,0,0,0.1,0,0.2c0,0.1,0,0.3,0.1,0.4c0.1,0.2,0.3,0.4,0.4,0.5c0.2,0.1,0.4,0.6,0.6,0.6
					c0.2,0,0.4-0.1,0.5-0.1c0.2,0,0.4,0,0.6-0.1c0.2-0.1,0.1-0.3,0.3-0.5c0.1-0.1,0.3,0,0.4-0.1c0.2-0.1,0.3-0.3,0.4-0.5
					c0-0.1,0-0.1,0-0.2c0-0.1,0.1-0.2,0.1-0.3c0-0.1-0.1-0.1-0.1-0.2c0-0.1,0-0.2,0-0.3c0-0.2,0-0.4-0.1-0.5c-0.4-0.7-1.2-0.9-2-0.8
					c-0.2,0-0.3,0.1-0.4,0.2c-0.2,0.1-0.1,0.2-0.3,0.2c-0.1,0-0.2,0.1-0.2,0.2C38.8-56.4,38.8-56.4,38.8-56.3
					C38.8-56.3,38.8-56.3,38.8-56.3"/>
				<path style="fill:#FFFFFF;" d="M31.1-56.3c0,0.1,0,0.1,0,0.2c-0.1,0.1-0.1,0.1-0.2,0.1c-0.1,0.1-0.1,0.3-0.1,0.4
					c-0.2,0.1,0,0.2,0,0.3c0,0,0,0.1,0,0.2c0,0.1,0,0.3,0.1,0.4c0.1,0.2,0.3,0.4,0.4,0.5c0.2,0.1,0.4,0.6,0.6,0.6
					c0.2,0,0.4-0.1,0.5-0.1c0.2,0,0.4,0,0.6-0.1c0.2-0.1,0.1-0.3,0.3-0.5c0.1-0.1,0.3,0,0.4-0.1c0.2-0.1,0.3-0.3,0.4-0.5
					c0-0.1,0-0.1,0-0.2c0-0.1,0.1-0.2,0.1-0.3c0-0.1-0.1-0.1-0.1-0.2c0-0.1,0-0.2,0-0.3c0-0.2,0-0.4-0.1-0.5c-0.4-0.7-1.2-0.9-2-0.8
					c-0.2,0-0.3,0.1-0.4,0.2c-0.2,0.1-0.1,0.2-0.3,0.2c-0.1,0-0.2,0.1-0.2,0.2C31.1-56.4,31.1-56.4,31.1-56.3
					C31.1-56.3,31.1-56.3,31.1-56.3"/>
				<path style="fill:#FFFFFF;" d="M23.5-56.3c0,0.1,0,0.1,0,0.2c-0.1,0.1-0.1,0.1-0.2,0.1c-0.1,0.1-0.1,0.3-0.1,0.4
					c-0.2,0.1,0,0.2,0,0.3c0,0,0,0.1,0,0.2c0,0.1,0,0.3,0.1,0.4c0.1,0.2,0.3,0.4,0.4,0.5c0.2,0.1,0.4,0.6,0.6,0.6
					c0.2,0,0.4-0.1,0.5-0.1c0.2,0,0.4,0,0.6-0.1c0.2-0.1,0.1-0.3,0.3-0.5c0.1-0.1,0.3,0,0.4-0.1c0.2-0.1,0.3-0.3,0.4-0.5
					c0-0.1,0-0.1,0-0.2c0-0.1,0.1-0.2,0.1-0.3c0-0.1-0.1-0.1-0.1-0.2c0-0.1,0-0.2,0-0.3c0-0.2,0-0.4-0.1-0.5c-0.4-0.7-1.2-0.9-2-0.8
					c-0.2,0-0.3,0.1-0.4,0.2c-0.2,0.1-0.1,0.2-0.3,0.2c-0.1,0-0.2,0.1-0.2,0.2C23.5-56.4,23.5-56.4,23.5-56.3
					C23.5-56.3,23.5-56.3,23.5-56.3"/>
				<path style="fill:#FFFFFF;" d="M15.8-56.3c0,0.1,0,0.1,0,0.2c-0.1,0.1-0.1,0.1-0.2,0.1c-0.1,0.1-0.1,0.3-0.1,0.4
					c-0.2,0.1,0,0.2,0,0.3c0,0,0,0.1,0,0.2c0,0.1,0,0.3,0.1,0.4c0.1,0.2,0.3,0.4,0.4,0.5c0.2,0.1,0.4,0.6,0.6,0.6
					c0.2,0,0.4-0.1,0.5-0.1c0.2,0,0.4,0,0.6-0.1c0.2-0.1,0.1-0.3,0.3-0.5c0.1-0.1,0.3,0,0.4-0.1c0.2-0.1,0.3-0.3,0.4-0.5
					c0-0.1,0-0.1,0-0.2c0-0.1,0.1-0.2,0.1-0.3c0-0.1-0.1-0.1-0.1-0.2c0-0.1,0-0.2,0-0.3c0-0.2,0-0.4-0.1-0.5c-0.4-0.7-1.2-0.9-2-0.8
					c-0.2,0-0.3,0.1-0.4,0.2c-0.2,0.1-0.1,0.2-0.3,0.2c-0.1,0-0.2,0.1-0.2,0.2C15.8-56.4,15.8-56.4,15.8-56.3
					C15.8-56.3,15.8-56.3,15.8-56.3"/>
				<path style="fill:#FFFFFF;" d="M8.2-56.3c0,0.1,0,0.1,0,0.2C8.1-56.1,8-56.1,8-56c-0.1,0.1-0.1,0.3-0.1,0.4
					c-0.2,0.1,0,0.2,0,0.3c0,0,0,0.1,0,0.2c0,0.1,0,0.3,0.1,0.4c0.1,0.2,0.3,0.4,0.4,0.5c0.2,0.1,0.4,0.6,0.6,0.6
					c0.2,0,0.4-0.1,0.5-0.1c0.2,0,0.4,0,0.6-0.1c0.2-0.1,0.1-0.3,0.3-0.5c0.1-0.1,0.3,0,0.4-0.1c0.2-0.1,0.3-0.3,0.4-0.5
					c0-0.1,0-0.1,0-0.2c0-0.1,0.1-0.2,0.1-0.3c0-0.1-0.1-0.1-0.1-0.2c0-0.1,0-0.2,0-0.3c0-0.2,0-0.4-0.1-0.5c-0.4-0.7-1.2-0.9-2-0.8
					c-0.2,0-0.3,0.1-0.4,0.2c-0.2,0.1-0.1,0.2-0.3,0.2c-0.1,0-0.2,0.1-0.2,0.2C8.2-56.4,8.2-56.4,8.2-56.3
					C8.1-56.3,8.1-56.3,8.2-56.3"/>
				<path style="fill:#FFFFFF;" d="M0.5-56.3c0,0.1,0,0.1,0,0.2c-0.1,0.1-0.1,0.1-0.2,0.1c-0.1,0.1-0.1,0.3-0.1,0.4
					c-0.2,0.1,0,0.2,0,0.3c0,0,0,0.1,0,0.2c0,0.1,0,0.3,0.1,0.4c0.1,0.2,0.3,0.4,0.4,0.5c0.2,0.1,0.4,0.6,0.6,0.6
					c0.2,0,0.4-0.1,0.5-0.1c0.2,0,0.4,0,0.6-0.1c0.2-0.1,0.1-0.3,0.3-0.5c0.1-0.1,0.3,0,0.4-0.1c0.2-0.1,0.3-0.3,0.4-0.5
					c0-0.1,0-0.1,0-0.2c0-0.1,0.1-0.2,0.1-0.3c0-0.1-0.1-0.1-0.1-0.2c0-0.1,0-0.2,0-0.3c0-0.2,0-0.4-0.1-0.5c-0.4-0.7-1.2-0.9-2-0.8
					c-0.2,0-0.3,0.1-0.4,0.2c-0.2,0.1-0.1,0.2-0.3,0.2c-0.1,0-0.2,0.1-0.2,0.2C0.5-56.4,0.5-56.4,0.5-56.3
					C0.5-56.3,0.5-56.3,0.5-56.3"/>
			</g>
			<g>
				<path style="fill:#FFFFFF;" d="M69.4-48.7c0,0.1,0,0.1,0,0.2c-0.1,0.1-0.1,0.1-0.2,0.1c-0.1,0.1-0.1,0.3-0.1,0.4
					c-0.2,0.1,0,0.2,0,0.3c0,0,0,0.1,0,0.2c0,0.1,0,0.3,0.1,0.4c0.1,0.2,0.3,0.4,0.4,0.5c0.2,0.1,0.4,0.6,0.6,0.6
					c0.2,0,0.4-0.1,0.5-0.1c0.2,0,0.4,0,0.6-0.1c0.2-0.1,0.1-0.3,0.3-0.5c0.1-0.1,0.3,0,0.4-0.1c0.2-0.1,0.3-0.3,0.4-0.5
					c0-0.1,0-0.1,0-0.2c0-0.1,0.1-0.2,0.1-0.3c0-0.1-0.1-0.1-0.1-0.2c0-0.1,0-0.2,0-0.3c0-0.2,0-0.4-0.1-0.5c-0.4-0.7-1.2-0.9-2-0.8
					c-0.2,0-0.3,0.1-0.4,0.2c-0.2,0.1-0.1,0.2-0.3,0.2c-0.1,0-0.2,0.1-0.2,0.2C69.4-48.7,69.4-48.8,69.4-48.7
					C69.4-48.7,69.4-48.7,69.4-48.7"/>
				<path style="fill:#FFFFFF;" d="M61.8-48.7c0,0.1,0,0.1,0,0.2c-0.1,0.1-0.1,0.1-0.2,0.1c-0.1,0.1-0.1,0.3-0.1,0.4
					c-0.2,0.1,0,0.2,0,0.3c0,0,0,0.1,0,0.2c0,0.1,0,0.3,0.1,0.4c0.1,0.2,0.3,0.4,0.4,0.5c0.2,0.1,0.4,0.6,0.6,0.6
					c0.2,0,0.4-0.1,0.5-0.1c0.2,0,0.4,0,0.6-0.1c0.2-0.1,0.1-0.3,0.3-0.5c0.1-0.1,0.3,0,0.4-0.1c0.2-0.1,0.3-0.3,0.4-0.5
					c0-0.1,0-0.1,0-0.2c0-0.1,0.1-0.2,0.1-0.3c0-0.1-0.1-0.1-0.1-0.2c0-0.1,0-0.2,0-0.3c0-0.2,0-0.4-0.1-0.5c-0.4-0.7-1.2-0.9-2-0.8
					c-0.2,0-0.3,0.1-0.4,0.2c-0.2,0.1-0.1,0.2-0.3,0.2c-0.1,0-0.2,0.1-0.2,0.2C61.8-48.7,61.8-48.8,61.8-48.7
					C61.8-48.7,61.8-48.7,61.8-48.7"/>
				<path style="fill:#FFFFFF;" d="M54.1-48.7c0,0.1,0,0.1,0,0.2c-0.1,0.1-0.1,0.1-0.2,0.1c-0.1,0.1-0.1,0.3-0.1,0.4
					c-0.2,0.1,0,0.2,0,0.3c0,0,0,0.1,0,0.2c0,0.1,0,0.3,0.1,0.4c0.1,0.2,0.3,0.4,0.4,0.5c0.2,0.1,0.4,0.6,0.6,0.6
					c0.2,0,0.4-0.1,0.5-0.1c0.2,0,0.4,0,0.6-0.1c0.2-0.1,0.1-0.3,0.3-0.5c0.1-0.1,0.3,0,0.4-0.1c0.2-0.1,0.3-0.3,0.4-0.5
					c0-0.1,0-0.1,0-0.2c0-0.1,0.1-0.2,0.1-0.3c0-0.1-0.1-0.1-0.1-0.2c0-0.1,0-0.2,0-0.3c0-0.2,0-0.4-0.1-0.5c-0.4-0.7-1.2-0.9-2-0.8
					c-0.2,0-0.3,0.1-0.4,0.2c-0.2,0.1-0.1,0.2-0.3,0.2c-0.1,0-0.2,0.1-0.2,0.2C54.1-48.7,54.1-48.8,54.1-48.7
					C54.1-48.7,54.1-48.7,54.1-48.7"/>
				<path style="fill:#FFFFFF;" d="M46.5-48.7c0,0.1,0,0.1,0,0.2c-0.1,0.1-0.1,0.1-0.2,0.1c-0.1,0.1-0.1,0.3-0.1,0.4
					c-0.2,0.1,0,0.2,0,0.3c0,0,0,0.1,0,0.2c0,0.1,0,0.3,0.1,0.4c0.1,0.2,0.3,0.4,0.4,0.5c0.2,0.1,0.4,0.6,0.6,0.6
					c0.2,0,0.4-0.1,0.5-0.1c0.2,0,0.4,0,0.6-0.1c0.2-0.1,0.1-0.3,0.3-0.5c0.1-0.1,0.3,0,0.4-0.1c0.2-0.1,0.3-0.3,0.4-0.5
					c0-0.1,0-0.1,0-0.2c0-0.1,0.1-0.2,0.1-0.3c0-0.1-0.1-0.1-0.1-0.2c0-0.1,0-0.2,0-0.3c0-0.2,0-0.4-0.1-0.5c-0.4-0.7-1.2-0.9-2-0.8
					c-0.2,0-0.3,0.1-0.4,0.2c-0.2,0.1-0.1,0.2-0.3,0.2c-0.1,0-0.2,0.1-0.2,0.2C46.5-48.7,46.5-48.8,46.5-48.7
					C46.5-48.7,46.5-48.7,46.5-48.7"/>
				<path style="fill:#FFFFFF;" d="M38.8-48.7c0,0.1,0,0.1,0,0.2c-0.1,0.1-0.1,0.1-0.2,0.1c-0.1,0.1-0.1,0.3-0.1,0.4
					c-0.2,0.1,0,0.2,0,0.3c0,0,0,0.1,0,0.2c0,0.1,0,0.3,0.1,0.4c0.1,0.2,0.3,0.4,0.4,0.5c0.2,0.1,0.4,0.6,0.6,0.6
					c0.2,0,0.4-0.1,0.5-0.1c0.2,0,0.4,0,0.6-0.1c0.2-0.1,0.1-0.3,0.3-0.5c0.1-0.1,0.3,0,0.4-0.1c0.2-0.1,0.3-0.3,0.4-0.5
					c0-0.1,0-0.1,0-0.2c0-0.1,0.1-0.2,0.1-0.3c0-0.1-0.1-0.1-0.1-0.2c0-0.1,0-0.2,0-0.3c0-0.2,0-0.4-0.1-0.5c-0.4-0.7-1.2-0.9-2-0.8
					c-0.2,0-0.3,0.1-0.4,0.2c-0.2,0.1-0.1,0.2-0.3,0.2c-0.1,0-0.2,0.1-0.2,0.2C38.8-48.7,38.8-48.8,38.8-48.7
					C38.8-48.7,38.8-48.7,38.8-48.7"/>
				<path style="fill:#FFFFFF;" d="M31.1-48.7c0,0.1,0,0.1,0,0.2c-0.1,0.1-0.1,0.1-0.2,0.1c-0.1,0.1-0.1,0.3-0.1,0.4
					c-0.2,0.1,0,0.2,0,0.3c0,0,0,0.1,0,0.2c0,0.1,0,0.3,0.1,0.4c0.1,0.2,0.3,0.4,0.4,0.5c0.2,0.1,0.4,0.6,0.6,0.6
					c0.2,0,0.4-0.1,0.5-0.1c0.2,0,0.4,0,0.6-0.1c0.2-0.1,0.1-0.3,0.3-0.5c0.1-0.1,0.3,0,0.4-0.1c0.2-0.1,0.3-0.3,0.4-0.5
					c0-0.1,0-0.1,0-0.2c0-0.1,0.1-0.2,0.1-0.3c0-0.1-0.1-0.1-0.1-0.2c0-0.1,0-0.2,0-0.3c0-0.2,0-0.4-0.1-0.5c-0.4-0.7-1.2-0.9-2-0.8
					c-0.2,0-0.3,0.1-0.4,0.2c-0.2,0.1-0.1,0.2-0.3,0.2c-0.1,0-0.2,0.1-0.2,0.2C31.1-48.7,31.1-48.8,31.1-48.7
					C31.1-48.7,31.1-48.7,31.1-48.7"/>
				<path style="fill:#FFFFFF;" d="M23.5-48.7c0,0.1,0,0.1,0,0.2c-0.1,0.1-0.1,0.1-0.2,0.1c-0.1,0.1-0.1,0.3-0.1,0.4
					c-0.2,0.1,0,0.2,0,0.3c0,0,0,0.1,0,0.2c0,0.1,0,0.3,0.1,0.4c0.1,0.2,0.3,0.4,0.4,0.5c0.2,0.1,0.4,0.6,0.6,0.6
					c0.2,0,0.4-0.1,0.5-0.1c0.2,0,0.4,0,0.6-0.1c0.2-0.1,0.1-0.3,0.3-0.5c0.1-0.1,0.3,0,0.4-0.1c0.2-0.1,0.3-0.3,0.4-0.5
					c0-0.1,0-0.1,0-0.2c0-0.1,0.1-0.2,0.1-0.3c0-0.1-0.1-0.1-0.1-0.2c0-0.1,0-0.2,0-0.3c0-0.2,0-0.4-0.1-0.5c-0.4-0.7-1.2-0.9-2-0.8
					c-0.2,0-0.3,0.1-0.4,0.2c-0.2,0.1-0.1,0.2-0.3,0.2c-0.1,0-0.2,0.1-0.2,0.2C23.5-48.7,23.5-48.8,23.5-48.7
					C23.5-48.7,23.5-48.7,23.5-48.7"/>
				<path style="fill:#FFFFFF;" d="M15.8-48.7c0,0.1,0,0.1,0,0.2c-0.1,0.1-0.1,0.1-0.2,0.1c-0.1,0.1-0.1,0.3-0.1,0.4
					c-0.2,0.1,0,0.2,0,0.3c0,0,0,0.1,0,0.2c0,0.1,0,0.3,0.1,0.4c0.1,0.2,0.3,0.4,0.4,0.5c0.2,0.1,0.4,0.6,0.6,0.6
					c0.2,0,0.4-0.1,0.5-0.1c0.2,0,0.4,0,0.6-0.1c0.2-0.1,0.1-0.3,0.3-0.5c0.1-0.1,0.3,0,0.4-0.1c0.2-0.1,0.3-0.3,0.4-0.5
					c0-0.1,0-0.1,0-0.2c0-0.1,0.1-0.2,0.1-0.3c0-0.1-0.1-0.1-0.1-0.2c0-0.1,0-0.2,0-0.3c0-0.2,0-0.4-0.1-0.5c-0.4-0.7-1.2-0.9-2-0.8
					c-0.2,0-0.3,0.1-0.4,0.2c-0.2,0.1-0.1,0.2-0.3,0.2c-0.1,0-0.2,0.1-0.2,0.2C15.8-48.7,15.8-48.8,15.8-48.7
					C15.8-48.7,15.8-48.7,15.8-48.7"/>
				<path style="fill:#FFFFFF;" d="M8.2-48.7c0,0.1,0,0.1,0,0.2C8.1-48.4,8-48.4,8-48.4c-0.1,0.1-0.1,0.3-0.1,0.4
					c-0.2,0.1,0,0.2,0,0.3c0,0,0,0.1,0,0.2c0,0.1,0,0.3,0.1,0.4c0.1,0.2,0.3,0.4,0.4,0.5C8.5-46.4,8.7-46,8.9-46
					c0.2,0,0.4-0.1,0.5-0.1c0.2,0,0.4,0,0.6-0.1c0.2-0.1,0.1-0.3,0.3-0.5c0.1-0.1,0.3,0,0.4-0.1c0.2-0.1,0.3-0.3,0.4-0.5
					c0-0.1,0-0.1,0-0.2c0-0.1,0.1-0.2,0.1-0.3c0-0.1-0.1-0.1-0.1-0.2c0-0.1,0-0.2,0-0.3c0-0.2,0-0.4-0.1-0.5c-0.4-0.7-1.2-0.9-2-0.8
					c-0.2,0-0.3,0.1-0.4,0.2c-0.2,0.1-0.1,0.2-0.3,0.2c-0.1,0-0.2,0.1-0.2,0.2C8.2-48.7,8.2-48.8,8.2-48.7
					C8.1-48.7,8.1-48.7,8.2-48.7"/>
				<path style="fill:#FFFFFF;" d="M0.5-48.7c0,0.1,0,0.1,0,0.2c-0.1,0.1-0.1,0.1-0.2,0.1c-0.1,0.1-0.1,0.3-0.1,0.4
					c-0.2,0.1,0,0.2,0,0.3c0,0,0,0.1,0,0.2c0,0.1,0,0.3,0.1,0.4c0.1,0.2,0.3,0.4,0.4,0.5C0.9-46.4,1-46,1.3-46
					c0.2,0,0.4-0.1,0.5-0.1c0.2,0,0.4,0,0.6-0.1c0.2-0.1,0.1-0.3,0.3-0.5c0.1-0.1,0.3,0,0.4-0.1c0.2-0.1,0.3-0.3,0.4-0.5
					c0-0.1,0-0.1,0-0.2c0-0.1,0.1-0.2,0.1-0.3c0-0.1-0.1-0.1-0.1-0.2c0-0.1,0-0.2,0-0.3c0-0.2,0-0.4-0.1-0.5c-0.4-0.7-1.2-0.9-2-0.8
					c-0.2,0-0.3,0.1-0.4,0.2c-0.2,0.1-0.1,0.2-0.3,0.2c-0.1,0-0.2,0.1-0.2,0.2C0.5-48.7,0.5-48.8,0.5-48.7
					C0.5-48.7,0.5-48.7,0.5-48.7"/>
			</g>
			<g>
				<path style="fill:#FFFFFF;" d="M69.4-41c0,0.1,0,0.1,0,0.2c-0.1,0.1-0.1,0.1-0.2,0.1c-0.1,0.1-0.1,0.3-0.1,0.4
					c-0.2,0.1,0,0.2,0,0.3c0,0,0,0.1,0,0.2c0,0.1,0,0.3,0.1,0.4c0.1,0.2,0.3,0.4,0.4,0.5c0.2,0.1,0.4,0.6,0.6,0.6
					c0.2,0,0.4-0.1,0.5-0.1c0.2,0,0.4,0,0.6-0.1c0.2-0.1,0.1-0.3,0.3-0.5c0.1-0.1,0.3,0,0.4-0.1c0.2-0.1,0.3-0.3,0.4-0.5
					c0-0.1,0-0.1,0-0.2c0-0.1,0.1-0.2,0.1-0.3c0-0.1-0.1-0.1-0.1-0.2c0-0.1,0-0.2,0-0.3c0-0.2,0-0.4-0.1-0.5c-0.4-0.7-1.2-0.9-2-0.8
					c-0.2,0-0.3,0.1-0.4,0.2c-0.2,0.1-0.1,0.2-0.3,0.2c-0.1,0-0.2,0.1-0.2,0.2C69.4-41.1,69.4-41.1,69.4-41C69.4-41,69.4-41,69.4-41
					"/>
				<path style="fill:#FFFFFF;" d="M61.8-41c0,0.1,0,0.1,0,0.2c-0.1,0.1-0.1,0.1-0.2,0.1c-0.1,0.1-0.1,0.3-0.1,0.4
					c-0.2,0.1,0,0.2,0,0.3c0,0,0,0.1,0,0.2c0,0.1,0,0.3,0.1,0.4c0.1,0.2,0.3,0.4,0.4,0.5c0.2,0.1,0.4,0.6,0.6,0.6
					c0.2,0,0.4-0.1,0.5-0.1c0.2,0,0.4,0,0.6-0.1c0.2-0.1,0.1-0.3,0.3-0.5c0.1-0.1,0.3,0,0.4-0.1c0.2-0.1,0.3-0.3,0.4-0.5
					c0-0.1,0-0.1,0-0.2c0-0.1,0.1-0.2,0.1-0.3c0-0.1-0.1-0.1-0.1-0.2c0-0.1,0-0.2,0-0.3c0-0.2,0-0.4-0.1-0.5c-0.4-0.7-1.2-0.9-2-0.8
					c-0.2,0-0.3,0.1-0.4,0.2c-0.2,0.1-0.1,0.2-0.3,0.2c-0.1,0-0.2,0.1-0.2,0.2C61.8-41.1,61.8-41.1,61.8-41C61.8-41,61.8-41,61.8-41
					"/>
				<path style="fill:#FFFFFF;" d="M54.1-41c0,0.1,0,0.1,0,0.2c-0.1,0.1-0.1,0.1-0.2,0.1c-0.1,0.1-0.1,0.3-0.1,0.4
					c-0.2,0.1,0,0.2,0,0.3c0,0,0,0.1,0,0.2c0,0.1,0,0.3,0.1,0.4c0.1,0.2,0.3,0.4,0.4,0.5c0.2,0.1,0.4,0.6,0.6,0.6
					c0.2,0,0.4-0.1,0.5-0.1c0.2,0,0.4,0,0.6-0.1c0.2-0.1,0.1-0.3,0.3-0.5c0.1-0.1,0.3,0,0.4-0.1c0.2-0.1,0.3-0.3,0.4-0.5
					c0-0.1,0-0.1,0-0.2c0-0.1,0.1-0.2,0.1-0.3c0-0.1-0.1-0.1-0.1-0.2c0-0.1,0-0.2,0-0.3c0-0.2,0-0.4-0.1-0.5c-0.4-0.7-1.2-0.9-2-0.8
					c-0.2,0-0.3,0.1-0.4,0.2c-0.2,0.1-0.1,0.2-0.3,0.2c-0.1,0-0.2,0.1-0.2,0.2C54.1-41.1,54.1-41.1,54.1-41C54.1-41,54.1-41,54.1-41
					"/>
				<path style="fill:#FFFFFF;" d="M46.5-41c0,0.1,0,0.1,0,0.2c-0.1,0.1-0.1,0.1-0.2,0.1c-0.1,0.1-0.1,0.3-0.1,0.4
					c-0.2,0.1,0,0.2,0,0.3c0,0,0,0.1,0,0.2c0,0.1,0,0.3,0.1,0.4c0.1,0.2,0.3,0.4,0.4,0.5c0.2,0.1,0.4,0.6,0.6,0.6
					c0.2,0,0.4-0.1,0.5-0.1c0.2,0,0.4,0,0.6-0.1c0.2-0.1,0.1-0.3,0.3-0.5c0.1-0.1,0.3,0,0.4-0.1c0.2-0.1,0.3-0.3,0.4-0.5
					c0-0.1,0-0.1,0-0.2c0-0.1,0.1-0.2,0.1-0.3c0-0.1-0.1-0.1-0.1-0.2c0-0.1,0-0.2,0-0.3c0-0.2,0-0.4-0.1-0.5c-0.4-0.7-1.2-0.9-2-0.8
					c-0.2,0-0.3,0.1-0.4,0.2c-0.2,0.1-0.1,0.2-0.3,0.2c-0.1,0-0.2,0.1-0.2,0.2C46.5-41.1,46.5-41.1,46.5-41C46.5-41,46.5-41,46.5-41
					"/>
				<path style="fill:#FFFFFF;" d="M38.8-41c0,0.1,0,0.1,0,0.2c-0.1,0.1-0.1,0.1-0.2,0.1c-0.1,0.1-0.1,0.3-0.1,0.4
					c-0.2,0.1,0,0.2,0,0.3c0,0,0,0.1,0,0.2c0,0.1,0,0.3,0.1,0.4c0.1,0.2,0.3,0.4,0.4,0.5c0.2,0.1,0.4,0.6,0.6,0.6
					c0.2,0,0.4-0.1,0.5-0.1c0.2,0,0.4,0,0.6-0.1c0.2-0.1,0.1-0.3,0.3-0.5c0.1-0.1,0.3,0,0.4-0.1c0.2-0.1,0.3-0.3,0.4-0.5
					c0-0.1,0-0.1,0-0.2c0-0.1,0.1-0.2,0.1-0.3c0-0.1-0.1-0.1-0.1-0.2c0-0.1,0-0.2,0-0.3c0-0.2,0-0.4-0.1-0.5c-0.4-0.7-1.2-0.9-2-0.8
					c-0.2,0-0.3,0.1-0.4,0.2c-0.2,0.1-0.1,0.2-0.3,0.2c-0.1,0-0.2,0.1-0.2,0.2C38.8-41.1,38.8-41.1,38.8-41C38.8-41,38.8-41,38.8-41
					"/>
				<path style="fill:#FFFFFF;" d="M31.1-41c0,0.1,0,0.1,0,0.2c-0.1,0.1-0.1,0.1-0.2,0.1c-0.1,0.1-0.1,0.3-0.1,0.4
					c-0.2,0.1,0,0.2,0,0.3c0,0,0,0.1,0,0.2c0,0.1,0,0.3,0.1,0.4c0.1,0.2,0.3,0.4,0.4,0.5c0.2,0.1,0.4,0.6,0.6,0.6
					c0.2,0,0.4-0.1,0.5-0.1c0.2,0,0.4,0,0.6-0.1c0.2-0.1,0.1-0.3,0.3-0.5c0.1-0.1,0.3,0,0.4-0.1c0.2-0.1,0.3-0.3,0.4-0.5
					c0-0.1,0-0.1,0-0.2c0-0.1,0.1-0.2,0.1-0.3c0-0.1-0.1-0.1-0.1-0.2c0-0.1,0-0.2,0-0.3c0-0.2,0-0.4-0.1-0.5c-0.4-0.7-1.2-0.9-2-0.8
					c-0.2,0-0.3,0.1-0.4,0.2c-0.2,0.1-0.1,0.2-0.3,0.2c-0.1,0-0.2,0.1-0.2,0.2C31.1-41.1,31.1-41.1,31.1-41C31.1-41,31.1-41,31.1-41
					"/>
				<path style="fill:#FFFFFF;" d="M23.5-41c0,0.1,0,0.1,0,0.2c-0.1,0.1-0.1,0.1-0.2,0.1c-0.1,0.1-0.1,0.3-0.1,0.4
					c-0.2,0.1,0,0.2,0,0.3c0,0,0,0.1,0,0.2c0,0.1,0,0.3,0.1,0.4c0.1,0.2,0.3,0.4,0.4,0.5c0.2,0.1,0.4,0.6,0.6,0.6
					c0.2,0,0.4-0.1,0.5-0.1c0.2,0,0.4,0,0.6-0.1c0.2-0.1,0.1-0.3,0.3-0.5c0.1-0.1,0.3,0,0.4-0.1c0.2-0.1,0.3-0.3,0.4-0.5
					c0-0.1,0-0.1,0-0.2c0-0.1,0.1-0.2,0.1-0.3c0-0.1-0.1-0.1-0.1-0.2c0-0.1,0-0.2,0-0.3c0-0.2,0-0.4-0.1-0.5c-0.4-0.7-1.2-0.9-2-0.8
					c-0.2,0-0.3,0.1-0.4,0.2c-0.2,0.1-0.1,0.2-0.3,0.2c-0.1,0-0.2,0.1-0.2,0.2C23.5-41.1,23.5-41.1,23.5-41C23.5-41,23.5-41,23.5-41
					"/>
				<path style="fill:#FFFFFF;" d="M15.8-41c0,0.1,0,0.1,0,0.2c-0.1,0.1-0.1,0.1-0.2,0.1c-0.1,0.1-0.1,0.3-0.1,0.4
					c-0.2,0.1,0,0.2,0,0.3c0,0,0,0.1,0,0.2c0,0.1,0,0.3,0.1,0.4c0.1,0.2,0.3,0.4,0.4,0.5c0.2,0.1,0.4,0.6,0.6,0.6
					c0.2,0,0.4-0.1,0.5-0.1c0.2,0,0.4,0,0.6-0.1c0.2-0.1,0.1-0.3,0.3-0.5c0.1-0.1,0.3,0,0.4-0.1c0.2-0.1,0.3-0.3,0.4-0.5
					c0-0.1,0-0.1,0-0.2c0-0.1,0.1-0.2,0.1-0.3c0-0.1-0.1-0.1-0.1-0.2c0-0.1,0-0.2,0-0.3c0-0.2,0-0.4-0.1-0.5c-0.4-0.7-1.2-0.9-2-0.8
					c-0.2,0-0.3,0.1-0.4,0.2c-0.2,0.1-0.1,0.2-0.3,0.2c-0.1,0-0.2,0.1-0.2,0.2C15.8-41.1,15.8-41.1,15.8-41C15.8-41,15.8-41,15.8-41
					"/>
				<path style="fill:#FFFFFF;" d="M8.2-41c0,0.1,0,0.1,0,0.2C8.1-40.8,8-40.8,8-40.7c-0.1,0.1-0.1,0.3-0.1,0.4
					c-0.2,0.1,0,0.2,0,0.3c0,0,0,0.1,0,0.2c0,0.1,0,0.3,0.1,0.4c0.1,0.2,0.3,0.4,0.4,0.5c0.2,0.1,0.4,0.6,0.6,0.6
					c0.2,0,0.4-0.1,0.5-0.1c0.2,0,0.4,0,0.6-0.1c0.2-0.1,0.1-0.3,0.3-0.5c0.1-0.1,0.3,0,0.4-0.1c0.2-0.1,0.3-0.3,0.4-0.5
					c0-0.1,0-0.1,0-0.2c0-0.1,0.1-0.2,0.1-0.3c0-0.1-0.1-0.1-0.1-0.2c0-0.1,0-0.2,0-0.3c0-0.2,0-0.4-0.1-0.5c-0.4-0.7-1.2-0.9-2-0.8
					c-0.2,0-0.3,0.1-0.4,0.2c-0.2,0.1-0.1,0.2-0.3,0.2c-0.1,0-0.2,0.1-0.2,0.2C8.2-41.1,8.2-41.1,8.2-41C8.1-41,8.1-41,8.2-41"/>
				<path style="fill:#FFFFFF;" d="M0.5-41c0,0.1,0,0.1,0,0.2c-0.1,0.1-0.1,0.1-0.2,0.1c-0.1,0.1-0.1,0.3-0.1,0.4
					c-0.2,0.1,0,0.2,0,0.3c0,0,0,0.1,0,0.2c0,0.1,0,0.3,0.1,0.4c0.1,0.2,0.3,0.4,0.4,0.5c0.2,0.1,0.4,0.6,0.6,0.6
					c0.2,0,0.4-0.1,0.5-0.1c0.2,0,0.4,0,0.6-0.1c0.2-0.1,0.1-0.3,0.3-0.5C2.8-39,3-39,3.1-39c0.2-0.1,0.3-0.3,0.4-0.5
					c0-0.1,0-0.1,0-0.2c0-0.1,0.1-0.2,0.1-0.3c0-0.1-0.1-0.1-0.1-0.2c0-0.1,0-0.2,0-0.3c0-0.2,0-0.4-0.1-0.5c-0.4-0.7-1.2-0.9-2-0.8
					c-0.2,0-0.3,0.1-0.4,0.2c-0.2,0.1-0.1,0.2-0.3,0.2c-0.1,0-0.2,0.1-0.2,0.2C0.5-41.1,0.5-41.1,0.5-41C0.5-41,0.5-41,0.5-41"/>
			</g>
			<g>
				<path style="fill:#FFFFFF;" d="M69.4-33.4c0,0.1,0,0.1,0,0.2c-0.1,0.1-0.1,0.1-0.2,0.1c-0.1,0.1-0.1,0.3-0.1,0.4
					c-0.2,0.1,0,0.2,0,0.3c0,0,0,0.1,0,0.2c0,0.1,0,0.3,0.1,0.4c0.1,0.2,0.3,0.4,0.4,0.5c0.2,0.1,0.4,0.6,0.6,0.6
					c0.2,0,0.4-0.1,0.5-0.1c0.2,0,0.4,0,0.6-0.1c0.2-0.1,0.1-0.3,0.3-0.5c0.1-0.1,0.3,0,0.4-0.1c0.2-0.1,0.3-0.3,0.4-0.5
					c0-0.1,0-0.1,0-0.2c0-0.1,0.1-0.2,0.1-0.3c0-0.1-0.1-0.1-0.1-0.2c0-0.1,0-0.2,0-0.3c0-0.2,0-0.4-0.1-0.5c-0.4-0.7-1.2-0.9-2-0.8
					c-0.2,0-0.3,0.1-0.4,0.2c-0.2,0.1-0.1,0.2-0.3,0.2c-0.1,0-0.2,0.1-0.2,0.2C69.4-33.4,69.4-33.5,69.4-33.4
					C69.4-33.4,69.4-33.4,69.4-33.4"/>
				<path style="fill:#FFFFFF;" d="M61.8-33.4c0,0.1,0,0.1,0,0.2c-0.1,0.1-0.1,0.1-0.2,0.1c-0.1,0.1-0.1,0.3-0.1,0.4
					c-0.2,0.1,0,0.2,0,0.3c0,0,0,0.1,0,0.2c0,0.1,0,0.3,0.1,0.4c0.1,0.2,0.3,0.4,0.4,0.5c0.2,0.1,0.4,0.6,0.6,0.6
					c0.2,0,0.4-0.1,0.5-0.1c0.2,0,0.4,0,0.6-0.1c0.2-0.1,0.1-0.3,0.3-0.5c0.1-0.1,0.3,0,0.4-0.1c0.2-0.1,0.3-0.3,0.4-0.5
					c0-0.1,0-0.1,0-0.2c0-0.1,0.1-0.2,0.1-0.3c0-0.1-0.1-0.1-0.1-0.2c0-0.1,0-0.2,0-0.3c0-0.2,0-0.4-0.1-0.5c-0.4-0.7-1.2-0.9-2-0.8
					c-0.2,0-0.3,0.1-0.4,0.2c-0.2,0.1-0.1,0.2-0.3,0.2c-0.1,0-0.2,0.1-0.2,0.2C61.8-33.4,61.8-33.5,61.8-33.4
					C61.8-33.4,61.8-33.4,61.8-33.4"/>
				<path style="fill:#FFFFFF;" d="M54.1-33.4c0,0.1,0,0.1,0,0.2c-0.1,0.1-0.1,0.1-0.2,0.1c-0.1,0.1-0.1,0.3-0.1,0.4
					c-0.2,0.1,0,0.2,0,0.3c0,0,0,0.1,0,0.2c0,0.1,0,0.3,0.1,0.4c0.1,0.2,0.3,0.4,0.4,0.5c0.2,0.1,0.4,0.6,0.6,0.6
					c0.2,0,0.4-0.1,0.5-0.1c0.2,0,0.4,0,0.6-0.1c0.2-0.1,0.1-0.3,0.3-0.5c0.1-0.1,0.3,0,0.4-0.1c0.2-0.1,0.3-0.3,0.4-0.5
					c0-0.1,0-0.1,0-0.2c0-0.1,0.1-0.2,0.1-0.3c0-0.1-0.1-0.1-0.1-0.2c0-0.1,0-0.2,0-0.3c0-0.2,0-0.4-0.1-0.5c-0.4-0.7-1.2-0.9-2-0.8
					c-0.2,0-0.3,0.1-0.4,0.2c-0.2,0.1-0.1,0.2-0.3,0.2c-0.1,0-0.2,0.1-0.2,0.2C54.1-33.4,54.1-33.5,54.1-33.4
					C54.1-33.4,54.1-33.4,54.1-33.4"/>
				<path style="fill:#FFFFFF;" d="M46.5-33.4c0,0.1,0,0.1,0,0.2c-0.1,0.1-0.1,0.1-0.2,0.1c-0.1,0.1-0.1,0.3-0.1,0.4
					c-0.2,0.1,0,0.2,0,0.3c0,0,0,0.1,0,0.2c0,0.1,0,0.3,0.1,0.4c0.1,0.2,0.3,0.4,0.4,0.5c0.2,0.1,0.4,0.6,0.6,0.6
					c0.2,0,0.4-0.1,0.5-0.1c0.2,0,0.4,0,0.6-0.1c0.2-0.1,0.1-0.3,0.3-0.5c0.1-0.1,0.3,0,0.4-0.1c0.2-0.1,0.3-0.3,0.4-0.5
					c0-0.1,0-0.1,0-0.2c0-0.1,0.1-0.2,0.1-0.3c0-0.1-0.1-0.1-0.1-0.2c0-0.1,0-0.2,0-0.3c0-0.2,0-0.4-0.1-0.5c-0.4-0.7-1.2-0.9-2-0.8
					c-0.2,0-0.3,0.1-0.4,0.2c-0.2,0.1-0.1,0.2-0.3,0.2c-0.1,0-0.2,0.1-0.2,0.2C46.5-33.4,46.5-33.5,46.5-33.4
					C46.5-33.4,46.5-33.4,46.5-33.4"/>
				<path style="fill:#FFFFFF;" d="M38.8-33.4c0,0.1,0,0.1,0,0.2c-0.1,0.1-0.1,0.1-0.2,0.1c-0.1,0.1-0.1,0.3-0.1,0.4
					c-0.2,0.1,0,0.2,0,0.3c0,0,0,0.1,0,0.2c0,0.1,0,0.3,0.1,0.4c0.1,0.2,0.3,0.4,0.4,0.5c0.2,0.1,0.4,0.6,0.6,0.6
					c0.2,0,0.4-0.1,0.5-0.1c0.2,0,0.4,0,0.6-0.1c0.2-0.1,0.1-0.3,0.3-0.5c0.1-0.1,0.3,0,0.4-0.1c0.2-0.1,0.3-0.3,0.4-0.5
					c0-0.1,0-0.1,0-0.2c0-0.1,0.1-0.2,0.1-0.3c0-0.1-0.1-0.1-0.1-0.2c0-0.1,0-0.2,0-0.3c0-0.2,0-0.4-0.1-0.5c-0.4-0.7-1.2-0.9-2-0.8
					c-0.2,0-0.3,0.1-0.4,0.2c-0.2,0.1-0.1,0.2-0.3,0.2c-0.1,0-0.2,0.1-0.2,0.2C38.8-33.4,38.8-33.5,38.8-33.4
					C38.8-33.4,38.8-33.4,38.8-33.4"/>
				<path style="fill:#FFFFFF;" d="M31.1-33.4c0,0.1,0,0.1,0,0.2c-0.1,0.1-0.1,0.1-0.2,0.1c-0.1,0.1-0.1,0.3-0.1,0.4
					c-0.2,0.1,0,0.2,0,0.3c0,0,0,0.1,0,0.2c0,0.1,0,0.3,0.1,0.4c0.1,0.2,0.3,0.4,0.4,0.5c0.2,0.1,0.4,0.6,0.6,0.6
					c0.2,0,0.4-0.1,0.5-0.1c0.2,0,0.4,0,0.6-0.1c0.2-0.1,0.1-0.3,0.3-0.5c0.1-0.1,0.3,0,0.4-0.1c0.2-0.1,0.3-0.3,0.4-0.5
					c0-0.1,0-0.1,0-0.2c0-0.1,0.1-0.2,0.1-0.3c0-0.1-0.1-0.1-0.1-0.2c0-0.1,0-0.2,0-0.3c0-0.2,0-0.4-0.1-0.5c-0.4-0.7-1.2-0.9-2-0.8
					c-0.2,0-0.3,0.1-0.4,0.2c-0.2,0.1-0.1,0.2-0.3,0.2c-0.1,0-0.2,0.1-0.2,0.2C31.1-33.4,31.1-33.5,31.1-33.4
					C31.1-33.4,31.1-33.4,31.1-33.4"/>
				<path style="fill:#FFFFFF;" d="M23.5-33.4c0,0.1,0,0.1,0,0.2c-0.1,0.1-0.1,0.1-0.2,0.1c-0.1,0.1-0.1,0.3-0.1,0.4
					c-0.2,0.1,0,0.2,0,0.3c0,0,0,0.1,0,0.2c0,0.1,0,0.3,0.1,0.4c0.1,0.2,0.3,0.4,0.4,0.5c0.2,0.1,0.4,0.6,0.6,0.6
					c0.2,0,0.4-0.1,0.5-0.1c0.2,0,0.4,0,0.6-0.1c0.2-0.1,0.1-0.3,0.3-0.5c0.1-0.1,0.3,0,0.4-0.1c0.2-0.1,0.3-0.3,0.4-0.5
					c0-0.1,0-0.1,0-0.2c0-0.1,0.1-0.2,0.1-0.3c0-0.1-0.1-0.1-0.1-0.2c0-0.1,0-0.2,0-0.3c0-0.2,0-0.4-0.1-0.5c-0.4-0.7-1.2-0.9-2-0.8
					c-0.2,0-0.3,0.1-0.4,0.2c-0.2,0.1-0.1,0.2-0.3,0.2c-0.1,0-0.2,0.1-0.2,0.2C23.5-33.4,23.5-33.5,23.5-33.4
					C23.5-33.4,23.5-33.4,23.5-33.4"/>
				<path style="fill:#FFFFFF;" d="M15.8-33.4c0,0.1,0,0.1,0,0.2c-0.1,0.1-0.1,0.1-0.2,0.1c-0.1,0.1-0.1,0.3-0.1,0.4
					c-0.2,0.1,0,0.2,0,0.3c0,0,0,0.1,0,0.2c0,0.1,0,0.3,0.1,0.4c0.1,0.2,0.3,0.4,0.4,0.5c0.2,0.1,0.4,0.6,0.6,0.6
					c0.2,0,0.4-0.1,0.5-0.1c0.2,0,0.4,0,0.6-0.1c0.2-0.1,0.1-0.3,0.3-0.5c0.1-0.1,0.3,0,0.4-0.1c0.2-0.1,0.3-0.3,0.4-0.5
					c0-0.1,0-0.1,0-0.2c0-0.1,0.1-0.2,0.1-0.3c0-0.1-0.1-0.1-0.1-0.2c0-0.1,0-0.2,0-0.3c0-0.2,0-0.4-0.1-0.5c-0.4-0.7-1.2-0.9-2-0.8
					c-0.2,0-0.3,0.1-0.4,0.2c-0.2,0.1-0.1,0.2-0.3,0.2c-0.1,0-0.2,0.1-0.2,0.2C15.8-33.4,15.8-33.5,15.8-33.4
					C15.8-33.4,15.8-33.4,15.8-33.4"/>
				<path style="fill:#FFFFFF;" d="M8.2-33.4c0,0.1,0,0.1,0,0.2C8.1-33.1,8-33.1,8-33.1c-0.1,0.1-0.1,0.3-0.1,0.4
					c-0.2,0.1,0,0.2,0,0.3c0,0,0,0.1,0,0.2c0,0.1,0,0.3,0.1,0.4c0.1,0.2,0.3,0.4,0.4,0.5c0.2,0.1,0.4,0.6,0.6,0.6
					c0.2,0,0.4-0.1,0.5-0.1c0.2,0,0.4,0,0.6-0.1c0.2-0.1,0.1-0.3,0.3-0.5c0.1-0.1,0.3,0,0.4-0.1c0.2-0.1,0.3-0.3,0.4-0.5
					c0-0.1,0-0.1,0-0.2c0-0.1,0.1-0.2,0.1-0.3c0-0.1-0.1-0.1-0.1-0.2c0-0.1,0-0.2,0-0.3c0-0.2,0-0.4-0.1-0.5c-0.4-0.7-1.2-0.9-2-0.8
					c-0.2,0-0.3,0.1-0.4,0.2c-0.2,0.1-0.1,0.2-0.3,0.2c-0.1,0-0.2,0.1-0.2,0.2C8.2-33.4,8.2-33.5,8.2-33.4
					C8.1-33.4,8.1-33.4,8.2-33.4"/>
				<path style="fill:#FFFFFF;" d="M0.5-33.4c0,0.1,0,0.1,0,0.2c-0.1,0.1-0.1,0.1-0.2,0.1c-0.1,0.1-0.1,0.3-0.1,0.4
					c-0.2,0.1,0,0.2,0,0.3c0,0,0,0.1,0,0.2c0,0.1,0,0.3,0.1,0.4c0.1,0.2,0.3,0.4,0.4,0.5c0.2,0.1,0.4,0.6,0.6,0.6
					c0.2,0,0.4-0.1,0.5-0.1c0.2,0,0.4,0,0.6-0.1c0.2-0.1,0.1-0.3,0.3-0.5c0.1-0.1,0.3,0,0.4-0.1c0.2-0.1,0.3-0.3,0.4-0.5
					c0-0.1,0-0.1,0-0.2c0-0.1,0.1-0.2,0.1-0.3c0-0.1-0.1-0.1-0.1-0.2c0-0.1,0-0.2,0-0.3c0-0.2,0-0.4-0.1-0.5c-0.4-0.7-1.2-0.9-2-0.8
					c-0.2,0-0.3,0.1-0.4,0.2c-0.2,0.1-0.1,0.2-0.3,0.2c-0.1,0-0.2,0.1-0.2,0.2C0.5-33.4,0.5-33.5,0.5-33.4
					C0.5-33.4,0.5-33.4,0.5-33.4"/>
			</g>
			<g>
				<path style="fill:#FFFFFF;" d="M69.4-25.7c0,0.1,0,0.1,0,0.2c-0.1,0.1-0.1,0.1-0.2,0.1c-0.1,0.1-0.1,0.3-0.1,0.4
					c-0.2,0.1,0,0.2,0,0.3c0,0,0,0.1,0,0.2c0,0.1,0,0.3,0.1,0.4c0.1,0.2,0.3,0.4,0.4,0.5c0.2,0.1,0.4,0.6,0.6,0.6
					c0.2,0,0.4-0.1,0.5-0.1c0.2,0,0.4,0,0.6-0.1c0.2-0.1,0.1-0.3,0.3-0.5c0.1-0.1,0.3,0,0.4-0.1c0.2-0.1,0.3-0.3,0.4-0.5
					c0-0.1,0-0.1,0-0.2c0-0.1,0.1-0.2,0.1-0.3c0-0.1-0.1-0.1-0.1-0.2c0-0.1,0-0.2,0-0.3c0-0.2,0-0.4-0.1-0.5c-0.4-0.7-1.2-0.9-2-0.8
					c-0.2,0-0.3,0.1-0.4,0.2c-0.2,0.1-0.1,0.2-0.3,0.2c-0.1,0-0.2,0.1-0.2,0.2C69.4-25.8,69.4-25.8,69.4-25.7
					C69.4-25.7,69.4-25.7,69.4-25.7"/>
				<path style="fill:#FFFFFF;" d="M61.8-25.7c0,0.1,0,0.1,0,0.2c-0.1,0.1-0.1,0.1-0.2,0.1c-0.1,0.1-0.1,0.3-0.1,0.4
					c-0.2,0.1,0,0.2,0,0.3c0,0,0,0.1,0,0.2c0,0.1,0,0.3,0.1,0.4c0.1,0.2,0.3,0.4,0.4,0.5c0.2,0.1,0.4,0.6,0.6,0.6
					c0.2,0,0.4-0.1,0.5-0.1c0.2,0,0.4,0,0.6-0.1c0.2-0.1,0.1-0.3,0.3-0.5c0.1-0.1,0.3,0,0.4-0.1c0.2-0.1,0.3-0.3,0.4-0.5
					c0-0.1,0-0.1,0-0.2c0-0.1,0.1-0.2,0.1-0.3c0-0.1-0.1-0.1-0.1-0.2c0-0.1,0-0.2,0-0.3c0-0.2,0-0.4-0.1-0.5c-0.4-0.7-1.2-0.9-2-0.8
					c-0.2,0-0.3,0.1-0.4,0.2c-0.2,0.1-0.1,0.2-0.3,0.2c-0.1,0-0.2,0.1-0.2,0.2C61.8-25.8,61.8-25.8,61.8-25.7
					C61.8-25.7,61.8-25.7,61.8-25.7"/>
				<path style="fill:#FFFFFF;" d="M54.1-25.7c0,0.1,0,0.1,0,0.2c-0.1,0.1-0.1,0.1-0.2,0.1c-0.1,0.1-0.1,0.3-0.1,0.4
					c-0.2,0.1,0,0.2,0,0.3c0,0,0,0.1,0,0.2c0,0.1,0,0.3,0.1,0.4c0.1,0.2,0.3,0.4,0.4,0.5c0.2,0.1,0.4,0.6,0.6,0.6
					c0.2,0,0.4-0.1,0.5-0.1c0.2,0,0.4,0,0.6-0.1c0.2-0.1,0.1-0.3,0.3-0.5c0.1-0.1,0.3,0,0.4-0.1c0.2-0.1,0.3-0.3,0.4-0.5
					c0-0.1,0-0.1,0-0.2c0-0.1,0.1-0.2,0.1-0.3c0-0.1-0.1-0.1-0.1-0.2c0-0.1,0-0.2,0-0.3c0-0.2,0-0.4-0.1-0.5c-0.4-0.7-1.2-0.9-2-0.8
					c-0.2,0-0.3,0.1-0.4,0.2c-0.2,0.1-0.1,0.2-0.3,0.2c-0.1,0-0.2,0.1-0.2,0.2C54.1-25.8,54.1-25.8,54.1-25.7
					C54.1-25.7,54.1-25.7,54.1-25.7"/>
				<path style="fill:#FFFFFF;" d="M46.5-25.7c0,0.1,0,0.1,0,0.2c-0.1,0.1-0.1,0.1-0.2,0.1c-0.1,0.1-0.1,0.3-0.1,0.4
					c-0.2,0.1,0,0.2,0,0.3c0,0,0,0.1,0,0.2c0,0.1,0,0.3,0.1,0.4c0.1,0.2,0.3,0.4,0.4,0.5c0.2,0.1,0.4,0.6,0.6,0.6
					c0.2,0,0.4-0.1,0.5-0.1c0.2,0,0.4,0,0.6-0.1c0.2-0.1,0.1-0.3,0.3-0.5c0.1-0.1,0.3,0,0.4-0.1c0.2-0.1,0.3-0.3,0.4-0.5
					c0-0.1,0-0.1,0-0.2c0-0.1,0.1-0.2,0.1-0.3c0-0.1-0.1-0.1-0.1-0.2c0-0.1,0-0.2,0-0.3c0-0.2,0-0.4-0.1-0.5c-0.4-0.7-1.2-0.9-2-0.8
					c-0.2,0-0.3,0.1-0.4,0.2c-0.2,0.1-0.1,0.2-0.3,0.2c-0.1,0-0.2,0.1-0.2,0.2C46.5-25.8,46.5-25.8,46.5-25.7
					C46.5-25.7,46.5-25.7,46.5-25.7"/>
				<path style="fill:#FFFFFF;" d="M38.8-25.7c0,0.1,0,0.1,0,0.2c-0.1,0.1-0.1,0.1-0.2,0.1c-0.1,0.1-0.1,0.3-0.1,0.4
					c-0.2,0.1,0,0.2,0,0.3c0,0,0,0.1,0,0.2c0,0.1,0,0.3,0.1,0.4c0.1,0.2,0.3,0.4,0.4,0.5c0.2,0.1,0.4,0.6,0.6,0.6
					c0.2,0,0.4-0.1,0.5-0.1c0.2,0,0.4,0,0.6-0.1c0.2-0.1,0.1-0.3,0.3-0.5c0.1-0.1,0.3,0,0.4-0.1c0.2-0.1,0.3-0.3,0.4-0.5
					c0-0.1,0-0.1,0-0.2c0-0.1,0.1-0.2,0.1-0.3c0-0.1-0.1-0.1-0.1-0.2c0-0.1,0-0.2,0-0.3c0-0.2,0-0.4-0.1-0.5c-0.4-0.7-1.2-0.9-2-0.8
					c-0.2,0-0.3,0.1-0.4,0.2c-0.2,0.1-0.1,0.2-0.3,0.2c-0.1,0-0.2,0.1-0.2,0.2C38.8-25.8,38.8-25.8,38.8-25.7
					C38.8-25.7,38.8-25.7,38.8-25.7"/>
				<path style="fill:#FFFFFF;" d="M31.1-25.7c0,0.1,0,0.1,0,0.2c-0.1,0.1-0.1,0.1-0.2,0.1c-0.1,0.1-0.1,0.3-0.1,0.4
					c-0.2,0.1,0,0.2,0,0.3c0,0,0,0.1,0,0.2c0,0.1,0,0.3,0.1,0.4c0.1,0.2,0.3,0.4,0.4,0.5c0.2,0.1,0.4,0.6,0.6,0.6
					c0.2,0,0.4-0.1,0.5-0.1c0.2,0,0.4,0,0.6-0.1c0.2-0.1,0.1-0.3,0.3-0.5c0.1-0.1,0.3,0,0.4-0.1c0.2-0.1,0.3-0.3,0.4-0.5
					c0-0.1,0-0.1,0-0.2c0-0.1,0.1-0.2,0.1-0.3c0-0.1-0.1-0.1-0.1-0.2c0-0.1,0-0.2,0-0.3c0-0.2,0-0.4-0.1-0.5c-0.4-0.7-1.2-0.9-2-0.8
					c-0.2,0-0.3,0.1-0.4,0.2c-0.2,0.1-0.1,0.2-0.3,0.2c-0.1,0-0.2,0.1-0.2,0.2C31.1-25.8,31.1-25.8,31.1-25.7
					C31.1-25.7,31.1-25.7,31.1-25.7"/>
				<path style="fill:#FFFFFF;" d="M23.5-25.7c0,0.1,0,0.1,0,0.2c-0.1,0.1-0.1,0.1-0.2,0.1c-0.1,0.1-0.1,0.3-0.1,0.4
					c-0.2,0.1,0,0.2,0,0.3c0,0,0,0.1,0,0.2c0,0.1,0,0.3,0.1,0.4c0.1,0.2,0.3,0.4,0.4,0.5c0.2,0.1,0.4,0.6,0.6,0.6
					c0.2,0,0.4-0.1,0.5-0.1c0.2,0,0.4,0,0.6-0.1c0.2-0.1,0.1-0.3,0.3-0.5c0.1-0.1,0.3,0,0.4-0.1c0.2-0.1,0.3-0.3,0.4-0.5
					c0-0.1,0-0.1,0-0.2c0-0.1,0.1-0.2,0.1-0.3c0-0.1-0.1-0.1-0.1-0.2c0-0.1,0-0.2,0-0.3c0-0.2,0-0.4-0.1-0.5c-0.4-0.7-1.2-0.9-2-0.8
					c-0.2,0-0.3,0.1-0.4,0.2c-0.2,0.1-0.1,0.2-0.3,0.2c-0.1,0-0.2,0.1-0.2,0.2C23.5-25.8,23.5-25.8,23.5-25.7
					C23.5-25.7,23.5-25.7,23.5-25.7"/>
				<path style="fill:#FFFFFF;" d="M15.8-25.7c0,0.1,0,0.1,0,0.2c-0.1,0.1-0.1,0.1-0.2,0.1c-0.1,0.1-0.1,0.3-0.1,0.4
					c-0.2,0.1,0,0.2,0,0.3c0,0,0,0.1,0,0.2c0,0.1,0,0.3,0.1,0.4c0.1,0.2,0.3,0.4,0.4,0.5c0.2,0.1,0.4,0.6,0.6,0.6
					c0.2,0,0.4-0.1,0.5-0.1c0.2,0,0.4,0,0.6-0.1c0.2-0.1,0.1-0.3,0.3-0.5c0.1-0.1,0.3,0,0.4-0.1c0.2-0.1,0.3-0.3,0.4-0.5
					c0-0.1,0-0.1,0-0.2c0-0.1,0.1-0.2,0.1-0.3c0-0.1-0.1-0.1-0.1-0.2c0-0.1,0-0.2,0-0.3c0-0.2,0-0.4-0.1-0.5c-0.4-0.7-1.2-0.9-2-0.8
					c-0.2,0-0.3,0.1-0.4,0.2c-0.2,0.1-0.1,0.2-0.3,0.2c-0.1,0-0.2,0.1-0.2,0.2C15.8-25.8,15.8-25.8,15.8-25.7
					C15.8-25.7,15.8-25.7,15.8-25.7"/>
				<path style="fill:#FFFFFF;" d="M8.2-25.7c0,0.1,0,0.1,0,0.2C8.1-25.4,8-25.5,8-25.4c-0.1,0.1-0.1,0.3-0.1,0.4
					c-0.2,0.1,0,0.2,0,0.3c0,0,0,0.1,0,0.2c0,0.1,0,0.3,0.1,0.4C8-24,8.2-23.8,8.3-23.6c0.2,0.1,0.4,0.6,0.6,0.6
					c0.2,0,0.4-0.1,0.5-0.1c0.2,0,0.4,0,0.6-0.1c0.2-0.1,0.1-0.3,0.3-0.5c0.1-0.1,0.3,0,0.4-0.1c0.2-0.1,0.3-0.3,0.4-0.5
					c0-0.1,0-0.1,0-0.2c0-0.1,0.1-0.2,0.1-0.3c0-0.1-0.1-0.1-0.1-0.2c0-0.1,0-0.2,0-0.3c0-0.2,0-0.4-0.1-0.5c-0.4-0.7-1.2-0.9-2-0.8
					c-0.2,0-0.3,0.1-0.4,0.2c-0.2,0.1-0.1,0.2-0.3,0.2c-0.1,0-0.2,0.1-0.2,0.2C8.2-25.8,8.2-25.8,8.2-25.7
					C8.1-25.7,8.1-25.7,8.2-25.7"/>
				<path style="fill:#FFFFFF;" d="M0.5-25.7c0,0.1,0,0.1,0,0.2c-0.1,0.1-0.1,0.1-0.2,0.1c-0.1,0.1-0.1,0.3-0.1,0.4
					c-0.2,0.1,0,0.2,0,0.3c0,0,0,0.1,0,0.2c0,0.1,0,0.3,0.1,0.4c0.1,0.2,0.3,0.4,0.4,0.5C0.9-23.5,1-23.1,1.3-23
					c0.2,0,0.4-0.1,0.5-0.1c0.2,0,0.4,0,0.6-0.1c0.2-0.1,0.1-0.3,0.3-0.5c0.1-0.1,0.3,0,0.4-0.1c0.2-0.1,0.3-0.3,0.4-0.5
					c0-0.1,0-0.1,0-0.2c0-0.1,0.1-0.2,0.1-0.3c0-0.1-0.1-0.1-0.1-0.2c0-0.1,0-0.2,0-0.3c0-0.2,0-0.4-0.1-0.5c-0.4-0.7-1.2-0.9-2-0.8
					c-0.2,0-0.3,0.1-0.4,0.2c-0.2,0.1-0.1,0.2-0.3,0.2c-0.1,0-0.2,0.1-0.2,0.2C0.5-25.8,0.5-25.8,0.5-25.7
					C0.5-25.7,0.5-25.7,0.5-25.7"/>
			</g>
			<g>
				<path style="fill:#FFFFFF;" d="M69.4-18.1c0,0.1,0,0.1,0,0.2c-0.1,0.1-0.1,0.1-0.2,0.1c-0.1,0.1-0.1,0.3-0.1,0.4
					c-0.2,0.1,0,0.2,0,0.3c0,0,0,0.1,0,0.2c0,0.1,0,0.3,0.1,0.4c0.1,0.2,0.3,0.4,0.4,0.5c0.2,0.1,0.4,0.6,0.6,0.6
					c0.2,0,0.4-0.1,0.5-0.1c0.2,0,0.4,0,0.6-0.1c0.2-0.1,0.1-0.3,0.3-0.5c0.1-0.1,0.3,0,0.4-0.1c0.2-0.1,0.3-0.3,0.4-0.5
					c0-0.1,0-0.1,0-0.2c0-0.1,0.1-0.2,0.1-0.3c0-0.1-0.1-0.1-0.1-0.2c0-0.1,0-0.2,0-0.3c0-0.2,0-0.4-0.1-0.5c-0.4-0.7-1.2-0.9-2-0.8
					c-0.2,0-0.3,0.1-0.4,0.2c-0.2,0.1-0.1,0.2-0.3,0.2c-0.1,0-0.2,0.1-0.2,0.2C69.4-18.1,69.4-18.2,69.4-18.1
					C69.4-18,69.4-18.1,69.4-18.1"/>
				<path style="fill:#FFFFFF;" d="M61.8-18.1c0,0.1,0,0.1,0,0.2c-0.1,0.1-0.1,0.1-0.2,0.1c-0.1,0.1-0.1,0.3-0.1,0.4
					c-0.2,0.1,0,0.2,0,0.3c0,0,0,0.1,0,0.2c0,0.1,0,0.3,0.1,0.4c0.1,0.2,0.3,0.4,0.4,0.5c0.2,0.1,0.4,0.6,0.6,0.6
					c0.2,0,0.4-0.1,0.5-0.1c0.2,0,0.4,0,0.6-0.1c0.2-0.1,0.1-0.3,0.3-0.5c0.1-0.1,0.3,0,0.4-0.1c0.2-0.1,0.3-0.3,0.4-0.5
					c0-0.1,0-0.1,0-0.2c0-0.1,0.1-0.2,0.1-0.3c0-0.1-0.1-0.1-0.1-0.2c0-0.1,0-0.2,0-0.3c0-0.2,0-0.4-0.1-0.5c-0.4-0.7-1.2-0.9-2-0.8
					c-0.2,0-0.3,0.1-0.4,0.2c-0.2,0.1-0.1,0.2-0.3,0.2c-0.1,0-0.2,0.1-0.2,0.2C61.8-18.1,61.8-18.2,61.8-18.1
					C61.8-18,61.8-18.1,61.8-18.1"/>
				<path style="fill:#FFFFFF;" d="M54.1-18.1c0,0.1,0,0.1,0,0.2c-0.1,0.1-0.1,0.1-0.2,0.1c-0.1,0.1-0.1,0.3-0.1,0.4
					c-0.2,0.1,0,0.2,0,0.3c0,0,0,0.1,0,0.2c0,0.1,0,0.3,0.1,0.4c0.1,0.2,0.3,0.4,0.4,0.5c0.2,0.1,0.4,0.6,0.6,0.6
					c0.2,0,0.4-0.1,0.5-0.1c0.2,0,0.4,0,0.6-0.1c0.2-0.1,0.1-0.3,0.3-0.5c0.1-0.1,0.3,0,0.4-0.1c0.2-0.1,0.3-0.3,0.4-0.5
					c0-0.1,0-0.1,0-0.2c0-0.1,0.1-0.2,0.1-0.3c0-0.1-0.1-0.1-0.1-0.2c0-0.1,0-0.2,0-0.3c0-0.2,0-0.4-0.1-0.5c-0.4-0.7-1.2-0.9-2-0.8
					c-0.2,0-0.3,0.1-0.4,0.2c-0.2,0.1-0.1,0.2-0.3,0.2c-0.1,0-0.2,0.1-0.2,0.2C54.1-18.1,54.1-18.2,54.1-18.1
					C54.1-18,54.1-18.1,54.1-18.1"/>
				<path style="fill:#FFFFFF;" d="M46.5-18.1c0,0.1,0,0.1,0,0.2c-0.1,0.1-0.1,0.1-0.2,0.1c-0.1,0.1-0.1,0.3-0.1,0.4
					c-0.2,0.1,0,0.2,0,0.3c0,0,0,0.1,0,0.2c0,0.1,0,0.3,0.1,0.4c0.1,0.2,0.3,0.4,0.4,0.5c0.2,0.1,0.4,0.6,0.6,0.6
					c0.2,0,0.4-0.1,0.5-0.1c0.2,0,0.4,0,0.6-0.1c0.2-0.1,0.1-0.3,0.3-0.5c0.1-0.1,0.3,0,0.4-0.1c0.2-0.1,0.3-0.3,0.4-0.5
					c0-0.1,0-0.1,0-0.2c0-0.1,0.1-0.2,0.1-0.3c0-0.1-0.1-0.1-0.1-0.2c0-0.1,0-0.2,0-0.3c0-0.2,0-0.4-0.1-0.5c-0.4-0.7-1.2-0.9-2-0.8
					c-0.2,0-0.3,0.1-0.4,0.2c-0.2,0.1-0.1,0.2-0.3,0.2c-0.1,0-0.2,0.1-0.2,0.2C46.5-18.1,46.5-18.2,46.5-18.1
					C46.5-18,46.5-18.1,46.5-18.1"/>
				<path style="fill:#FFFFFF;" d="M38.8-18.1c0,0.1,0,0.1,0,0.2c-0.1,0.1-0.1,0.1-0.2,0.1c-0.1,0.1-0.1,0.3-0.1,0.4
					c-0.2,0.1,0,0.2,0,0.3c0,0,0,0.1,0,0.2c0,0.1,0,0.3,0.1,0.4c0.1,0.2,0.3,0.4,0.4,0.5c0.2,0.1,0.4,0.6,0.6,0.6
					c0.2,0,0.4-0.1,0.5-0.1c0.2,0,0.4,0,0.6-0.1c0.2-0.1,0.1-0.3,0.3-0.5c0.1-0.1,0.3,0,0.4-0.1c0.2-0.1,0.3-0.3,0.4-0.5
					c0-0.1,0-0.1,0-0.2c0-0.1,0.1-0.2,0.1-0.3c0-0.1-0.1-0.1-0.1-0.2c0-0.1,0-0.2,0-0.3c0-0.2,0-0.4-0.1-0.5c-0.4-0.7-1.2-0.9-2-0.8
					c-0.2,0-0.3,0.1-0.4,0.2c-0.2,0.1-0.1,0.2-0.3,0.2c-0.1,0-0.2,0.1-0.2,0.2C38.8-18.1,38.8-18.2,38.8-18.1
					C38.8-18,38.8-18.1,38.8-18.1"/>
				<path style="fill:#FFFFFF;" d="M31.1-18.1c0,0.1,0,0.1,0,0.2c-0.1,0.1-0.1,0.1-0.2,0.1c-0.1,0.1-0.1,0.3-0.1,0.4
					c-0.2,0.1,0,0.2,0,0.3c0,0,0,0.1,0,0.2c0,0.1,0,0.3,0.1,0.4c0.1,0.2,0.3,0.4,0.4,0.5c0.2,0.1,0.4,0.6,0.6,0.6
					c0.2,0,0.4-0.1,0.5-0.1c0.2,0,0.4,0,0.6-0.1c0.2-0.1,0.1-0.3,0.3-0.5c0.1-0.1,0.3,0,0.4-0.1c0.2-0.1,0.3-0.3,0.4-0.5
					c0-0.1,0-0.1,0-0.2c0-0.1,0.1-0.2,0.1-0.3c0-0.1-0.1-0.1-0.1-0.2c0-0.1,0-0.2,0-0.3c0-0.2,0-0.4-0.1-0.5c-0.4-0.7-1.2-0.9-2-0.8
					c-0.2,0-0.3,0.1-0.4,0.2c-0.2,0.1-0.1,0.2-0.3,0.2c-0.1,0-0.2,0.1-0.2,0.2C31.1-18.1,31.1-18.2,31.1-18.1
					C31.1-18,31.1-18.1,31.1-18.1"/>
				<path style="fill:#FFFFFF;" d="M23.5-18.1c0,0.1,0,0.1,0,0.2c-0.1,0.1-0.1,0.1-0.2,0.1c-0.1,0.1-0.1,0.3-0.1,0.4
					c-0.2,0.1,0,0.2,0,0.3c0,0,0,0.1,0,0.2c0,0.1,0,0.3,0.1,0.4c0.1,0.2,0.3,0.4,0.4,0.5c0.2,0.1,0.4,0.6,0.6,0.6
					c0.2,0,0.4-0.1,0.5-0.1c0.2,0,0.4,0,0.6-0.1c0.2-0.1,0.1-0.3,0.3-0.5c0.1-0.1,0.3,0,0.4-0.1c0.2-0.1,0.3-0.3,0.4-0.5
					c0-0.1,0-0.1,0-0.2c0-0.1,0.1-0.2,0.1-0.3c0-0.1-0.1-0.1-0.1-0.2c0-0.1,0-0.2,0-0.3c0-0.2,0-0.4-0.1-0.5c-0.4-0.7-1.2-0.9-2-0.8
					c-0.2,0-0.3,0.1-0.4,0.2c-0.2,0.1-0.1,0.2-0.3,0.2c-0.1,0-0.2,0.1-0.2,0.2C23.5-18.1,23.5-18.2,23.5-18.1
					C23.5-18,23.5-18.1,23.5-18.1"/>
				<path style="fill:#FFFFFF;" d="M15.8-18.1c0,0.1,0,0.1,0,0.2c-0.1,0.1-0.1,0.1-0.2,0.1c-0.1,0.1-0.1,0.3-0.1,0.4
					c-0.2,0.1,0,0.2,0,0.3c0,0,0,0.1,0,0.2c0,0.1,0,0.3,0.1,0.4c0.1,0.2,0.3,0.4,0.4,0.5c0.2,0.1,0.4,0.6,0.6,0.6
					c0.2,0,0.4-0.1,0.5-0.1c0.2,0,0.4,0,0.6-0.1c0.2-0.1,0.1-0.3,0.3-0.5c0.1-0.1,0.3,0,0.4-0.1c0.2-0.1,0.3-0.3,0.4-0.5
					c0-0.1,0-0.1,0-0.2c0-0.1,0.1-0.2,0.1-0.3c0-0.1-0.1-0.1-0.1-0.2c0-0.1,0-0.2,0-0.3c0-0.2,0-0.4-0.1-0.5c-0.4-0.7-1.2-0.9-2-0.8
					c-0.2,0-0.3,0.1-0.4,0.2c-0.2,0.1-0.1,0.2-0.3,0.2c-0.1,0-0.2,0.1-0.2,0.2C15.8-18.1,15.8-18.2,15.8-18.1
					C15.8-18,15.8-18.1,15.8-18.1"/>
				<path style="fill:#FFFFFF;" d="M8.2-18.1c0,0.1,0,0.1,0,0.2C8.1-17.8,8-17.8,8-17.8c-0.1,0.1-0.1,0.3-0.1,0.4
					c-0.2,0.1,0,0.2,0,0.3c0,0,0,0.1,0,0.2c0,0.1,0,0.3,0.1,0.4C8-16.3,8.2-16.1,8.3-16c0.2,0.1,0.4,0.6,0.6,0.6
					c0.2,0,0.4-0.1,0.5-0.1c0.2,0,0.4,0,0.6-0.1c0.2-0.1,0.1-0.3,0.3-0.5c0.1-0.1,0.3,0,0.4-0.1c0.2-0.1,0.3-0.3,0.4-0.5
					c0-0.1,0-0.1,0-0.2c0-0.1,0.1-0.2,0.1-0.3c0-0.1-0.1-0.1-0.1-0.2c0-0.1,0-0.2,0-0.3c0-0.2,0-0.4-0.1-0.5c-0.4-0.7-1.2-0.9-2-0.8
					c-0.2,0-0.3,0.1-0.4,0.2c-0.2,0.1-0.1,0.2-0.3,0.2c-0.1,0-0.2,0.1-0.2,0.2C8.2-18.1,8.2-18.2,8.2-18.1C8.1-18,8.1-18.1,8.2-18.1
					"/>
				<path style="fill:#FFFFFF;" d="M0.5-18.1c0,0.1,0,0.1,0,0.2c-0.1,0.1-0.1,0.1-0.2,0.1c-0.1,0.1-0.1,0.3-0.1,0.4
					c-0.2,0.1,0,0.2,0,0.3c0,0,0,0.1,0,0.2c0,0.1,0,0.3,0.1,0.4c0.1,0.2,0.3,0.4,0.4,0.5c0.2,0.1,0.4,0.6,0.6,0.6
					c0.2,0,0.4-0.1,0.5-0.1c0.2,0,0.4,0,0.6-0.1c0.2-0.1,0.1-0.3,0.3-0.5C2.8-16.1,3-16,3.1-16c0.2-0.1,0.3-0.3,0.4-0.5
					c0-0.1,0-0.1,0-0.2c0-0.1,0.1-0.2,0.1-0.3c0-0.1-0.1-0.1-0.1-0.2c0-0.1,0-0.2,0-0.3c0-0.2,0-0.4-0.1-0.5c-0.4-0.7-1.2-0.9-2-0.8
					c-0.2,0-0.3,0.1-0.4,0.2c-0.2,0.1-0.1,0.2-0.3,0.2c-0.1,0-0.2,0.1-0.2,0.2C0.5-18.1,0.5-18.2,0.5-18.1C0.5-18,0.5-18.1,0.5-18.1
					"/>
			</g>
			<g>
				<path style="fill:#FFFFFF;" d="M69.4-10.4c0,0.1,0,0.1,0,0.2c-0.1,0.1-0.1,0.1-0.2,0.1c-0.1,0.1-0.1,0.3-0.1,0.4
					c-0.2,0.1,0,0.2,0,0.3c0,0,0,0.1,0,0.2c0,0.1,0,0.3,0.1,0.4c0.1,0.2,0.3,0.4,0.4,0.5c0.2,0.1,0.4,0.6,0.6,0.6
					c0.2,0,0.4-0.1,0.5-0.1c0.2,0,0.4,0,0.6-0.1c0.2-0.1,0.1-0.3,0.3-0.5c0.1-0.1,0.3,0,0.4-0.1c0.2-0.1,0.3-0.3,0.4-0.5
					c0-0.1,0-0.1,0-0.2c0-0.1,0.1-0.2,0.1-0.3c0-0.1-0.1-0.1-0.1-0.2c0-0.1,0-0.2,0-0.3c0-0.2,0-0.4-0.1-0.5c-0.4-0.7-1.2-0.9-2-0.8
					c-0.2,0-0.3,0.1-0.4,0.2c-0.2,0.1-0.1,0.2-0.3,0.2c-0.1,0-0.2,0.1-0.2,0.2C69.4-10.5,69.4-10.5,69.4-10.4
					C69.4-10.4,69.4-10.4,69.4-10.4"/>
				<path style="fill:#FFFFFF;" d="M61.8-10.4c0,0.1,0,0.1,0,0.2c-0.1,0.1-0.1,0.1-0.2,0.1c-0.1,0.1-0.1,0.3-0.1,0.4
					c-0.2,0.1,0,0.2,0,0.3c0,0,0,0.1,0,0.2c0,0.1,0,0.3,0.1,0.4c0.1,0.2,0.3,0.4,0.4,0.5c0.2,0.1,0.4,0.6,0.6,0.6
					c0.2,0,0.4-0.1,0.5-0.1c0.2,0,0.4,0,0.6-0.1C63.9-8,63.8-8.2,64-8.3c0.1-0.1,0.3,0,0.4-0.1c0.2-0.1,0.3-0.3,0.4-0.5
					c0-0.1,0-0.1,0-0.2c0-0.1,0.1-0.2,0.1-0.3c0-0.1-0.1-0.1-0.1-0.2c0-0.1,0-0.2,0-0.3c0-0.2,0-0.4-0.1-0.5c-0.4-0.7-1.2-0.9-2-0.8
					c-0.2,0-0.3,0.1-0.4,0.2c-0.2,0.1-0.1,0.2-0.3,0.2c-0.1,0-0.2,0.1-0.2,0.2C61.8-10.5,61.8-10.5,61.8-10.4
					C61.8-10.4,61.8-10.4,61.8-10.4"/>
				<path style="fill:#FFFFFF;" d="M54.1-10.4c0,0.1,0,0.1,0,0.2c-0.1,0.1-0.1,0.1-0.2,0.1c-0.1,0.1-0.1,0.3-0.1,0.4
					c-0.2,0.1,0,0.2,0,0.3c0,0,0,0.1,0,0.2c0,0.1,0,0.3,0.1,0.4c0.1,0.2,0.3,0.4,0.4,0.5c0.2,0.1,0.4,0.6,0.6,0.6
					c0.2,0,0.4-0.1,0.5-0.1c0.2,0,0.4,0,0.6-0.1c0.2-0.1,0.1-0.3,0.3-0.5c0.1-0.1,0.3,0,0.4-0.1c0.2-0.1,0.3-0.3,0.4-0.5
					c0-0.1,0-0.1,0-0.2c0-0.1,0.1-0.2,0.1-0.3c0-0.1-0.1-0.1-0.1-0.2c0-0.1,0-0.2,0-0.3c0-0.2,0-0.4-0.1-0.5c-0.4-0.7-1.2-0.9-2-0.8
					c-0.2,0-0.3,0.1-0.4,0.2c-0.2,0.1-0.1,0.2-0.3,0.2c-0.1,0-0.2,0.1-0.2,0.2C54.1-10.5,54.1-10.5,54.1-10.4
					C54.1-10.4,54.1-10.4,54.1-10.4"/>
				<path style="fill:#FFFFFF;" d="M46.5-10.4c0,0.1,0,0.1,0,0.2c-0.1,0.1-0.1,0.1-0.2,0.1c-0.1,0.1-0.1,0.3-0.1,0.4
					c-0.2,0.1,0,0.2,0,0.3c0,0,0,0.1,0,0.2c0,0.1,0,0.3,0.1,0.4c0.1,0.2,0.3,0.4,0.4,0.5c0.2,0.1,0.4,0.6,0.6,0.6
					c0.2,0,0.4-0.1,0.5-0.1c0.2,0,0.4,0,0.6-0.1c0.2-0.1,0.1-0.3,0.3-0.5c0.1-0.1,0.3,0,0.4-0.1c0.2-0.1,0.3-0.3,0.4-0.5
					c0-0.1,0-0.1,0-0.2c0-0.1,0.1-0.2,0.1-0.3c0-0.1-0.1-0.1-0.1-0.2c0-0.1,0-0.2,0-0.3c0-0.2,0-0.4-0.1-0.5c-0.4-0.7-1.2-0.9-2-0.8
					c-0.2,0-0.3,0.1-0.4,0.2c-0.2,0.1-0.1,0.2-0.3,0.2c-0.1,0-0.2,0.1-0.2,0.2C46.5-10.5,46.5-10.5,46.5-10.4
					C46.5-10.4,46.5-10.4,46.5-10.4"/>
				<path style="fill:#FFFFFF;" d="M38.8-10.4c0,0.1,0,0.1,0,0.2c-0.1,0.1-0.1,0.1-0.2,0.1c-0.1,0.1-0.1,0.3-0.1,0.4
					c-0.2,0.1,0,0.2,0,0.3c0,0,0,0.1,0,0.2c0,0.1,0,0.3,0.1,0.4c0.1,0.2,0.3,0.4,0.4,0.5c0.2,0.1,0.4,0.6,0.6,0.6
					c0.2,0,0.4-0.1,0.5-0.1c0.2,0,0.4,0,0.6-0.1C40.9-8,40.8-8.2,41-8.3c0.1-0.1,0.3,0,0.4-0.1c0.2-0.1,0.3-0.3,0.4-0.5
					c0-0.1,0-0.1,0-0.2c0-0.1,0.1-0.2,0.1-0.3c0-0.1-0.1-0.1-0.1-0.2c0-0.1,0-0.2,0-0.3c0-0.2,0-0.4-0.1-0.5c-0.4-0.7-1.2-0.9-2-0.8
					c-0.2,0-0.3,0.1-0.4,0.2c-0.2,0.1-0.1,0.2-0.3,0.2c-0.1,0-0.2,0.1-0.2,0.2C38.8-10.5,38.8-10.5,38.8-10.4
					C38.8-10.4,38.8-10.4,38.8-10.4"/>
				<path style="fill:#FFFFFF;" d="M31.1-10.4c0,0.1,0,0.1,0,0.2c-0.1,0.1-0.1,0.1-0.2,0.1c-0.1,0.1-0.1,0.3-0.1,0.4
					c-0.2,0.1,0,0.2,0,0.3c0,0,0,0.1,0,0.2c0,0.1,0,0.3,0.1,0.4c0.1,0.2,0.3,0.4,0.4,0.5c0.2,0.1,0.4,0.6,0.6,0.6
					c0.2,0,0.4-0.1,0.5-0.1c0.2,0,0.4,0,0.6-0.1c0.2-0.1,0.1-0.3,0.3-0.5c0.1-0.1,0.3,0,0.4-0.1c0.2-0.1,0.3-0.3,0.4-0.5
					c0-0.1,0-0.1,0-0.2c0-0.1,0.1-0.2,0.1-0.3c0-0.1-0.1-0.1-0.1-0.2c0-0.1,0-0.2,0-0.3c0-0.2,0-0.4-0.1-0.5c-0.4-0.7-1.2-0.9-2-0.8
					c-0.2,0-0.3,0.1-0.4,0.2c-0.2,0.1-0.1,0.2-0.3,0.2c-0.1,0-0.2,0.1-0.2,0.2C31.1-10.5,31.1-10.5,31.1-10.4
					C31.1-10.4,31.1-10.4,31.1-10.4"/>
				<path style="fill:#FFFFFF;" d="M23.5-10.4c0,0.1,0,0.1,0,0.2c-0.1,0.1-0.1,0.1-0.2,0.1c-0.1,0.1-0.1,0.3-0.1,0.4
					c-0.2,0.1,0,0.2,0,0.3c0,0,0,0.1,0,0.2c0,0.1,0,0.3,0.1,0.4c0.1,0.2,0.3,0.4,0.4,0.5c0.2,0.1,0.4,0.6,0.6,0.6
					c0.2,0,0.4-0.1,0.5-0.1c0.2,0,0.4,0,0.6-0.1c0.2-0.1,0.1-0.3,0.3-0.5c0.1-0.1,0.3,0,0.4-0.1c0.2-0.1,0.3-0.3,0.4-0.5
					c0-0.1,0-0.1,0-0.2c0-0.1,0.1-0.2,0.1-0.3c0-0.1-0.1-0.1-0.1-0.2c0-0.1,0-0.2,0-0.3c0-0.2,0-0.4-0.1-0.5c-0.4-0.7-1.2-0.9-2-0.8
					c-0.2,0-0.3,0.1-0.4,0.2c-0.2,0.1-0.1,0.2-0.3,0.2c-0.1,0-0.2,0.1-0.2,0.2C23.5-10.5,23.5-10.5,23.5-10.4
					C23.5-10.4,23.5-10.4,23.5-10.4"/>
				<path style="fill:#FFFFFF;" d="M15.8-10.4c0,0.1,0,0.1,0,0.2c-0.1,0.1-0.1,0.1-0.2,0.1c-0.1,0.1-0.1,0.3-0.1,0.4
					c-0.2,0.1,0,0.2,0,0.3c0,0,0,0.1,0,0.2c0,0.1,0,0.3,0.1,0.4c0.1,0.2,0.3,0.4,0.4,0.5c0.2,0.1,0.4,0.6,0.6,0.6
					c0.2,0,0.4-0.1,0.5-0.1c0.2,0,0.4,0,0.6-0.1C17.9-8,17.8-8.2,18-8.3c0.1-0.1,0.3,0,0.4-0.1c0.2-0.1,0.3-0.3,0.4-0.5
					c0-0.1,0-0.1,0-0.2c0-0.1,0.1-0.2,0.1-0.3c0-0.1-0.1-0.1-0.1-0.2c0-0.1,0-0.2,0-0.3c0-0.2,0-0.4-0.1-0.5c-0.4-0.7-1.2-0.9-2-0.8
					c-0.2,0-0.3,0.1-0.4,0.2c-0.2,0.1-0.1,0.2-0.3,0.2c-0.1,0-0.2,0.1-0.2,0.2C15.8-10.5,15.8-10.5,15.8-10.4
					C15.8-10.4,15.8-10.4,15.8-10.4"/>
				<path style="fill:#FFFFFF;" d="M8.2-10.4c0,0.1,0,0.1,0,0.2C8.1-10.1,8-10.2,8-10.1C7.9-10,7.9-9.8,7.9-9.8
					c-0.2,0.1,0,0.2,0,0.3c0,0,0,0.1,0,0.2c0,0.1,0,0.3,0.1,0.4C8-8.7,8.2-8.5,8.3-8.3c0.2,0.1,0.4,0.6,0.6,0.6
					c0.2,0,0.4-0.1,0.5-0.1c0.2,0,0.4,0,0.6-0.1c0.2-0.1,0.1-0.3,0.3-0.5c0.1-0.1,0.3,0,0.4-0.1c0.2-0.1,0.3-0.3,0.4-0.5
					c0-0.1,0-0.1,0-0.2c0-0.1,0.1-0.2,0.1-0.3c0-0.1-0.1-0.1-0.1-0.2c0-0.1,0-0.2,0-0.3c0-0.2,0-0.4-0.1-0.5c-0.4-0.7-1.2-0.9-2-0.8
					c-0.2,0-0.3,0.1-0.4,0.2c-0.2,0.1-0.1,0.2-0.3,0.2c-0.1,0-0.2,0.1-0.2,0.2C8.2-10.5,8.2-10.5,8.2-10.4
					C8.1-10.4,8.1-10.4,8.2-10.4"/>
				<path style="fill:#FFFFFF;" d="M0.5-10.4c0,0.1,0,0.1,0,0.2c-0.1,0.1-0.1,0.1-0.2,0.1C0.3-10,0.2-9.8,0.2-9.8
					c-0.2,0.1,0,0.2,0,0.3c0,0,0,0.1,0,0.2c0,0.1,0,0.3,0.1,0.4c0.1,0.2,0.3,0.4,0.4,0.5C0.9-8.2,1-7.8,1.3-7.7
					c0.2,0,0.4-0.1,0.5-0.1c0.2,0,0.4,0,0.6-0.1C2.6-8,2.5-8.2,2.7-8.3c0.1-0.1,0.3,0,0.4-0.1c0.2-0.1,0.3-0.3,0.4-0.5
					c0-0.1,0-0.1,0-0.2c0-0.1,0.1-0.2,0.1-0.3c0-0.1-0.1-0.1-0.1-0.2c0-0.1,0-0.2,0-0.3c0-0.2,0-0.4-0.1-0.5c-0.4-0.7-1.2-0.9-2-0.8
					c-0.2,0-0.3,0.1-0.4,0.2c-0.2,0.1-0.1,0.2-0.3,0.2c-0.1,0-0.2,0.1-0.2,0.2C0.5-10.5,0.5-10.5,0.5-10.4
					C0.5-10.4,0.5-10.4,0.5-10.4"/>
			</g>
		</g>
		<g>
			<path style="fill:#FFFFFF;" d="M69.4-2.8c0,0.1,0,0.1,0,0.2c-0.1,0.1-0.1,0.1-0.2,0.1c-0.1,0.1-0.1,0.3-0.1,0.4
				c-0.2,0.1,0,0.2,0,0.3c0,0,0,0.1,0,0.2c0,0.1,0,0.3,0.1,0.4c0.1,0.2,0.3,0.4,0.4,0.5C69.8-0.5,70-0.1,70.2,0
				c0.2,0,0.4-0.1,0.5-0.1c0.2,0,0.4,0,0.6-0.1c0.2-0.1,0.1-0.3,0.3-0.5c0.1-0.1,0.3,0,0.4-0.1c0.2-0.1,0.3-0.3,0.4-0.5
				c0-0.1,0-0.1,0-0.2c0-0.1,0.1-0.2,0.1-0.3c0-0.1-0.1-0.1-0.1-0.2c0-0.1,0-0.2,0-0.3c0-0.2,0-0.4-0.1-0.5c-0.4-0.7-1.2-0.9-2-0.8
				c-0.2,0-0.3,0.1-0.4,0.2c-0.2,0.1-0.1,0.2-0.3,0.2c-0.1,0-0.2,0.1-0.2,0.2C69.4-2.8,69.4-2.9,69.4-2.8
				C69.4-2.7,69.4-2.8,69.4-2.8"/>
			<path style="fill:#FFFFFF;" d="M61.8-2.8c0,0.1,0,0.1,0,0.2c-0.1,0.1-0.1,0.1-0.2,0.1c-0.1,0.1-0.1,0.3-0.1,0.4
				c-0.2,0.1,0,0.2,0,0.3c0,0,0,0.1,0,0.2c0,0.1,0,0.3,0.1,0.4C61.6-1,61.8-0.8,62-0.7c0.2,0.1,0.4,0.6,0.6,0.6
				c0.2,0,0.4-0.1,0.5-0.1c0.2,0,0.4,0,0.6-0.1c0.2-0.1,0.1-0.3,0.3-0.5c0.1-0.1,0.3,0,0.4-0.1c0.2-0.1,0.3-0.3,0.4-0.5
				c0-0.1,0-0.1,0-0.2c0-0.1,0.1-0.2,0.1-0.3c0-0.1-0.1-0.1-0.1-0.2c0-0.1,0-0.2,0-0.3c0-0.2,0-0.4-0.1-0.5c-0.4-0.7-1.2-0.9-2-0.8
				c-0.2,0-0.3,0.1-0.4,0.2c-0.2,0.1-0.1,0.2-0.3,0.2c-0.1,0-0.2,0.1-0.2,0.2C61.8-2.8,61.8-2.9,61.8-2.8
				C61.8-2.7,61.8-2.8,61.8-2.8"/>
			<path style="fill:#FFFFFF;" d="M54.1-2.8c0,0.1,0,0.1,0,0.2C54-2.5,54-2.5,53.9-2.5c-0.1,0.1-0.1,0.3-0.1,0.4
				c-0.2,0.1,0,0.2,0,0.3c0,0,0,0.1,0,0.2c0,0.1,0,0.3,0.1,0.4C54-1,54.1-0.8,54.3-0.7c0.2,0.1,0.4,0.6,0.6,0.6
				c0.2,0,0.4-0.1,0.5-0.1c0.2,0,0.4,0,0.6-0.1c0.2-0.1,0.1-0.3,0.3-0.5c0.1-0.1,0.3,0,0.4-0.1C56.9-0.8,57-1,57.1-1.2
				c0-0.1,0-0.1,0-0.2c0-0.1,0.1-0.2,0.1-0.3c0-0.1-0.1-0.1-0.1-0.2c0-0.1,0-0.2,0-0.3c0-0.2,0-0.4-0.1-0.5c-0.4-0.7-1.2-0.9-2-0.8
				c-0.2,0-0.3,0.1-0.4,0.2c-0.2,0.1-0.1,0.2-0.3,0.2c-0.1,0-0.2,0.1-0.2,0.2C54.1-2.8,54.1-2.9,54.1-2.8
				C54.1-2.7,54.1-2.8,54.1-2.8"/>
			<path style="fill:#FFFFFF;" d="M46.5-2.8c0,0.1,0,0.1,0,0.2c-0.1,0.1-0.1,0.1-0.2,0.1c-0.1,0.1-0.1,0.3-0.1,0.4
				c-0.2,0.1,0,0.2,0,0.3c0,0,0,0.1,0,0.2c0,0.1,0,0.3,0.1,0.4c0.1,0.2,0.3,0.4,0.4,0.5C46.8-0.5,47-0.1,47.2,0
				c0.2,0,0.4-0.1,0.5-0.1c0.2,0,0.4,0,0.6-0.1c0.2-0.1,0.1-0.3,0.3-0.5c0.1-0.1,0.3,0,0.4-0.1c0.2-0.1,0.3-0.3,0.4-0.5
				c0-0.1,0-0.1,0-0.2c0-0.1,0.1-0.2,0.1-0.3c0-0.1-0.1-0.1-0.1-0.2c0-0.1,0-0.2,0-0.3c0-0.2,0-0.4-0.1-0.5c-0.4-0.7-1.2-0.9-2-0.8
				c-0.2,0-0.3,0.1-0.4,0.2c-0.2,0.1-0.1,0.2-0.3,0.2c-0.1,0-0.2,0.1-0.2,0.2C46.5-2.8,46.5-2.9,46.5-2.8
				C46.5-2.7,46.5-2.8,46.5-2.8"/>
			<path style="fill:#FFFFFF;" d="M38.8-2.8c0,0.1,0,0.1,0,0.2c-0.1,0.1-0.1,0.1-0.2,0.1c-0.1,0.1-0.1,0.3-0.1,0.4
				c-0.2,0.1,0,0.2,0,0.3c0,0,0,0.1,0,0.2c0,0.1,0,0.3,0.1,0.4C38.6-1,38.8-0.8,39-0.7c0.2,0.1,0.4,0.6,0.6,0.6
				c0.2,0,0.4-0.1,0.5-0.1c0.2,0,0.4,0,0.6-0.1c0.2-0.1,0.1-0.3,0.3-0.5c0.1-0.1,0.3,0,0.4-0.1c0.2-0.1,0.3-0.3,0.4-0.5
				c0-0.1,0-0.1,0-0.2c0-0.1,0.1-0.2,0.1-0.3c0-0.1-0.1-0.1-0.1-0.2c0-0.1,0-0.2,0-0.3c0-0.2,0-0.4-0.1-0.5c-0.4-0.7-1.2-0.9-2-0.8
				c-0.2,0-0.3,0.1-0.4,0.2c-0.2,0.1-0.1,0.2-0.3,0.2c-0.1,0-0.2,0.1-0.2,0.2C38.8-2.8,38.8-2.9,38.8-2.8
				C38.8-2.7,38.8-2.8,38.8-2.8"/>
			<path style="fill:#FFFFFF;" d="M31.1-2.8c0,0.1,0,0.1,0,0.2c-0.1,0.1-0.1,0.1-0.2,0.1c-0.1,0.1-0.1,0.3-0.1,0.4
				c-0.2,0.1,0,0.2,0,0.3c0,0,0,0.1,0,0.2c0,0.1,0,0.3,0.1,0.4C31-1,31.1-0.8,31.3-0.7c0.2,0.1,0.4,0.6,0.6,0.6
				c0.2,0,0.4-0.1,0.5-0.1c0.2,0,0.4,0,0.6-0.1c0.2-0.1,0.1-0.3,0.3-0.5c0.1-0.1,0.3,0,0.4-0.1c0.2-0.1,0.3-0.3,0.4-0.5
				c0-0.1,0-0.1,0-0.2c0-0.1,0.1-0.2,0.1-0.3c0-0.1-0.1-0.1-0.1-0.2c0-0.1,0-0.2,0-0.3c0-0.2,0-0.4-0.1-0.5c-0.4-0.7-1.2-0.9-2-0.8
				c-0.2,0-0.3,0.1-0.4,0.2c-0.2,0.1-0.1,0.2-0.3,0.2c-0.1,0-0.2,0.1-0.2,0.2C31.1-2.8,31.1-2.9,31.1-2.8
				C31.1-2.7,31.1-2.8,31.1-2.8"/>
			<path style="fill:#FFFFFF;" d="M23.5-2.8c0,0.1,0,0.1,0,0.2c-0.1,0.1-0.1,0.1-0.2,0.1c-0.1,0.1-0.1,0.3-0.1,0.4
				c-0.2,0.1,0,0.2,0,0.3c0,0,0,0.1,0,0.2c0,0.1,0,0.3,0.1,0.4c0.1,0.2,0.3,0.4,0.4,0.5C23.8-0.5,24-0.1,24.3,0
				c0.2,0,0.4-0.1,0.5-0.1c0.2,0,0.4,0,0.6-0.1c0.2-0.1,0.1-0.3,0.3-0.5c0.1-0.1,0.3,0,0.4-0.1c0.2-0.1,0.3-0.3,0.4-0.5
				c0-0.1,0-0.1,0-0.2c0-0.1,0.1-0.2,0.1-0.3c0-0.1-0.1-0.1-0.1-0.2c0-0.1,0-0.2,0-0.3c0-0.2,0-0.4-0.1-0.5c-0.4-0.7-1.2-0.9-2-0.8
				c-0.2,0-0.3,0.1-0.4,0.2c-0.2,0.1-0.1,0.2-0.3,0.2c-0.1,0-0.2,0.1-0.2,0.2C23.5-2.8,23.5-2.9,23.5-2.8
				C23.5-2.7,23.5-2.8,23.5-2.8"/>
			<path style="fill:#FFFFFF;" d="M15.8-2.8c0,0.1,0,0.1,0,0.2c-0.1,0.1-0.1,0.1-0.2,0.1c-0.1,0.1-0.1,0.3-0.1,0.4
				c-0.2,0.1,0,0.2,0,0.3c0,0,0,0.1,0,0.2c0,0.1,0,0.3,0.1,0.4C15.7-1,15.8-0.8,16-0.7c0.2,0.1,0.4,0.6,0.6,0.6
				c0.2,0,0.4-0.1,0.5-0.1c0.2,0,0.4,0,0.6-0.1c0.2-0.1,0.1-0.3,0.3-0.5c0.1-0.1,0.3,0,0.4-0.1c0.2-0.1,0.3-0.3,0.4-0.5
				c0-0.1,0-0.1,0-0.2c0-0.1,0.1-0.2,0.1-0.3c0-0.1-0.1-0.1-0.1-0.2c0-0.1,0-0.2,0-0.3c0-0.2,0-0.4-0.1-0.5c-0.4-0.7-1.2-0.9-2-0.8
				c-0.2,0-0.3,0.1-0.4,0.2c-0.2,0.1-0.1,0.2-0.3,0.2c-0.1,0-0.2,0.1-0.2,0.2C15.8-2.8,15.8-2.9,15.8-2.8
				C15.8-2.7,15.8-2.8,15.8-2.8"/>
			<path style="fill:#FFFFFF;" d="M8.2-2.8c0,0.1,0,0.1,0,0.2C8.1-2.5,8-2.5,8-2.5C7.9-2.4,7.9-2.2,7.9-2.1c-0.2,0.1,0,0.2,0,0.3
				c0,0,0,0.1,0,0.2c0,0.1,0,0.3,0.1,0.4C8-1,8.2-0.8,8.3-0.7C8.5-0.5,8.7-0.1,8.9,0c0.2,0,0.4-0.1,0.5-0.1c0.2,0,0.4,0,0.6-0.1
				c0.2-0.1,0.1-0.3,0.3-0.5c0.1-0.1,0.3,0,0.4-0.1c0.2-0.1,0.3-0.3,0.4-0.5c0-0.1,0-0.1,0-0.2c0-0.1,0.1-0.2,0.1-0.3
				c0-0.1-0.1-0.1-0.1-0.2c0-0.1,0-0.2,0-0.3c0-0.2,0-0.4-0.1-0.5c-0.4-0.7-1.2-0.9-2-0.8C9-3.5,8.8-3.4,8.7-3.4
				C8.5-3.3,8.6-3.2,8.4-3.1C8.3-3.1,8.2-3,8.2-2.9C8.2-2.8,8.2-2.9,8.2-2.8C8.1-2.7,8.1-2.8,8.2-2.8"/>
			<path style="fill:#FFFFFF;" d="M0.5-2.8c0,0.1,0,0.1,0,0.2C0.4-2.5,0.4-2.5,0.3-2.5C0.3-2.4,0.2-2.2,0.2-2.1
				c-0.2,0.1,0,0.2,0,0.3c0,0,0,0.1,0,0.2c0,0.1,0,0.3,0.1,0.4C0.3-1,0.5-0.8,0.7-0.7C0.9-0.5,1-0.1,1.3,0c0.2,0,0.4-0.1,0.5-0.1
				c0.2,0,0.4,0,0.6-0.1c0.2-0.1,0.1-0.3,0.3-0.5c0.1-0.1,0.3,0,0.4-0.1C3.3-0.8,3.4-1,3.5-1.2c0-0.1,0-0.1,0-0.2
				c0-0.1,0.1-0.2,0.1-0.3c0-0.1-0.1-0.1-0.1-0.2c0-0.1,0-0.2,0-0.3c0-0.2,0-0.4-0.1-0.5c-0.4-0.7-1.2-0.9-2-0.8
				C1.3-3.5,1.2-3.4,1-3.4C0.9-3.3,0.9-3.2,0.7-3.1C0.6-3.1,0.5-3,0.5-2.9C0.5-2.8,0.5-2.9,0.5-2.8C0.5-2.7,0.5-2.8,0.5-2.8"/>
		</g>
	</g>
</pattern>
<g>
	<path style="fill:#005581;" d="M14.3,32.9c0-4.6-0.2-9.2-0.4-13.8c2.9,0.2,5.7,0.3,8.6,0.3c2.9,0,5.7-0.1,9.2-0.3
		c-0.1,0.5-0.1,1.1-0.1,1.6c0,0.5,0,1.1,0.1,1.6c-3.5-0.4-10.3-0.7-13.4-0.7c0,2.5-0.1,4.7-0.1,7c0,2.4,0,4.5,0,6.7
		c4.1,0,8.4-0.1,12.4-0.5c-0.1,0.5-0.2,1.1-0.2,1.6c0,0.5,0.1,1.1,0.2,1.6c-3.2-0.4-8.2-0.4-12.4-0.4V42c0,4.6,0.2,9.2,0.4,13.8
		c-0.8-0.2-1.6-0.3-2.3-0.3s-1.5,0.1-2.3,0.3c0.2-4.6,0.4-9.2,0.4-13.8V32.9z"/>
	<path style="fill:#005581;" d="M38.3,38.7c0-3.4-0.1-6.9-0.3-10.3c0.6,0.1,1.2,0.2,1.8,0.2s1.1-0.1,1.8-0.2
		c-0.1,3.4-0.3,6.9-0.3,10.3c0,6.7,0.1,11.4,0.1,15.2c3.4,0,6.3,0,9.9-0.5C51,53.8,51,54.2,51,54.6s0.1,0.8,0.2,1.2
		c-2.2-0.1-4.4-0.2-6.6-0.2c-2.2,0-4.4,0.1-6.6,0.2c0.1-3.4,0.3-6.9,0.3-10.3V38.7z"/>
	<path style="fill:#005581;" d="M68.4,27.9c7.9,0,13.4,5.2,13.4,14.2s-5.5,14.2-13.4,14.2c-7.9,0-13.4-5.2-13.4-14.2
		S60.5,27.9,68.4,27.9z M68.4,29.3c-5.6,0-9.9,3.9-9.9,12.7c0,8.8,4.3,12.7,9.9,12.7c5.6,0,9.9-3.9,9.9-12.7
		C78.3,33.3,74,29.3,68.4,29.3z"/>
	<path style="fill:#005581;" d="M87.7,38.7c0-3.4-0.1-6.9-0.3-10.3c1.4,0.1,2.7,0.2,4.1,0.2s2.7-0.2,4.1-0.2c4,0,7.4,1.5,7.4,6.3
		c0,5.1-4.6,7.2-7.3,7.6c1.8,2.4,7.7,11,9.8,13.5c-0.7-0.1-1.4-0.2-2.1-0.2c-0.7,0-1.4,0.1-2.1,0.2C99.8,53.3,95,46,92,42.6h-1.4
		v2.9c0,3.4,0.1,6.9,0.3,10.3c-0.6-0.1-1.2-0.2-1.8-0.2c-0.6,0-1.1,0.1-1.8,0.2c0.1-3.4,0.3-6.9,0.3-10.3V38.7z M90.6,40.9
		c0.6,0.2,1.5,0.2,2.4,0.2c2.9,0,6.8-1.3,6.8-6.1c0-4.2-3.1-5.2-5.5-5.2c-1.6,0-2.7,0.1-3.5,0.2c-0.1,2.9-0.2,5.8-0.2,8.6V40.9z"/>
	<path style="fill:#005581;" d="M110.4,38.7c0-3.4-0.1-6.9-0.3-10.3c0.6,0.1,1.2,0.2,1.8,0.2c0.6,0,1.1-0.1,1.8-0.2
		c-0.1,3.4-0.3,6.9-0.3,10.3v6.8c0,3.4,0.1,6.9,0.3,10.3c-0.6-0.1-1.2-0.2-1.8-0.2c-0.6,0-1.1,0.1-1.8,0.2c0.1-3.4,0.3-6.9,0.3-10.3
		V38.7z"/>
	<path style="fill:#005581;" d="M121.2,38.7c0-3.4-0.1-6.9-0.3-10.3c1.8,0.1,3.6,0.2,5.4,0.2c1.8,0,3.6-0.2,5.4-0.2
		c8.4,0,11.8,5,11.8,13.1c0,10.6-7.4,14.3-13,14.3c-1.6,0-3.2-0.2-4.8-0.2c-1.6,0-3.2,0.1-4.8,0.2c0.1-3.4,0.3-6.9,0.3-10.3V38.7z
		 M124.1,45.5c0,2.8,0.1,5.7,0.2,8.4c1,0.2,2.9,0.4,4.7,0.4c5.3,0,11-2.3,11-12.8c0-9.2-4.3-11.5-10.1-11.5c-2.1,0-4,0.2-5.5,0.4
		c-0.1,2.5-0.2,5.4-0.2,8.2V45.5z"/>
	<path style="fill:#005581;" d="M158.9,27.9c3.5,9.2,8.9,23.7,10.8,27.9c-0.6-0.1-1.3-0.2-1.9-0.2s-1.3,0.1-1.9,0.2
		c-0.7-2.7-2.4-7.1-3.7-10.6c-1.5,0-3.1-0.1-4.7-0.1c-1.5,0-2.9,0-4.4,0.1c-1.5,4.1-2.9,8.1-3.5,10.6c-0.5-0.1-0.9-0.2-1.3-0.2
		s-0.9,0.1-1.3,0.2c3.8-9.3,7.5-18.5,11.2-27.9H158.9z M157.7,33.2l-3.9,10.1c1.3,0,2.6,0.1,3.9,0.1c1.3,0,2.7,0,4-0.1L157.7,33.2z"
		/>
	<path style="fill:#005581;" d="M244.1,48.8c1.1,2.5,3.5,5.5,7.6,5.5c4.3,0,6.9-3.5,6.9-7.7c0-9.8-15.1-5.6-15.1-18.1
		c0-5.9,4-10.1,10.4-10.1c3,0,5.2,0.8,7.1,2.5c-0.6,1.2-0.9,2.4-1.3,4.5h-0.6c-0.7-2-2.1-5-5.7-5c-3.6,0-6.2,2.7-6.2,6.6
		c0,10,15.1,5.8,15.1,17.6c0,6.5-4.4,12-11.7,12c-4,0-6.2-1.5-7.9-3c0.6-1.7,0.7-2.7,0.9-4.7H244.1z"/>
	<path style="fill:#005581;" d="M274.1,38.7c0-2.7,0-5.5-0.1-8.2c-2.5,0-5.6,0.2-7.6,0.4c0.1-0.4,0.2-0.8,0.2-1.3
		c0-0.4-0.1-0.8-0.2-1.2c3.1,0.1,6.1,0.2,9.2,0.2s6.1-0.1,9.2-0.2c-0.1,0.4-0.2,0.8-0.2,1.3c0,0.4,0.1,0.8,0.2,1.2
		c-2-0.3-5.2-0.4-7.6-0.4c-0.1,2.7-0.1,5.5-0.1,8.2v6.8c0,3.4,0.1,6.9,0.3,10.3c-0.6-0.1-1.2-0.2-1.8-0.2c-0.6,0-1.1,0.1-1.8,0.2
		c0.1-3.4,0.3-6.9,0.3-10.3V38.7z"/>
	<path style="fill:#005581;" d="M296.2,27.9c3.5,9.2,8.9,23.7,10.8,27.9c-0.6-0.1-1.3-0.2-1.9-0.2c-0.6,0-1.2,0.1-1.9,0.2
		c-0.7-2.7-2.4-7.1-3.7-10.6c-1.5,0-3.1-0.1-4.7-0.1c-1.5,0-2.9,0-4.4,0.1c-1.5,4.1-2.9,8.1-3.5,10.6c-0.5-0.1-0.9-0.2-1.3-0.2
		s-0.9,0.1-1.3,0.2c3.8-9.3,7.5-18.5,11.2-27.9H296.2z M295.1,33.2l-3.9,10.1c1.3,0,2.6,0.1,3.9,0.1c1.3,0,2.7,0,4-0.1L295.1,33.2z"
		/>
	<path style="fill:#005581;" d="M314.3,38.7c0-2.7,0-5.5-0.1-8.2c-2.5,0-5.6,0.2-7.6,0.4c0.1-0.4,0.2-0.8,0.2-1.3
		c0-0.4-0.1-0.8-0.2-1.2c3.1,0.1,6.1,0.2,9.2,0.2c3.1,0,6.1-0.1,9.2-0.2c-0.1,0.4-0.2,0.8-0.2,1.3c0,0.4,0.1,0.8,0.2,1.2
		c-2-0.3-5.2-0.4-7.6-0.4c-0.1,2.7-0.1,5.5-0.1,8.2v6.8c0,3.4,0.1,6.9,0.3,10.3c-0.6-0.1-1.2-0.2-1.8-0.2c-0.6,0-1.1,0.1-1.8,0.2
		c0.1-3.4,0.3-6.9,0.3-10.3V38.7z"/>
	<path style="fill:#005581;" d="M330.1,38.6c0-3.4-0.1-6.9-0.3-10.2c2.1,0.1,4.3,0.2,6.4,0.2c2.1,0,4.3-0.1,6.4-0.2
		c-0.1,0.4-0.1,0.8-0.1,1.2c0,0.4,0,0.8,0.1,1.2c-3-0.2-4.8-0.5-9.4-0.5c0,1.7-0.1,3.1-0.1,5c0,2.1,0,4.2,0,5.2
		c4.2,0,6.6-0.2,8.7-0.4c-0.1,0.4-0.1,0.8-0.1,1.2s0,0.8,0.1,1.2c-2.5-0.3-7-0.4-8.7-0.4c0,1,0,1.9,0,5.8c0,3,0,5,0.1,6
		c3.2,0,7.4,0,9.6-0.5c-0.1,0.4-0.1,0.9-0.1,1.2c0,0.4,0,0.8,0.1,1.2c-2.1-0.1-4.3-0.2-6.4-0.2c-2.2,0-4.3,0.1-6.5,0.2
		c0.1-3.5,0.3-6.9,0.3-10.3V38.6z"/>
	<path style="fill:#005581;" d="M390.3,53.5c-1.2,1.1-5.2,3-10,3c-10.1,0-17.5-7-17.5-19.1s7.4-19.1,18-19.1c4.1,0,7.8,1.1,10.4,2.4
		c-0.5,1-0.8,3-1,4.2l-0.3,0.1c-1.3-1.7-4.6-4.7-9.1-4.7c-7.5,0-13.3,5.3-13.3,17.1c0,11.8,5.7,17.1,13.3,17.1
		c4.6,0,7.9-2.9,9.7-4.4l0.2,0.2L390.3,53.5z"/>
	<path style="fill:#005581;" d="M408.9,27.9c7.9,0,13.4,5.2,13.4,14.2s-5.5,14.2-13.4,14.2c-7.9,0-13.4-5.2-13.4-14.2
		S401,27.9,408.9,27.9z M408.9,29.3c-5.6,0-9.9,3.9-9.9,12.7c0,8.8,4.3,12.7,9.9,12.7c5.6,0,9.9-3.9,9.9-12.7
		C418.8,33.3,414.5,29.3,408.9,29.3z"/>
	<path style="fill:#005581;" d="M428.2,38.7c0-3.4-0.1-6.9-0.3-10.3c0.6,0.1,1.2,0.2,1.8,0.2c0.6,0,1.1-0.1,1.8-0.2
		c-0.1,3.4-0.3,6.9-0.3,10.3c0,6.7,0.1,11.4,0.1,15.2c3.4,0,6.3,0,9.9-0.5c-0.1,0.4-0.2,0.8-0.2,1.2s0.1,0.8,0.2,1.2
		c-2.2-0.1-4.4-0.2-6.6-0.2c-2.2,0-4.4,0.1-6.6,0.2c0.1-3.4,0.3-6.9,0.3-10.3V38.7z"/>
	<path style="fill:#005581;" d="M446.9,38.7c0-3.4-0.1-6.9-0.3-10.3c0.6,0.1,1.2,0.2,1.8,0.2c0.6,0,1.1-0.1,1.8-0.2
		c-0.1,3.4-0.3,6.9-0.3,10.3c0,6.7,0.1,11.4,0.1,15.2c3.4,0,6.3,0,9.9-0.5c-0.1,0.4-0.2,0.8-0.2,1.2s0.1,0.8,0.2,1.2
		c-2.2-0.1-4.4-0.2-6.6-0.2c-2.2,0-4.4,0.1-6.6,0.2c0.1-3.4,0.3-6.9,0.3-10.3V38.7z"/>
	<path style="fill:#005581;" d="M465.7,38.6c0-3.4-0.1-6.9-0.3-10.2c2.1,0.1,4.3,0.2,6.4,0.2c2.1,0,4.3-0.1,6.4-0.2
		c-0.1,0.4-0.1,0.8-0.1,1.2c0,0.4,0,0.8,0.1,1.2c-3-0.2-4.8-0.5-9.4-0.5c0,1.7-0.1,3.1-0.1,5c0,2.1,0,4.2,0,5.2
		c4.2,0,6.6-0.2,8.7-0.4c-0.1,0.4-0.1,0.8-0.1,1.2s0,0.8,0.1,1.2c-2.5-0.3-7-0.4-8.7-0.4c0,1,0,1.9,0,5.8c0,3,0,5,0.1,6
		c3.2,0,7.4,0,9.6-0.5c-0.1,0.4-0.1,0.9-0.1,1.2c0,0.4,0,0.8,0.1,1.2c-2.1-0.1-4.3-0.2-6.4-0.2c-2.2,0-4.3,0.1-6.5,0.2
		c0.1-3.5,0.3-6.9,0.3-10.3V38.6z"/>
	<path style="fill:#005581;" d="M504.9,33.2c-1.5-1.9-4.3-3.9-7.9-3.9c-5.9,0-10.5,3.9-10.5,12.7c0,7.8,3.9,12.5,10.6,12.5
		c2,0,4.5-0.4,5.7-1.3c0-1.6,0.1-3.2,0.1-4.8c0-1.9-0.1-3.8-0.2-5.4c0.5,0.1,1.1,0.2,1.7,0.2c0.5,0,1.1,0,1.5-0.2
		c-0.1,1.2-0.1,3.8-0.1,8.1c0,1,0,2.1,0,3.2c-2,0.8-6.3,1.9-9.1,1.9c-8.5,0-13.8-4.9-13.8-14.2c0-9,5.5-14.2,14-14.2
		c4.8,0,7.4,1.3,9.1,2.3c-0.4,0.7-0.7,2.1-0.8,3.1H504.9z"/>
	<path style="fill:#005581;" d="M513.1,38.6c0-3.4-0.1-6.9-0.3-10.2c2.1,0.1,4.3,0.2,6.4,0.2c2.1,0,4.3-0.1,6.4-0.2
		c-0.1,0.4-0.1,0.8-0.1,1.2c0,0.4,0,0.8,0.1,1.2c-3-0.2-4.8-0.5-9.4-0.5c0,1.7-0.1,3.1-0.1,5c0,2.1,0,4.2,0,5.2
		c4.2,0,6.6-0.2,8.7-0.4c-0.1,0.4-0.1,0.8-0.1,1.2s0,0.8,0.1,1.2c-2.5-0.3-7-0.4-8.7-0.4c0,1,0,1.9,0,5.8c0,3,0,5,0.1,6
		c3.2,0,7.4,0,9.6-0.5c-0.1,0.4-0.1,0.9-0.1,1.2c0,0.4,0,0.8,0.1,1.2c-2.1-0.1-4.3-0.2-6.4-0.2c-2.2,0-4.3,0.1-6.5,0.2
		c0.1-3.5,0.3-6.9,0.3-10.3V38.6z"/>
</g>
<g>

		<linearGradient id="SVGID_1_" gradientUnits="userSpaceOnUse" x1="-3725.5933" y1="-3678.4695" x2="-3627.2671" y2="-3678.4695" gradientTransform="matrix(0.6 0 0 0.6 2429.126 2283.45)">
		<stop  offset="0" style="stop-color:#30B455"/>
		<stop  offset="0.107" style="stop-color:#45B672"/>
		<stop  offset="0.3475" style="stop-color:#65BDB6"/>
		<stop  offset="0.4101" style="stop-color:#6BC0C8"/>
		<stop  offset="0.5689" style="stop-color:#5CBDCC"/>
		<stop  offset="0.8443" style="stop-color:#11B8D6"/>
		<stop  offset="1" style="stop-color:#00B4DE"/>
	</linearGradient>
	<path style="fill:url(#SVGID_1_);" d="M196.2,66.6c0,0,0.3,7.2,21.7,9.8c0,0,15.9,0.9,20.3,2.1c4.4,1.1,12.9,5.2,14.5,7.8
		l-12.2-1.5L218,83.5l-18.2-4.6l-6.1-6.9l1.1-5.3L196.2,66.6z"/>
	<g>

			<linearGradient id="SVGID_2_" gradientUnits="userSpaceOnUse" x1="-3693.8379" y1="-3684.2832" x2="-3693.8379" y2="-3684.2832" gradientTransform="matrix(0.6 0 0 0.6 2429.126 2283.45)">
			<stop  offset="0" style="stop-color:#00ABE5"/>
			<stop  offset="4.790198e-02" style="stop-color:#00A2D5"/>
			<stop  offset="0.1243" style="stop-color:#0090B7"/>
			<stop  offset="0.2197" style="stop-color:#1F738C"/>
			<stop  offset="0.3292" style="stop-color:#244E5A"/>
			<stop  offset="0.4326" style="stop-color:#192B2F"/>
			<stop  offset="1" style="stop-color:#006764"/>
		</linearGradient>
		<path style="fill:url(#SVGID_2_);" d="M212.8,72.9"/>

			<linearGradient id="SVGID_3_" gradientUnits="userSpaceOnUse" x1="-3706.2991" y1="-3710.5032" x2="-3635.6511" y2="-3651.2224" gradientTransform="matrix(0.6 0 0 0.6 2429.126 2283.45)">
			<stop  offset="0" style="stop-color:#00ABE5"/>
			<stop  offset="4.790198e-02" style="stop-color:#00A2D5"/>
			<stop  offset="0.1243" style="stop-color:#0090B7"/>
			<stop  offset="0.2197" style="stop-color:#1F738C"/>
			<stop  offset="0.3292" style="stop-color:#244E5A"/>
			<stop  offset="0.4326" style="stop-color:#192B2F"/>
			<stop  offset="1" style="stop-color:#006764"/>
		</linearGradient>
		<path style="fill:url(#SVGID_3_);" d="M206.4,61.6l3.8,4.3l8.1,4.3l12.7,3l16.3,5.4l5.5,7.6c-13.9-9.6-25.9-7.1-35.4-9.3
			c-16.2-3.6-15.7-14.7-15.7-14.7l4.3-2.9L206.4,61.6"/>
	</g>

		<linearGradient id="SVGID_4_" gradientUnits="userSpaceOnUse" x1="-3718.481" y1="-3777.6316" x2="-3672.0786" y2="-3697.2612" gradientTransform="matrix(0.6 0 0 0.6 2429.126 2283.45)">
		<stop  offset="0" style="stop-color:#1CB8D4"/>
		<stop  offset="0.1508" style="stop-color:#33B9D1"/>
		<stop  offset="0.3479" style="stop-color:#56BCC7"/>
		<stop  offset="0.4944" style="stop-color:#6FC0BC"/>
		<stop  offset="1" style="stop-color:#62B870"/>
	</linearGradient>
	<path style="fill:url(#SVGID_4_);" d="M216.3,67.3c0,0,6.6-3.8-1.6-22.1c0,0-7.1-13.1-8.2-17.2c-1.1-4.1-1.6-13,0-15.5l4.8,10.6
		l10.2,18.5l4.7,16.8l-3.5,8.3l-5.6,1.8L216.3,67.3z"/>

		<linearGradient id="SVGID_5_" gradientUnits="userSpaceOnUse" x1="-3674.5959" y1="-3860.0654" x2="-3651.9897" y2="-3899.2202" gradientTransform="matrix(1 0 0 1 3872.0244 3918.8892)">
		<stop  offset="0" style="stop-color:#19353C"/>
		<stop  offset="0.2697" style="stop-color:#438BA7"/>
		<stop  offset="0.4447" style="stop-color:#19809E"/>
		<stop  offset="0.6277" style="stop-color:#007898"/>
		<stop  offset="0.8124" style="stop-color:#007494"/>
		<stop  offset="1" style="stop-color:#007393"/>
	</linearGradient>
	<path style="fill:url(#SVGID_5_);" d="M209.4,65c0,0,10.7-5,6-19.7c-2.8-8.7-11-17.1-8.9-32.9l-4.4,8.2l3,15.6l3.5,11.6l0,8.5
		l-2.1,5.2L209.4,65z"/>

		<linearGradient id="SVGID_6_" gradientUnits="userSpaceOnUse" x1="-3763.8455" y1="-3654.8386" x2="-3718.7681" y2="-3732.8337" gradientTransform="matrix(0.6 0 0 0.6 2429.126 2283.45)">
		<stop  offset="0" style="stop-color:#007157"/>
		<stop  offset="0.4185" style="stop-color:#008D5B"/>
		<stop  offset="0.7848" style="stop-color:#00A35C"/>
		<stop  offset="1" style="stop-color:#00AE5D"/>
	</linearGradient>
	<path style="fill:url(#SVGID_6_);" d="M206.9,51c0,0-6.9-3.4-20,12.4c0,0-8.8,12.2-12.1,15.1c-3.3,3-11.3,7.7-14.5,7.7l7.5-9.1
		L180,59.8l13.5-12.1l9.6-1.4l4.4,3.6L206.9,51z"/>
	<g>

			<linearGradient id="SVGID_7_" gradientUnits="userSpaceOnUse" x1="-3727.3145" y1="-3703.9871" x2="-3727.3145" y2="-3703.9871" gradientTransform="matrix(0.6 0 0 0.6 2429.126 2283.45)">
			<stop  offset="0" style="stop-color:#009DD2"/>
			<stop  offset="8.660711e-02" style="stop-color:#2FB1DE"/>
			<stop  offset="0.1612" style="stop-color:#71C2E8"/>
			<stop  offset="0.2189" style="stop-color:#90CEF0"/>
			<stop  offset="0.2528" style="stop-color:#9AD3F3"/>
			<stop  offset="0.2638" style="stop-color:#95D2F3"/>
			<stop  offset="0.3598" style="stop-color:#6BC6EF"/>
			<stop  offset="0.4617" style="stop-color:#3DBDEC"/>
			<stop  offset="0.5697" style="stop-color:#00B7EB"/>
			<stop  offset="0.6867" style="stop-color:#00B3E9"/>
			<stop  offset="0.8191" style="stop-color:#00B0E9"/>
			<stop  offset="1" style="stop-color:#00AFE8"/>
		</linearGradient>
		<path style="fill:url(#SVGID_7_);" d="M192.7,61.1"/>

			<linearGradient id="SVGID_8_" gradientUnits="userSpaceOnUse" x1="-3698.7671" y1="-3702.8481" x2="-3785.8142" y2="-3672.1777" gradientTransform="matrix(0.6 0 0 0.6 2429.126 2283.45)">
			<stop  offset="0" style="stop-color:#009DD2"/>
			<stop  offset="8.660711e-02" style="stop-color:#2FB1DE"/>
			<stop  offset="0.1612" style="stop-color:#71C2E8"/>
			<stop  offset="0.2189" style="stop-color:#90CEF0"/>
			<stop  offset="0.2528" style="stop-color:#9AD3F3"/>
			<stop  offset="0.2638" style="stop-color:#95D2F3"/>
			<stop  offset="0.3598" style="stop-color:#6BC6EF"/>
			<stop  offset="0.4617" style="stop-color:#3DBDEC"/>
			<stop  offset="0.5697" style="stop-color:#00B7EB"/>
			<stop  offset="0.6867" style="stop-color:#00B3E9"/>
			<stop  offset="0.8191" style="stop-color:#00B0E9"/>
			<stop  offset="1" style="stop-color:#00AFE8"/>
		</linearGradient>
		<path style="fill:url(#SVGID_8_);" d="M208,57.5c0,0-9.8-5.9-21.3,5.1c-6.8,6.5-10.6,17.3-26.5,23.5l10-0.6l13.2-10.2l9.2-8.6
			l8.1-4.3l6-0.9L208,57.5z"/>
	</g>
	<g>

			<linearGradient id="SVGID_9_" gradientUnits="userSpaceOnUse" x1="-3710.0383" y1="-3698.0388" x2="-3662.9707" y2="-3725.2126" gradientTransform="matrix(0.6 0 0 0.6 2429.126 2283.45)">
			<stop  offset="1.123600e-02" style="stop-color:#52BEE4"/>
			<stop  offset="0.1969" style="stop-color:#3FB2D9"/>
			<stop  offset="0.5399" style="stop-color:#009AC2"/>
			<stop  offset="1" style="stop-color:#007AA3"/>
		</linearGradient>
		<path style="fill:url(#SVGID_9_);" d="M252.8,86.2l-46.4-73.7c-0.7,1.7-0.2,6.5,6.8,17.8c6.4,10.3,9.2,17.5,9.2,17.5
			s5.9,13.2-1.9,17.4c-8.2,4.4-14.1-3.6-14.1-3.6s-0.2,7,14.8,11.3C236.3,77.2,241,74.3,252.8,86.2z"/>
	</g>
	<g>

			<linearGradient id="SVGID_10_" gradientUnits="userSpaceOnUse" x1="-3704.4346" y1="-3661.554" x2="-3704.4346" y2="-3709.7876" gradientTransform="matrix(0.6 0 0 0.6 2429.126 2283.45)">
			<stop  offset="0" style="stop-color:#00252C"/>
			<stop  offset="0.1213" style="stop-color:#002D34"/>
			<stop  offset="0.5079" style="stop-color:#00434F"/>
			<stop  offset="0.8141" style="stop-color:#005261"/>
			<stop  offset="1" style="stop-color:#005869"/>
		</linearGradient>
		<path style="fill:url(#SVGID_10_);" d="M160.2,86.2h92.6c-1.3-1.4-5.9-3.4-20-3.5c-12.9-0.1-21.2-1.4-21.2-1.4
			s-15.5-1.9-15.5-10.2c0-8.7,10.4-9.4,10.4-9.4s-6.4-3.7-17.9,6.1C176.9,77.5,177.3,82.8,160.2,86.2z"/>
	</g>
	<g>

			<linearGradient id="SVGID_11_" gradientUnits="userSpaceOnUse" x1="-3745.9375" y1="-3725.2134" x2="-3698.6143" y2="-3697.8921" gradientTransform="matrix(0.6 0 0 0.6 2429.126 2283.45)">
			<stop  offset="0" style="stop-color:#73C3ED"/>
			<stop  offset="1" style="stop-color:#BADCF4"/>
		</linearGradient>
		<path style="fill:url(#SVGID_11_);" d="M206.4,12.5l-46.2,73.7c2-0.3,6.1-3.1,13.3-14.3c6.5-10.2,11.9-16.1,11.9-16.1
			s9.5-11.3,17.4-7.2c8.2,4.3,3.7,13,3.7,13s6.6-3.3,3.2-17.3C206.2,30.1,201.1,27.8,206.4,12.5z"/>
	</g>
</g>
<g>
	<line style="fill:none;stroke:#005581;stroke-width:0.8785;" x1="242.6" y1="63.6" x2="525.6" y2="63.6"/>
	<line style="fill:none;stroke:#005581;stroke-width:0.8531;" x1="14" y1="63.6" x2="169.4" y2="63.6"/>
</g>
<g>
	<g>
		<path style="fill:#007698;" d="M519.2,77.5c0-0.3,0-0.7,0-1c-0.3,0-0.8,0-1,0.1c0,0,0-0.1,0-0.2c0,0,0-0.1,0-0.2
			c0.4,0,0.8,0,1.2,0s0.8,0,1.2,0c0,0.1,0,0.1,0,0.2c0,0,0,0.1,0,0.2c-0.3,0-0.7-0.1-1-0.1c0,0.3,0,0.7,0,1v0.8c0,0.4,0,0.8,0,1.3
			c-0.1,0-0.2,0-0.2,0c-0.1,0-0.2,0-0.2,0c0-0.4,0-0.8,0-1.3V77.5z"/>
		<path style="fill:#007698;" d="M521.9,76.2c0.4,0.9,0.9,1.8,1.4,2.7c0.2-0.4,1-1.8,1.4-2.7h0.1c0.1,1.3,0.2,2.3,0.4,3.4
			c-0.1,0-0.1,0-0.2,0c-0.1,0-0.2,0-0.2,0c-0.1-0.9-0.1-1.7-0.2-2.5h0c-0.4,0.8-0.9,1.6-1.3,2.5h0c-0.4-0.8-0.8-1.7-1.2-2.5h0
			c-0.1,0.8-0.2,2-0.2,2.5c-0.1,0-0.1,0-0.2,0c-0.1,0-0.1,0-0.2,0C521.6,78.6,521.8,77.3,521.9,76.2L521.9,76.2z"/>
	</g>
	<g>
		<path style="fill:#005581;" d="M367.3,82.5c-0.3,0.6-0.8,1.9-1.2,3.7c-0.2,0-0.3-0.1-0.5-0.1c-0.2,0-0.4,0.1-0.6,0.1
			c1.2-2.7,3.1-7.3,4-9.8c0.1,0,0.2,0,0.3,0c0.1,0,0.2,0,0.3,0c1,2.9,3.9,9.8,3.9,9.8c-0.2,0-0.4-0.1-0.8-0.1c-0.3,0-0.6,0-0.8,0.1
			c-0.5-1.7-1-2.9-1.3-3.7H367.3z M368.9,78.3l-1.4,3.5h2.8L368.9,78.3z"/>
		<path style="fill:#005581;" d="M378.4,77.2c-1.4,0-2.3,0.1-2.9,0.2c0-0.2,0.1-0.3,0.1-0.5c0-0.2,0-0.4-0.1-0.5
			c0.8,0.1,2.5,0.1,3.5,0.1c1.3,0,2.6,0,3.5-0.1c0,0.1-0.1,0.3-0.1,0.5c0,0.2,0,0.3,0.1,0.5c-0.4-0.1-1.2-0.2-2.8-0.2
			c0,1,0,1.9,0,2.9c0,1.7-0.1,3.9,0.1,6c-0.4-0.1-0.7-0.1-0.8-0.1c-0.3,0-0.6,0.1-0.7,0.1c0.1-1.5,0.1-3.6,0.1-5.5
			C378.4,79.4,378.4,78.2,378.4,77.2z"/>
		<path style="fill:#005581;" d="M393.8,88.4c0.8-0.1,1.8-0.4,2-2.4c0.1-1.4,0.2-5.7,0.2-7.3c0-2.2-0.1-4.4-0.1-6.4
			c0.3,0.1,0.7,0.1,1.1,0.1c0.4,0,0.8-0.1,1.1-0.1c-0.1,2.3-0.2,5.2-0.2,8.2c0,0.9,0,1.9,0,2.7c0,2.3,0,3.4-1.1,4.5
			c-0.9,1-2.1,1.2-2.9,1.3L393.8,88.4z"/>
		<path style="fill:#005581;" d="M405.8,82.5c-0.3,0.6-0.8,1.9-1.2,3.7c-0.2,0-0.3-0.1-0.5-0.1c-0.2,0-0.4,0.1-0.6,0.1
			c1.2-2.7,3.1-7.3,4-9.8c0.1,0,0.2,0,0.3,0c0.1,0,0.2,0,0.3,0c1,2.9,3.9,9.8,3.9,9.8c-0.2,0-0.4-0.1-0.8-0.1c-0.3,0-0.6,0-0.8,0.1
			c-0.5-1.7-1-2.9-1.3-3.7H405.8z M407.4,78.3l-1.4,3.5h2.8L407.4,78.3z"/>
		<path style="fill:#005581;" d="M423.2,84.2c-0.1,0.3-0.1,0.6-0.1,1.1c-1,0.6-2.1,0.9-3.2,0.9c-3,0-4.8-2.1-4.8-5
			c0-2.7,1.6-4.9,5-4.9c1.6,0,2.6,0.5,3.2,0.7c-0.2,0.6-0.2,0.8-0.3,1.4h-0.1c-0.4-0.8-1.5-1.5-2.8-1.5c-2.1,0-3.4,1.6-3.4,4.3
			c0,2.9,1.7,4.4,3.5,4.4c0.6,0,1.9-0.1,2.9-1.4L423.2,84.2z"/>
		<path style="fill:#005581;" d="M427.5,76.4c0.2,0,0.4,0.1,0.8,0.1c0.3,0,0.5,0,0.7-0.1c0,0.4-0.1,1.2-0.1,1.8c0,0.8,0,1.4,0,2.7
			c0.9-0.8,1.3-1.1,2.9-3c0.9-1,1-1.1,1.2-1.5c0.2,0.1,0.4,0.1,0.7,0.1c0.2,0,0.4,0,0.6-0.1l0,0.1c-0.6,0.4-3.7,3.8-4.2,4.2
			c1,1.2,2.6,3.1,3.5,4.3c0.1,0.1,0.4,0.5,0.6,0.7v0.3c-0.2,0-0.6-0.1-0.8-0.1c-0.2,0-0.6,0-0.9,0.1c-0.5-0.9-1.2-1.7-1.8-2.5
			c-1-1.3-1.3-1.6-1.8-2.2l0,0.1v0.9c0,2.2,0,2.5,0.1,3.8c-0.2,0-0.5-0.1-0.7-0.1c-0.3,0-0.5,0-0.8,0.1c0.1-2.5,0.2-2.8,0.2-4.7
			C427.6,78.3,427.6,77.8,427.5,76.4z"/>
		<path style="fill:#005581;" d="M442.4,78.2c-0.2-0.5-0.6-1.3-1.8-1.3c-1.4,0-1.7,1.1-1.7,1.6c0,1.1,0.9,1.5,1.5,1.8
			c1.4,0.6,1.7,0.7,2.1,1.1c0.6,0.5,0.7,1.3,0.7,1.8c0,1.5-0.9,3.1-3.3,3.1c-0.9,0-1.7-0.2-2.4-0.8c0.2-0.7,0.2-1.1,0.2-1.3h0.2
			c0.4,0.8,1.1,1.5,2.2,1.5c1.4,0,1.9-1,1.9-1.9c0-1.1-0.7-1.6-1.6-1.9c-1.5-0.7-1.7-0.8-2-1.1c-0.4-0.4-0.6-1.1-0.6-1.7
			c0-1.8,1.4-2.7,2.9-2.7c1,0,1.9,0.4,2.2,0.6c-0.1,0.2-0.3,0.8-0.4,1.2H442.4z"/>
		<path style="fill:#005581;" d="M457.5,81.2c0,2.9-1.9,5.2-5,5.2c-2.8,0-4.9-1.9-4.9-5c0-3,1.8-5,5-5
			C455.3,76.3,457.5,78,457.5,81.2z M452.5,85.7c2.1,0,3.5-1.6,3.5-4.5c0-0.7-0.1-1.9-0.6-2.7c-0.7-1.3-2-1.7-2.9-1.7
			c-1.7,0-3.5,1.3-3.5,4.4C449,84.1,450.5,85.7,452.5,85.7z"/>
		<path style="fill:#005581;" d="M462.8,79.8c0,3.4,0.1,4.2,0.2,6.4c-0.2,0-0.3-0.1-0.5-0.1c-0.2,0-0.4,0-0.5,0.1
			c0.1-0.7,0.2-3.1,0.2-4.6c0-0.6,0-3,0-3.5v-1.7c0.1,0,0.1,0,0.2,0c0.1,0,0.2,0,0.3,0l0.4,0.5c0.4,0.4,0.7,0.8,1.5,1.7
			c2.6,3,2.9,3.3,4.5,5.1v-0.5c0-3.6,0-4.8-0.2-6.8c0.1,0,0.3,0.1,0.5,0.1c0.2,0,0.4,0,0.6-0.1c-0.2,2-0.2,4.1-0.2,6.1
			c0,1.1,0,2.8,0.1,3.8c-0.1,0-0.2,0-0.2,0c-0.1,0-0.1,0-0.2,0c-0.4-0.5-2.4-2.9-3.3-3.8c-0.2-0.2-0.4-0.5-0.7-0.7l-2.5-2.8V79.8z"
			/>
		<path style="fill:#005581;" d="M480.5,78.1c0.3-0.9,0.4-1.3,0.5-1.7c0.2,0.1,0.3,0.1,0.5,0.1c0.2,0,0.5,0,0.6-0.1
			c-0.3,0.5-2.3,5.4-3.8,9.7c-0.1,0-0.2-0.1-0.5-0.1c-0.1,0-0.3,0-0.5,0.1c-0.3-1-2.6-7.7-3.6-9.7c0.2,0.1,0.5,0.1,0.8,0.1
			c0.2,0,0.6,0,0.9-0.1c0.5,1.8,1.9,5.8,2.8,8.1C479.2,82.1,479.7,80.8,480.5,78.1z"/>
		<path style="fill:#005581;" d="M486.3,76.4c0.2,0.1,0.4,0.1,0.7,0.1c0.4,0,0.5,0,0.8-0.1c-0.1,1.7-0.1,3.3-0.1,5
			c0,2.5,0.1,3.6,0.1,4.7c-0.2,0-0.5-0.1-0.8-0.1c-0.3,0-0.5,0-0.7,0.1c0.1-1.5,0.1-2.2,0.1-5C486.4,79.1,486.4,79,486.3,76.4z"/>
		<path style="fill:#005581;" d="M495.6,85.4c0.7,0,1.8-0.1,2.4-0.2c0,0.1-0.1,0.3-0.1,0.5c0,0.2,0,0.4,0.1,0.5
			c-0.8,0-1.4-0.1-2.8-0.1c-1.1,0-1.5,0-2.2,0.1c0.1-1.8,0.1-3.3,0.1-5.1c0-1.9-0.1-4-0.1-4.6c0.2,0,0.4,0.1,0.7,0.1
			c0.3,0,0.6,0,0.8-0.1c-0.1,3.6-0.1,4.5-0.1,8.9C495,85.4,495.3,85.4,495.6,85.4z"/>
		<path style="fill:#005581;" d="M504.7,85.4c0.7,0,1.8-0.1,2.4-0.2c0,0.1-0.1,0.3-0.1,0.5c0,0.2,0,0.4,0.1,0.5
			c-0.8,0-1.4-0.1-2.8-0.1c-1.1,0-1.5,0-2.2,0.1c0.1-1.8,0.1-3.3,0.1-5.1c0-1.9-0.1-4-0.1-4.6c0.2,0,0.4,0.1,0.7,0.1
			c0.3,0,0.6,0,0.8-0.1c-0.1,3.6-0.1,4.5-0.1,8.9C504.1,85.4,504.3,85.4,504.7,85.4z"/>
		<path style="fill:#005581;" d="M515.5,80.6c0,0.2-0.1,0.3-0.1,0.5c0,0.2,0,0.3,0.1,0.4c-0.7-0.1-1.5-0.1-2-0.1c-0.4,0-0.7,0-1.1,0
			c0,0.6,0,1.2,0,1.8c0,0.7,0,1.8,0,2.2c0.8,0,1.9,0,3.4-0.2c0,0.2-0.1,0.3-0.1,0.5c0,0.2,0,0.3,0.1,0.4c-0.6-0.1-1.2-0.1-1.8-0.1
			c-1,0-2,0-3,0.1c0.1-1.1,0.1-2,0.1-5c0-1.4,0-3.3-0.1-4.7c0.9,0.1,1.8,0.1,2.7,0.1c0.7,0,1.3,0,2-0.1c0,0.2-0.1,0.3-0.1,0.5
			c0,0.2,0,0.3,0.1,0.4c-0.5-0.1-0.9-0.2-2.1-0.2c-0.5,0-0.7,0-1.3,0c0,0.5,0,0.8,0,1.6c0,0.9,0,1.1,0,1.8
			C513.4,80.7,514.4,80.7,515.5,80.6z"/>
	</g>
</g>
<g>
</g>
<g>
</g>
<g>
</g>
<g>
</g>
<g>
</g>
<g>
</g>
</svg>
