<?xml version="1.0" encoding="utf-8"?>
<!-- Generator: Adobe Illustrator 18.1.1, SVG Export Plug-In . SVG Version: 6.00 Build 0)  -->
<!DOCTYPE svg PUBLIC "-//W3C//DTD SVG 1.1//EN" "http://www.w3.org/Graphics/SVG/1.1/DTD/svg11.dtd">
<svg version="1.1" id="Layer_1" xmlns="http://www.w3.org/2000/svg" xmlns:xlink="http://www.w3.org/1999/xlink" x="0px" y="0px"
	 viewBox="739 0 1181 1080" enable-background="new 739 0 1181 1080" xml:space="preserve">
<g id="Layer_1_1_">
	<path fill="#FFFFFF" d="M1181.1,756.2c3.5,3.5,7.1,5.3,10.6,5.3c3.5,0,8.8-1.8,10.6-5.3l236.5-235.8c7.1-7,7.1-15.8,0-22.9
		l-236.5-235.8c-7.1-7-15.9-7-22.9,0c-7.1,7-7.1,15.8,0,22.9l225.9,225.2l-225.9,225.2C1175.8,740.4,1175.8,749.2,1181.1,756.2z"/>
</g>
<g id="Layer_2" display="none">
	<path display="inline" fill="#231F20" d="M1124.9,1082.2L810.7,768l314.2-314.2c9.8-9.8,9.8-22.1,0-31.9c-9.8-9.8-22.1-9.8-31.9,0
		L764,750.8c-9.8,9.8-9.8,22.1,0,31.9l328.9,328.9c4.9,4.9,9.8,7.4,14.7,7.4c4.9,0,12.3-2.5,14.7-7.4
		C1134.7,1104.3,1134.7,1092,1124.9,1082.2z"/>
</g>
</svg>
